<?xml version="1.0" encoding="UTF-8" standalone="no"?>
<!-- Created with Inkscape (http://www.inkscape.org/) -->

<svg
   xmlns:dc="http://purl.org/dc/elements/1.1/"
   xmlns:cc="http://creativecommons.org/ns#"
   xmlns:rdf="http://www.w3.org/1999/02/22-rdf-syntax-ns#"
   xmlns:svg="http://www.w3.org/2000/svg"
   xmlns="http://www.w3.org/2000/svg"
   xmlns:sodipodi="http://sodipodi.sourceforge.net/DTD/sodipodi-0.dtd"
   xmlns:inkscape="http://www.inkscape.org/namespaces/inkscape"
   width="256"
   height="224"
   id="svg2"
   version="1.1"
   inkscape:version="0.48.2 r9819"
   sodipodi:docname="msu1-logo.svg"
   style="display:inline"
   inkscape:export-filename="/home/st/Documents/msu1-attempt-2-256.png"
   inkscape:export-xdpi="90"
   inkscape:export-ydpi="90">
  <defs
     id="defs4" />
  <sodipodi:namedview
     id="base"
     pagecolor="#000000"
     bordercolor="#666666"
     borderopacity="1.0"
     inkscape:pageopacity="1"
     inkscape:pageshadow="2"
     inkscape:zoom="1"
     inkscape:cx="129.82204"
     inkscape:cy="106.59776"
     inkscape:document-units="px"
     inkscape:current-layer="text3119-6"
     showgrid="true"
     fit-margin-top="0"
     fit-margin-left="0"
     fit-margin-right="0"
     fit-margin-bottom="0"
     inkscape:window-width="1600"
     inkscape:window-height="1150"
     inkscape:window-x="0"
     inkscape:window-y="25"
     inkscape:window-maximized="1"
     inkscape:snap-bbox="true"
     inkscape:snap-grids="true">
    <inkscape:grid
       type="xygrid"
       id="grid2997"
       empspacing="5"
       visible="false"
       enabled="true"
       snapvisiblegridlinesonly="true" />
  </sodipodi:namedview>
  <metadata
     id="metadata7">
    <rdf:RDF>
      <cc:Work
         rdf:about="">
        <dc:format>image/svg+xml</dc:format>
        <dc:type
           rdf:resource="http://purl.org/dc/dcmitype/StillImage" />
        <dc:title />
      </cc:Work>
    </rdf:RDF>
  </metadata>
  <g
     inkscape:groupmode="layer"
     id="layer2"
     inkscape:label="Layer"
     sodipodi:insensitive="true">
    <path
       style="fill:#ffffff;fill-opacity:1;fill-rule:evenodd;stroke:#000000;stroke-width:0;stroke-miterlimit:4;stroke-opacity:1;stroke-dasharray:none"
       d="m 111,96 -15,15 4,0 10,-10 0,10 2,0 10,-10 0,10 3,0 0,-15 -2,0 -10,10 0,-10 -2,0 z m 19.5,0 c -2.48528,0 -4.5,2.014719 -4.5,4.5 0,2.48528 2.01472,4.5 4.5,4.5 l 4,0 c 0.82843,0 1.5,0.67157 1.5,1.5 0,0.82843 -0.67157,1.5 -1.5,1.5 l -8.5,0 0,3 8.5,0 c 2.48528,0 4.5,-2.01472 4.5,-4.5 0,-2.48528 -2.01472,-4.5 -4.5,-4.5 l -4,0 c -0.82843,0 -1.5,-0.67157 -1.5,-1.5 0,-0.828427 0.67157,-1.5 1.5,-1.5 l 8.5,0 0,-3 -8.5,0 z m 9.5,0 0,10.5 c 0,2.48528 2.01472,4.5 4.5,4.5 l 4,0 c 2.48528,0 4.5,-2.01472 4.5,-4.5 l 0,-10.5 -3,0 0,10.5 c 1e-5,0.82843 -0.67157,1.5 -1.5,1.5 l -4,0 c -0.82843,0 -1.50001,-0.67157 -1.5,-1.5 l 0,-10.5 -3,0 z m 18,0 -4,4 0,2 3,0 0,9 3,0 0,-15 -2,0 z"
       id="path3758"
       inkscape:connector-curvature="0" />
    <path
       style="fill:#ff0000;fill-opacity:1;stroke:#000000;stroke-width:0;stroke-linecap:butt;stroke-linejoin:miter;stroke-miterlimit:4;stroke-opacity:1;stroke-dasharray:none"
       d="m 96,112 0,2 64,0 0,-2 z"
       id="path3798"
       inkscape:connector-curvature="0" />
  </g>
  <g
     inkscape:groupmode="layer"
     id="layer3"
     inkscape:label="Helvetica caption"
     style="display:none"
     sodipodi:insensitive="true">
    <g
       transform="scale(1.1231288,0.89036983)"
       style="font-size:6.18990803px;font-style:normal;font-variant:normal;font-weight:bold;font-stretch:condensed;text-align:start;line-height:125%;letter-spacing:0px;word-spacing:0px;writing-mode:lr-tb;text-anchor:start;fill:#ffffff;fill-opacity:1;stroke:none;display:inline;font-family:Nimbus Sans L;-inkscape-font-specification:Nimbus Sans L Bold Condensed"
       id="text3801">
      <path
         d="m 89.169677,129.09036 -1.095614,0 -0.65613,3.52825 -0.66851,-3.52825 -1.107994,0 0,4.44435 0.70565,0 0,-3.76965 0.6747,3.76965 0.748979,0 0.69327,-3.76965 0,3.76965 0.705649,0 0,-4.44435"
         id="path3806"
         inkscape:connector-curvature="0" />
      <path
         d="m 92.583992,129.09036 -2.680231,0 0,4.44435 2.766889,0 0,-0.78611 -2.0241,0 0,-1.15133 1.782694,0 0,-0.78612 -1.782694,0 0,-0.93467 1.937442,0 0,-0.78612"
         id="path3808"
         inkscape:connector-curvature="0" />
      <path
         d="m 93.288867,133.53471 1.578427,0 c 0.402344,0 0.755169,-0.16712 0.996575,-0.46424 0.334255,-0.4271 0.519953,-1.08323 0.519953,-1.85078 0,-1.3494 -0.544713,-2.12933 -1.485578,-2.12933 l -1.609377,0 0,4.44435 m 0.742789,-3.68299 0.73041,0 c 0.247596,0 0.433293,0.0805 0.563281,0.23521 0.185697,0.22903 0.284736,0.63138 0.284736,1.15752 0,0.96562 -0.309496,1.52891 -0.835638,1.52891 l -0.742789,0 0,-2.92164"
         id="path3810"
         inkscape:connector-curvature="0" />
      <path
         d="m 97.651495,129.09036 -0.761359,0 0,4.44435 0.761359,0 0,-4.44435"
         id="path3812"
         inkscape:connector-curvature="0" />
      <path
         d="m 99.140265,132.61861 1.343205,0 0.23522,0.9161 0.82945,0 -1.2875,-4.44435 -0.878969,0 -1.299881,4.44435 0.804688,0 0.253787,-0.9161 m 0.6747,-2.54405 0.458055,1.78269 -0.928488,0 0.470433,-1.78269"
         id="path3814"
         inkscape:connector-curvature="0" />
      <path
         d="m 106.12442,129.09036 -2.68023,0 0,4.44435 2.76688,0 0,-0.78611 -2.0241,0 0,-1.15133 1.7827,0 0,-0.78612 -1.7827,0 0,-0.93467 1.93745,0 0,-0.78612"
         id="path3816"
         inkscape:connector-curvature="0" />
      <path
         d="m 109.05766,132.21007 -1.46082,-3.11971 -0.7985,0 0,4.44435 0.70565,0 0,-3.1878 1.50415,3.1878 0.75517,0 0,-4.44435 -0.70565,0 0,3.11971"
         id="path3818"
         inkscape:connector-curvature="0" />
      <path
         d="m 112.65274,131.53537 0,1.99934 0.76136,0 0,-4.44435 -0.76136,0 0,1.68365 -1.42368,0 0,-1.68365 -0.76136,0 0,4.44435 0.76136,0 0,-1.99934 1.42368,0"
         id="path3820"
         inkscape:connector-curvature="0" />
      <path
         d="m 114.92937,132.61861 1.34321,0 0.23521,0.9161 0.82945,0 -1.2875,-4.44435 -0.87897,0 -1.29988,4.44435 0.80469,0 0.25379,-0.9161 m 0.6747,-2.54405 0.45805,1.78269 -0.92849,0 0.47044,-1.78269"
         id="path3822"
         inkscape:connector-curvature="0" />
      <path
         d="m 120.04716,132.21007 -1.46082,-3.11971 -0.79849,0 0,4.44435 0.70564,0 0,-3.1878 1.50415,3.1878 0.75517,0 0,-4.44435 -0.70565,0 0,3.11971"
         id="path3824"
         inkscape:connector-curvature="0" />
      <path
         d="m 124.57073,130.54499 c -0.0371,-0.35283 -0.0928,-0.53852 -0.22903,-0.78612 -0.27854,-0.50138 -0.75517,-0.78612 -1.33083,-0.78612 -1.0399,0 -1.68984,0.90373 -1.68984,2.35217 0,1.44224 0.63756,2.3274 1.67127,2.3274 0.48281,0 0.89135,-0.19808 1.16989,-0.57566 0.21046,-0.28473 0.3095,-0.53852 0.40854,-1.06466 l -0.76136,0 c -0.0557,0.24759 -0.0928,0.35901 -0.17332,0.489 -0.14856,0.22903 -0.3652,0.34663 -0.63137,0.34663 -0.56947,0 -0.90991,-0.56947 -0.90991,-1.51652 0,-0.97801 0.34663,-1.55367 0.93467,-1.55367 0.25379,0 0.47043,0.11142 0.60042,0.29712 0.0805,0.12998 0.1238,0.22902 0.17951,0.47043 l 0.76136,0"
         id="path3826"
         inkscape:connector-curvature="0" />
      <path
         d="m 127.82536,129.09036 -2.68023,0 0,4.44435 2.76689,0 0,-0.78611 -2.0241,0 0,-1.15133 1.78269,0 0,-0.78612 -1.78269,0 0,-0.93467 1.93744,0 0,-0.78612"
         id="path3828"
         inkscape:connector-curvature="0" />
      <path
         d="m 132.02753,129.09036 -1.09561,0 -0.65613,3.52825 -0.66851,-3.52825 -1.10799,0 0,4.44435 0.70565,0 0,-3.76965 0.6747,3.76965 0.74897,0 0.69327,-3.76965 0,3.76965 0.70565,0 0,-4.44435"
         id="path3830"
         inkscape:connector-curvature="0" />
      <path
         d="m 135.44185,129.09036 -2.68023,0 0,4.44435 2.76689,0 0,-0.78611 -2.0241,0 0,-1.15133 1.78269,0 0,-0.78612 -1.78269,0 0,-0.93467 1.93744,0 0,-0.78612"
         id="path3832"
         inkscape:connector-curvature="0" />
      <path
         d="m 138.37509,132.21007 -1.46082,-3.11971 -0.79849,0 0,4.44435 0.70565,0 0,-3.1878 1.50414,3.1878 0.75517,0 0,-4.44435 -0.70565,0 0,3.11971"
         id="path3834"
         inkscape:connector-curvature="0" />
      <path
         d="m 141.35737,129.87648 1.10181,0 0,-0.78612 -2.96497,0 0,0.78612 1.1018,0 0,3.65823 0.76136,0 0,-3.65823"
         id="path3836"
         inkscape:connector-curvature="0" />
    </g>
  </g>
  <g
     inkscape:groupmode="layer"
     id="layer4"
     inkscape:label="Oswald caption"
     style="display:none"
     sodipodi:insensitive="true">
    <text
       xml:space="preserve"
       style="font-size:7.3968401px;font-style:normal;font-variant:normal;font-weight:normal;font-stretch:normal;text-align:center;line-height:125%;letter-spacing:0px;word-spacing:0px;writing-mode:lr-tb;text-anchor:middle;fill:#ffffff;fill-opacity:1;stroke:none;font-family:Oswald;-inkscape-font-specification:Oswald"
       x="127.88442"
       y="121.53725"
       id="text3030"
       sodipodi:linespacing="125%"><tspan
         sodipodi:role="line"
         id="tspan3032"
         x="127.88442"
         y="121.53725">MEDIA ENHANCEMENT</tspan></text>
  </g>
  <g
     style="display:none"
     inkscape:label="Oswald caption curves"
     id="g3014"
     inkscape:groupmode="layer"
     sodipodi:insensitive="true">
    <g
       style="font-size:7.3968401px;font-style:normal;font-variant:normal;font-weight:normal;font-stretch:normal;text-align:center;line-height:125%;letter-spacing:0px;word-spacing:0px;writing-mode:lr-tb;text-anchor:middle;fill:#ffffff;fill-opacity:1;stroke:none;font-family:Oswald;-inkscape-font-specification:Oswald"
       id="text3016">
      <path
         d="m 97.849206,121.53725 -0.924605,-5.107 0,5.107 -0.924605,0 0,-6.47224 1.278556,0 0.917381,4.95531 0.917382,-4.95531 1.278555,0 0,6.47224 -0.924605,0 0,-5.107 -0.924605,5.107 -0.693454,0"
         id="path3021"
         inkscape:connector-curvature="0" />
      <path
         d="m 103.39684,118.53228 -1.15576,0 0,2.31151 1.61806,0 0,0.69346 -2.54266,0 0,-6.47224 2.54266,0 0,0.69346 -1.61806,0 0,2.08036 1.15576,0 0,0.69345"
         id="path3023"
         inkscape:connector-curvature="0" />
      <path
         d="m 104.55259,121.53725 0,-6.47224 1.38691,0 c 0.34672,1e-5 0.63807,0.0313 0.87404,0.0939 0.23596,0.0626 0.42618,0.16614 0.57066,0.31061 0.14446,0.14447 0.248,0.33469 0.3106,0.57065 0.0626,0.23597 0.0939,0.52732 0.0939,0.87404 l 0,2.54267 c 0,0.34672 -0.0313,0.65011 -0.0939,0.91015 -0.0626,0.26005 -0.16614,0.47675 -0.3106,0.65012 -0.14448,0.17336 -0.3359,0.30338 -0.57427,0.39006 -0.23597,0.0867 -0.52852,0.13003 -0.87765,0.13003 l -1.37969,0 m 1.38691,-0.69346 c 0.23115,0 0.40933,-0.0301 0.53454,-0.0903 0.1252,-0.0602 0.2167,-0.1553 0.27449,-0.28533 0.0578,-0.13002 0.0915,-0.29736 0.10113,-0.50203 0.01,-0.20466 0.0144,-0.45146 0.0144,-0.74041 l 0,-2.08036 c 0,-0.23114 -0.005,-0.4334 -0.0144,-0.60677 -0.01,-0.17336 -0.0446,-0.31783 -0.10474,-0.43341 -0.0578,-0.11557 -0.15049,-0.20225 -0.27811,-0.26004 -0.12761,-0.0578 -0.3094,-0.0867 -0.54537,-0.0867 l -0.44424,0 0,5.08532 0.4623,0"
         id="path3025"
         inkscape:connector-curvature="0" />
      <path
         d="m 108.59774,115.06501 0.9246,0 0,6.47224 -0.9246,0 0,-6.47224"
         id="path3027"
         inkscape:connector-curvature="0" />
      <path
         d="m 111.48713,119.91919 -0.34673,1.61806 -0.9246,0 1.38691,-6.47224 0.9246,0 1.38691,6.47224 -0.92461,0 -0.34672,-1.61806 -1.15576,0 m 1.04018,-0.69346 -0.4623,-2.77381 -0.4623,2.77381 0.9246,0"
         id="path3029"
         inkscape:connector-curvature="0" />
      <path
         d="m 118.62393,118.53228 -1.15576,0 0,2.31151 1.61806,0 0,0.69346 -2.54267,0 0,-6.47224 2.54267,0 0,0.69346 -1.61806,0 0,2.08036 1.15576,0 0,0.69345"
         id="path3031"
         inkscape:connector-curvature="0" />
      <path
         d="m 122.35846,121.53725 -1.65417,-4.3052 0,4.3052 -0.92461,0 0,-6.47224 0.69346,0 1.61805,4.00181 0,-4.00181 0.92461,0 0,6.47224 -0.65734,0"
         id="path3033"
         inkscape:connector-curvature="0" />
      <path
         d="m 126.48307,118.53228 -1.61806,0 0,3.00497 -0.9246,0 0,-6.47224 0.9246,0 0,2.77382 1.61806,0 0,-2.77382 0.9246,0 0,6.47224 -0.9246,0 0,-3.00497"
         id="path3035"
         inkscape:connector-curvature="0" />
      <path
         d="m 129.37246,119.91919 -0.34673,1.61806 -0.9246,0 1.38691,-6.47224 0.9246,0 1.38691,6.47224 -0.92461,0 -0.34672,-1.61806 -1.15576,0 m 1.04018,-0.69346 -0.4623,-2.77381 -0.4623,2.77381 0.9246,0"
         id="path3037"
         inkscape:connector-curvature="0" />
      <path
         d="m 135.07178,121.53725 -1.65417,-4.3052 0,4.3052 -0.92461,0 0,-6.47224 0.69345,0 1.61806,4.00181 0,-4.00181 0.92461,0 0,6.47224 -0.65734,0"
         id="path3039"
         inkscape:connector-curvature="0" />
      <path
         d="m 140.23657,119.22573 0,0.23116 c 0,0.28894 -0.0313,0.56343 -0.0939,0.82347 -0.0626,0.26005 -0.16614,0.48759 -0.31061,0.68262 -0.14447,0.19503 -0.33469,0.35034 -0.57065,0.46591 -0.23597,0.11558 -0.52732,0.17337 -0.87404,0.17337 -0.34673,0 -0.63808,-0.059 -0.87404,-0.17698 -0.23597,-0.11798 -0.42619,-0.28171 -0.57066,-0.49119 -0.14447,-0.21189 -0.248,-0.46351 -0.31061,-0.75486 -0.0626,-0.29134 -0.0939,-0.61038 -0.0939,-0.95711 l 0,-1.8456 c 0,-0.34672 0.0313,-0.66575 0.0939,-0.95711 0.0626,-0.29134 0.16614,-0.54175 0.31061,-0.75124 0.14447,-0.20947 0.33469,-0.3732 0.57066,-0.49119 0.23596,-0.11798 0.52731,-0.17697 0.87404,-0.17698 0.32746,1e-5 0.60797,0.053 0.84153,0.15892 0.23597,0.10354 0.42739,0.24921 0.57427,0.43702 0.14928,0.18781 0.25884,0.41415 0.32867,0.679 0.0698,0.26246 0.10474,0.5526 0.10474,0.87043 l -0.92461,0 c 0,-0.23114 -0.0156,-0.4334 -0.047,-0.60677 -0.0313,-0.17336 -0.0831,-0.31783 -0.1553,-0.43341 -0.0722,-0.11557 -0.16735,-0.20225 -0.28533,-0.26004 -0.11799,-0.0578 -0.26366,-0.0867 -0.43702,-0.0867 -0.17337,0 -0.31904,0.0289 -0.43702,0.0867 -0.11799,0.0578 -0.2131,0.14447 -0.28533,0.26004 -0.0722,0.11558 -0.124,0.26005 -0.1553,0.43341 -0.0313,0.17337 -0.047,0.37563 -0.047,0.60677 l 0,2.31152 c 0,0.17336 0.0156,0.34311 0.047,0.50925 0.0313,0.16614 0.0831,0.31422 0.1553,0.44424 0.0722,0.13003 0.16734,0.23477 0.28533,0.31423 0.11798,0.0795 0.26365,0.11918 0.43702,0.11918 0.17336,0 0.31903,-0.0397 0.43702,-0.11918 0.11798,-0.0795 0.21309,-0.1842 0.28533,-0.31423 0.0722,-0.13002 0.124,-0.2781 0.1553,-0.44424 0.0313,-0.16614 0.047,-0.33589 0.047,-0.50925 l 0,-0.23116 0.92461,0"
         id="path3041"
         inkscape:connector-curvature="0" />
      <path
         d="m 143.12596,118.53228 -1.15576,0 0,2.31151 1.61806,0 0,0.69346 -2.54266,0 0,-6.47224 2.54266,0 0,0.69346 -1.61806,0 0,2.08036 1.15576,0 0,0.69345"
         id="path3043"
         inkscape:connector-curvature="0" />
      <path
         d="m 146.13093,121.53725 -0.92461,-5.107 0,5.107 -0.9246,0 0,-6.47224 1.27855,0 0.91738,4.95531 0.91738,-4.95531 1.27856,0 0,6.47224 -0.92461,0 0,-5.107 -0.9246,5.107 -0.69345,0"
         id="path3045"
         inkscape:connector-curvature="0" />
      <path
         d="m 151.67856,118.53228 -1.15576,0 0,2.31151 1.61806,0 0,0.69346 -2.54267,0 0,-6.47224 2.54267,0 0,0.69346 -1.61806,0 0,2.08036 1.15576,0 0,0.69345"
         id="path3047"
         inkscape:connector-curvature="0" />
      <path
         d="m 155.41309,121.53725 -1.65417,-4.3052 0,4.3052 -0.92461,0 0,-6.47224 0.69346,0 1.61806,4.00181 0,-4.00181 0.9246,0 0,6.47224 -0.65734,0"
         id="path3049"
         inkscape:connector-curvature="0" />
      <path
         d="m 160,115.06501 0,0.82348 -1.15576,0 0,5.64876 -0.9246,0 0,-5.64876 -1.15576,0 0,-0.82348 3.23612,0"
         id="path3051"
         inkscape:connector-curvature="0" />
    </g>
  </g>
  <g
     inkscape:groupmode="layer"
     id="layer5"
     inkscape:label="League Gothic caption"
     style="display:none">
    <text
       xml:space="preserve"
       style="font-size:10.9618082px;font-style:normal;font-variant:normal;font-weight:normal;font-stretch:normal;text-align:start;line-height:125%;letter-spacing:0px;word-spacing:0px;writing-mode:lr-tb;text-anchor:start;fill:#ffffff;fill-opacity:1;stroke:none;font-family:League Gothic;-inkscape-font-specification:League Gothic"
       x="95.561523"
       y="123.14462"
       id="text3119"
       sodipodi:linespacing="125%"><tspan
         sodipodi:role="line"
         id="tspan3123"
         x="95.561523"
         y="123.14462">MEDIA ENHANCEMENT</tspan></text>
  </g>
  <g
     inkscape:groupmode="layer"
     id="layer6"
     inkscape:label="League Gothic caption curves"
     style="display:inline">
    <g
       style="font-size:10.9618082px;font-style:normal;font-variant:normal;font-weight:normal;font-stretch:normal;text-align:start;line-height:125%;letter-spacing:0px;word-spacing:0px;writing-mode:lr-tb;text-anchor:start;fill:#ffffff;fill-opacity:1;stroke:none;display:inline;font-family:League Gothic;-inkscape-font-specification:League Gothic"
       id="text3119-6">
      <path
         d="m 98.46641,123.14462 0.756365,-5.06435 0.04385,-0.33982 0.06577,0 0,0.33982 0,5.06435 1.096177,0 0,-8.05693 -1.446955,0 -0.701555,3.68317 -0.05481,0.42751 -0.02192,0 -0.05481,-0.42751 -0.701556,-3.68317 -1.446959,0 0,8.05693 1.096181,0 0,-5.06435 0,-0.33982 0.06577,0 0.04385,0.33982 0.756365,5.06435 0.504243,0"
         style=""
         id="path3148" />
      <path
         d="m 101.30963,123.14462 2.70757,0 0,-1.21676 -1.5237,0 0,-2.21428 1.09619,0 0,-1.2935 -1.09619,0 0,-2.11563 1.5237,0 0,-1.21676 -2.70757,0 0,8.05693"
         style=""
         id="path3150" />
      <path
         d="m 107.95951,119.12164 c 0,-3.157 -0.16443,-4.02298 -2.35679,-4.03395 l -0.93176,0 0,8.05693 0.93176,0 c 2.19236,-0.011 2.35679,-0.87694 2.35679,-4.02298 m -2.10467,-2.85007 c 0.8331,0 0.88791,0.20828 0.87694,2.83911 0.011,2.64179 -0.0438,2.85007 -0.87694,2.85007 l 0,-5.68918"
         style=""
         id="path3152" />
      <path
         d="m 108.73882,123.14462 1.18388,0 0,-8.05693 -1.18388,0 0,8.05693"
         style=""
         id="path3154" />
      <path
         d="m 111.6163,123.14462 0.21923,-1.64427 1.14003,0 0.21924,1.64427 1.15099,0 -1.21676,-8.05693 -1.44696,0 -1.21676,8.05693 1.15099,0 m 1.19484,-2.89391 -0.81118,0 0.33982,-2.54314 0.0329,-0.20828 0.0658,0 0.0329,0.20828 0.33982,2.54314"
         style=""
         id="path3156" />
      <path
         d="m 116.5748,123.14462 2.70757,0 0,-1.21676 -1.52369,0 0,-2.21428 1.09618,0 0,-1.2935 -1.09618,0 0,-2.11563 1.52369,0 0,-1.21676 -2.70757,0 0,8.05693"
         style=""
         id="path3158" />
      <path
         d="m 122.33678,123.14462 c 0,0 1.05233,0 1.05233,0 0,0 0,-8.05693 0,-8.05693 l -1.08522,0 0,4.19838 0,0.3727 -0.0658,0 -0.0987,-0.3727 c 0,0 -1.15099,-4.19838 -1.15099,-4.19838 0,0 -1.05233,0 -1.05233,0 0,0 0,8.05693 0,8.05693 l 1.08522,0 0,-4.19837 0,-0.3727 0.0658,0 0.0987,0.3727 1.15099,4.19837"
         style=""
         id="path3160" />
      <path
         d="m 126.36558,123.14462 1.18388,0 0,-8.05693 -1.18388,0 0,3.33239 -0.92079,0 0,-3.33239 -1.18387,0 c 0,0.0548 0,8.05693 0,8.05693 l 1.18387,0 0,-3.50778 0.92079,0 0,3.50778"
         style=""
         id="path3162" />
      <path
         d="m 129.25796,123.14462 0.21923,-1.64427 1.14003,0 0.21924,1.64427 1.15099,0 -1.21676,-8.05693 -1.44696,0 -1.21676,8.05693 1.15099,0 m 1.19483,-2.89391 -0.81117,0 0.33982,-2.54314 0.0329,-0.20828 0.0658,0 0.0329,0.20828 0.33981,2.54314"
         style=""
         id="path3164" />
      <path
         d="m 134.92572,123.14462 c 0,0 1.05234,0 1.05234,0 0,0 0,-8.05693 0,-8.05693 l -1.08522,0 0,4.19838 0,0.3727 -0.0658,0 -0.0987,-0.3727 c 0,0 -1.15099,-4.19838 -1.15099,-4.19838 0,0 -1.05233,0 -1.05233,0 0,0 0,8.05693 0,8.05693 l 1.08522,0 0,-4.19837 0,-0.3727 0.0658,0 0.0986,0.3727 1.15099,4.19837"
         style=""
         id="path3166" />
      <path
         d="m 138.82299,120.38225 0,1.10714 c 0,0 0.0438,0.59194 -0.44943,0.59194 -0.41655,0 -0.41655,-0.59194 -0.41655,-0.59194 l 0,-4.74646 c 0,0 0,-0.59194 0.41655,-0.59194 0.49328,0 0.44943,0.59194 0.44943,0.59194 l 0,1.10714 c 0,0 1.10714,0 1.10714,0 l 0,-1.10714 c 0,0 0.011,-1.74293 -1.5785,-1.74293 -1.58946,0 -1.5785,1.74293 -1.5785,1.74293 l 0,4.74646 c 0,0 -0.011,1.74293 1.5785,1.74293 1.58946,0 1.5785,-1.74293 1.5785,-1.74293 l 0,-1.10714 -1.10714,0"
         style=""
         id="path3168" />
      <path
         d="m 140.6394,123.14462 2.70756,0 0,-1.21676 -1.52369,0 0,-2.21428 1.09618,0 0,-1.2935 -1.09618,0 0,-2.11563 1.52369,0 0,-1.21676 -2.70756,0 0,8.05693"
         style=""
         id="path3170" />
      <path
         d="m 146.46714,123.14462 0.75636,-5.06435 0.0438,-0.33982 0.0658,0 0,0.33982 0,5.06435 1.09618,0 0,-8.05693 -1.44696,0 -0.70155,3.68317 -0.0548,0.42751 -0.0219,0 -0.0548,-0.42751 -0.70156,-3.68317 -1.44696,0 0,8.05693 1.09618,0 0,-5.06435 0,-0.33982 0.0658,0 0.0438,0.33982 0.75637,5.06435 0.50424,0"
         style=""
         id="path3172" />
      <path
         d="m 149.31036,123.14462 2.70757,0 0,-1.21676 -1.5237,0 0,-2.21428 1.09619,0 0,-1.2935 -1.09619,0 0,-2.11563 1.5237,0 0,-1.21676 -2.70757,0 0,8.05693"
         style=""
         id="path3174" />
      <path
         d="m 155.07233,123.14462 c 0,0 1.05233,0 1.05233,0 0,0 0,-8.05693 0,-8.05693 l -1.08521,0 0,4.19838 0,0.3727 -0.0658,0 -0.0987,-0.3727 c 0,0 -1.15099,-4.19838 -1.15099,-4.19838 0,0 -1.05233,0 -1.05233,0 0,0 0,8.05693 0,8.05693 l 1.08521,0 0,-4.19837 0,-0.3727 0.0658,0 0.0986,0.3727 1.15099,4.19837"
         style=""
         id="path3176" />
      <path
         d="m 157.69803,116.30445 0,6.84017 1.18387,0 0,-6.84017 1.11811,0 0,-1.21676 -3.42009,0 0,1.21676 1.11811,0"
         style=""
         id="path3178" />
    </g>
  </g>
</svg>
