<svg height="78" viewBox="0 0 78 78" width="78" xmlns="http://www.w3.org/2000/svg" xmlns:xlink="http://www.w3.org/1999/xlink"><linearGradient id="a" x1="30.516%" x2="104.556%" y1="15.644%" y2="99.935%"><stop offset="0" stop-color="#ff8c00"/><stop offset=".59573" stop-color="#f22e83"/><stop offset=".99923" stop-color="#002ec7"/></linearGradient><g fill="none" fill-rule="evenodd"><path d="m21.125 29.25v25.893a4.277 4.277 0 0 0 4.283 4.27h2.592v9.599a4.12 4.12 0 0 0 4.125 4.113 4.12 4.12 0 0 0 4.125-4.113v-9.598h5.5v9.598a4.12 4.12 0 0 0 4.125 4.113 4.12 4.12 0 0 0 4.125-4.113v-9.598h2.592a4.277 4.277 0 0 0 4.283-4.271v-25.893z" fill="url(#a)"/><g fill="#000"><path d="m62.563 29.25a4.056 4.056 0 0 0 -4.063 4.063v15.437a4.056 4.056 0 0 0 4.063 4.063 4.056 4.056 0 0 0 4.062-4.063v-15.438a4.056 4.056 0 0 0 -4.063-4.062m0 .813a3.25 3.25 0 0 1 3.25 3.25v15.437a3.25 3.25 0 1 1 -6.5 0v-15.438a3.25 3.25 0 0 1 3.25-3.25m-12.187-25.187c-.514 0-1.275.467-1.625 1.625l-1.625 4.063c-2.532-1.57-5.25-2.26-8.125-2.438-2.874.178-5.593.867-8.125 2.438l-1.625-4.063c-.162-1.056-.971-1.618-1.625-1.625-.408.007-.617.039-.813 0-1.137.491-1.7 1.73-1.625 2.438l2.438 4.875c-4.024 3.617-6.5 8.502-6.5 13.812v.813h35.75v-.813c0-5.317-2.484-10.21-6.5-13.813l2.438-4.062c.105-1.225-.154-2.328-.813-3.25-.536.116-.943 0-1.625 0m0 .813c.538 0 .786.077.813 0 .667.545.84 1.225.812 1.625l-2.438 4.875v.812h.813c3.436 3.364 5.65 8.047 5.688 13h-34.126c.038-4.945 2.246-9.623 5.688-13h.813v-.813l-2.438-4.873c.174-.24.184-.59 0-.813.473-.402.733-.635.813-.813.366.027.486.007.812 0 .318.007.829.37.813.813l1.625 4.063.812.812.813-.813c2.068-.835 4.638-1.447 7.312-1.624 2.674.177 5.244.79 7.313 1.624l.812.813.813-.813 1.624-4.063c.151-.516.602-.813.813-.813"/><path d="m30.063 16.25c-.716 0-1.625.91-1.625 2.438 0 .715.909 1.625 1.625 1.625 1.527 0 2.437-.91 2.437-1.625 0-1.529-.91-2.438-2.438-2.438m0 .813c1.079 0 1.625.546 1.625 1.625 0 .266-.546.812-1.625.812-.266 0-.812-.546-.812-.813 0-1.078.546-1.625.813-1.625m18.687-.812c-1.528 0-2.438.91-2.438 2.438 0 .715.91 1.625 2.438 1.625.715 0 1.625-.91 1.625-1.625 0-1.529-.91-2.438-1.625-2.438m0 .813c.266 0 .813.546.813 1.625 0 .266-.547.812-.813.812-1.079 0-1.625-.546-1.625-.813 0-1.078.546-1.625 1.625-1.625m-33.312 12.188a4.056 4.056 0 0 0 -4.063 4.063v15.437a4.056 4.056 0 0 0 4.063 4.063 4.056 4.056 0 0 0 4.062-4.063v-15.438a4.056 4.056 0 0 0 -4.063-4.062m0 .813a3.25 3.25 0 0 1 3.25 3.25v15.437a3.25 3.25 0 1 1 -6.5 0v-15.438a3.25 3.25 0 0 1 3.25-3.25"/></g></g></svg>