<svg height="72" viewBox="0 0 72 72" width="72" xmlns="http://www.w3.org/2000/svg" xmlns:xlink="http://www.w3.org/1999/xlink"><linearGradient id="a" x1="20.654%" x2="117.876%" y1="25.196%" y2="117.393%"><stop offset="0" stop-color="#ff8c00"/><stop offset=".59573" stop-color="#f22e83"/><stop offset=".99923" stop-color="#002ec7"/></linearGradient><g fill="none" fill-rule="evenodd"><path d="m0 16.805v36.147l31.16-16.806 31.159 16.806v-36.149l-31.16-16.803z" fill="url(#a)" transform="translate(4.84 .28)"/><path d="m62.182 25.477.034.024.024.017.003.003-.061-.044a.374.374 0 0 1 .189.319v30.248c0 .133-.07.256-.185.323l-25.996 15.34-.004.003-.036.015-.02.01-.002.002.058-.027a.374.374 0 0 1 -.377-.003l-25.995-15.34a.376.376 0 0 1 -.185-.323v-30.248l.004-.03.005-.042v-.005l-.009.077a.374.374 0 0 1 .19-.319l.007-.004 25.996-14.02a.375.375 0 0 1 .356 0l25.996 14.02zm-51.803.983v29.37l25.246 14.897v-29.37zm51.242 0-25.246 14.897v29.37l25.246-14.897zm-25.621-14.25-25.234 13.606 25.234 14.877 25.232-14.876z" fill="#000"/></g></svg>