<svg height="72" viewBox="0 0 72 72" width="72" xmlns="http://www.w3.org/2000/svg" xmlns:xlink="http://www.w3.org/1999/xlink"><linearGradient id="a" x1="20.654%" x2="120.627%" y1="34.234%" y2="91.296%"><stop offset="0" stop-color="#ff8c00"/><stop offset=".59573" stop-color="#f22e83"/><stop offset=".99923" stop-color="#002ec7"/></linearGradient><g fill="none" fill-rule="evenodd"><path d="m12.75 45.75h46.5v-31.5h-46.5zm3.976-15.785 6.8-6.763h6.088l-6.799 6.763 6.803 6.767h-6.088l-6.803-6.767zm19.088-6.762h4.502l-4.156 13.53h-4.502zm6.699 13.53 6.802-6.766-6.798-6.763h5.9l6.8 6.764-6.804 6.766h-5.9z" fill="url(#a)"/><path d="m40 53.75h-8v9.627h-8.006c-4.932 0-8.951 3.6-9.229 8.123h42.47c-.278-4.523-4.297-8.123-9.228-8.123h-8.007zm.257 9.388h7.77c4.914 0 9.027 3.512 9.47 8.063l.054.549h-43.101l.053-.549c.444-4.551 4.557-8.063 9.471-8.063h7.77v-9.638h8.514v9.638zm-2.746-57.388h-26.085c-3.97 0-7.176 3.021-7.176 6.733v34.284c0 3.712 3.206 6.733 7.176 6.733h49.148c3.97 0 7.176-3.021 7.176-6.733v-34.284c0-3.712-3.206-6.733-7.176-6.733h-23.064z" stroke="#000"/><path d="m30.75 0h3.75v3.75h-3.75z" fill="#d8d8d8"/></g></svg>