<svg height="70" viewBox="0 0 70 70" width="70" xmlns="http://www.w3.org/2000/svg" xmlns:xlink="http://www.w3.org/1999/xlink"><linearGradient id="a" gradientUnits="userSpaceOnUse" x1="28.03615" x2="9.84159" y1="46.08468" y2="36.64686"><stop offset="0" stop-color="#2773e7"/><stop offset="1" stop-color="#fc801d"/></linearGradient><linearGradient id="b" gradientUnits="userSpaceOnUse" x1="58.40651" x2="39.72547" y1="63.08414" y2="20.8572"><stop offset="0" stop-color="#2773e7"/><stop offset="1" stop-color="#9039d0"/></linearGradient><linearGradient id="c" x1="53.59346" x2="53.59346" xlink:href="#b" y1="1.03748" y2="33.82661"/><linearGradient id="d" gradientUnits="userSpaceOnUse" x1="28.80169" x2="14.40172" y1="20.41972" y2="72.76556"><stop offset="0" stop-color="#fe2857"/><stop offset="1" stop-color="#9039d0"/></linearGradient><g fill-rule="evenodd"><path d="m.767 41.235 16.953 13.344 15.64-19.578-24.172-9.408z" fill="url(#a)"/><path d="m38.938 12.25 10.281 22.752-23.625 24.499 16.188 10.499 26.906-10.828 1.312-40.467-21.765-17.611z" fill="url(#b)"/><path d="m37.187 14.219 11.484 29.64 21.329-25.154-21.765-17.611z" fill="url(#c)"/><path d="m10.173 0-10.173 27.672 15.969 5.36-5.796 19.469-4.484 15.75 28.217-9.188 19.797-31.719-21.656-24.72z" fill="url(#d)"/><path d="m13.399 56.601h43.2v-43.201h-43.2z"/><g fill="#fff"><path d="m26.359 22.318v-3.318h-8.64v3.318h2.424v11.613h-2.424v3.43h8.64v-3.43h-2.423v-11.613z"/><path d="m29.599 19v18.361h13.608v-3.561h-9.72v-3.895h8.424v-3.562h-8.424v-3.782h9.612v-3.561z"/></g></g><path d="m17.5 48.5h16.2v2.7h-16.2z" fill="#fff"/></svg>