<svg height="72" viewBox="0 0 72 72" width="72" xmlns="http://www.w3.org/2000/svg" xmlns:xlink="http://www.w3.org/1999/xlink"><linearGradient id="a"><stop offset="0" stop-color="#ff8c00"/><stop offset=".59573" stop-color="#f22e83"/><stop offset=".99923" stop-color="#002ec7"/></linearGradient><linearGradient id="b" x1="20.654%" x2="128.804%" xlink:href="#a" y1="15.67%" y2="105.239%"/><linearGradient id="c" x1="20.654%" x2="128.887%" xlink:href="#a" y1="45.457%" y2="57.319%"/><g fill="none" fill-rule="evenodd"><path d="m44.944 4.484c-12.426 0-22.5 10.07-22.5 22.49 0 8.186 4.375 15.347 10.913 19.282v-8.112a4.499 4.499 0 0 1 -.491-.418 4.438 4.438 0 1 1 6.279-6.276 4.438 4.438 0 0 1 0 6.276 4.499 4.499 0 0 1 -.492.418v10.425a22.5 22.5 0 0 0 6.291.898c12.426 0 22.5-10.07 22.5-22.492s-10.074-22.491-22.5-22.491" fill="url(#b)"/><path d="m24 72h24.75v-9h-24.75z" fill="url(#c)"/><g stroke="#000"><path d="m24.5 62.497 11.877-.075 11.873.075v-9.895l.23-.147c5.354-3.45 8.77-10.436 8.77-17.783 0-11.832-9.514-21.422-21.25-21.422-11.735 0-21.25 9.59-21.25 21.422 0 7.346 3.562 13.866 9.525 17.785l.225.148z"/><path d="m36 1.127v6.426m-32.484 24.081h6.425m.559-22.634 4.543 4.543m47.016 18.091h6.425m-12.984-18.091 4.544-4.543" stroke-linecap="round"/></g></g></svg>