<svg height="72" viewBox="0 0 72 72" width="72" xmlns="http://www.w3.org/2000/svg" xmlns:xlink="http://www.w3.org/1999/xlink"><linearGradient id="a"><stop offset="0" stop-color="#ff8c00"/><stop offset=".59573" stop-color="#f22e83"/><stop offset=".99923" stop-color="#002ec7"/></linearGradient><linearGradient id="b" x1="20.654%" x2="106.178%" xlink:href="#a" y1="47.195%" y2="65.653%"/><linearGradient id="c" x1="20.654%" x2="112.846%" xlink:href="#a" y1="38.417%" y2="94.536%"/><g fill="none" fill-rule="evenodd"><path d="m62.896 66h-53.792c-2.539 0-4.604-2.085-4.604-4.648v-36.242c0-.199.16-.36.357-.36s.357.161.357.36v36.242c0 2.166 1.745 3.928 3.89 3.928h53.792c2.145 0 3.89-1.762 3.89-3.928v-36.242c0-.199.16-.36.357-.36s.357.161.357.36v36.242c0 2.563-2.065 4.648-4.604 4.648" fill="#000"/><path d="m12.85 19.5h32.638v-4.5h-32.639v4.5zm41.746 0h4.555v-4.5h-4.555zm12.904 5.25v-13.5c0-2.602-1.923-4.5-4.554-4.5h-53.892c-2.63 0-4.554 1.898-4.554 4.5v13.5z" fill="url(#b)"/><path d="m12.75 57.75h46.5v-27h-46.5z" fill="url(#c)"/></g></svg>