<svg id="Layer_1" data-name="Layer 1" xmlns="http://www.w3.org/2000/svg" xmlns:xlink="http://www.w3.org/1999/xlink" viewBox="0 0 256 72"><defs><style>.cls-1{fill:#8ebbe0;}.cls-2{fill:url(#linear-gradient);}.cls-3{fill:#fff;}.cls-14,.cls-4{fill:#0b50a0;}.cls-5{fill:url(#linear-gradient-2);}.cls-6{fill:#1e50a0;}.cls-7{fill:url(#linear-gradient-3);}.cls-8{fill:url(#linear-gradient-4);}.cls-9{fill:url(#linear-gradient-5);}.cls-10{fill:url(#linear-gradient-6);}.cls-11{fill:url(#linear-gradient-7);}.cls-12{fill:url(#linear-gradient-8);}.cls-13{fill:url(#linear-gradient-9);}.cls-14{opacity:0.96;}</style><linearGradient id="linear-gradient" x1="79.74" y1="-149.37" x2="245.68" y2="-149.37" gradientTransform="matrix(1, 0, 0, -1, 0.04, -133.94)" gradientUnits="userSpaceOnUse"><stop offset="0" stop-color="#f2af00"/><stop offset="1" stop-color="#ffec00"/></linearGradient><linearGradient id="linear-gradient-2" x1="20.03" y1="-181.21" x2="81.57" y2="-181.21" xlink:href="#linear-gradient"/><linearGradient id="linear-gradient-3" x1="13.9" y1="-163.71" x2="19.43" y2="-163.71" xlink:href="#linear-gradient"/><linearGradient id="linear-gradient-4" x1="21.64" y1="-154.8" x2="27.73" y2="-154.8" xlink:href="#linear-gradient"/><linearGradient id="linear-gradient-5" x1="33.05" y1="-151.99" x2="41.56" y2="-151.99" xlink:href="#linear-gradient"/><linearGradient id="linear-gradient-6" x1="11.33" y1="-184.85" x2="15.67" y2="-184.85" xlink:href="#linear-gradient"/><linearGradient id="linear-gradient-7" x1="10.24" y1="-174.16" x2="14.58" y2="-174.16" xlink:href="#linear-gradient"/><linearGradient id="linear-gradient-8" x1="16" y1="-192.46" x2="19.92" y2="-192.46" xlink:href="#linear-gradient"/><linearGradient id="linear-gradient-9" x1="23.06" y1="-196.48" x2="26.99" y2="-196.48" xlink:href="#linear-gradient"/></defs><title>Europass_milestone_logo_2020_outlines</title><path class="cls-1" d="M156.44,52.6a9.43,9.43,0,0,1-6.87,3.16,8.79,8.79,0,0,1-4.24-.85c0,.19-.19,1.16-.31,1.7l-2.69,10.87-4.32,1,6.09-26.83a8.7,8.7,0,0,0,0-4.82L148,35.21a6.65,6.65,0,0,1,.43,3.55A8.91,8.91,0,0,1,155,35.44c3.32,0,5.13,2.47,5.13,6.36C160.14,45.27,158.64,50.13,156.44,52.6ZM153.31,39c-1.54,0-3.54,1.16-5.28,3.63l-1.89,8.87a4.87,4.87,0,0,0,3.2,1,4.69,4.69,0,0,0,3.86-2.08A17.63,17.63,0,0,0,155.55,42c0-2.05-.66-2.94-2.24-2.94"/><path class="cls-1" d="M178.34,41.3,176.76,49c-.5,2.35-.26,3.36.7,4.4L174,56a3.92,3.92,0,0,1-1.46-3.2,7,7,0,0,1-5.86,3c-3,0-5.09-2-5.09-6.21a16.22,16.22,0,0,1,4.13-11.06,10.29,10.29,0,0,1,7.74-3.16,11.58,11.58,0,0,1,6.06,1.46A45.71,45.71,0,0,0,178.34,41.3ZM173,38.71a5.14,5.14,0,0,0-4.48,2.17c-1.73,2.08-2.54,5.85-2.54,8.59,0,2.13.69,2.93,2.12,2.93,1.77,0,3.74-1.77,4.62-3.73l2.09-9.57a4.11,4.11,0,0,0-1.81-.39"/><path class="cls-1" d="M195.93,39.8a9.18,9.18,0,0,0-4.67-1.35c-2,0-3.55.77-3.55,2.39,0,1,.54,1.69,2.08,2.27l2.31.89c2.4.92,4,2.31,4,4.63,0,4-3.28,7.28-9,7.28a13.5,13.5,0,0,1-7.21-2l1.69-3.13a11.16,11.16,0,0,0,6.1,1.94c2.12,0,3.74-1.2,3.74-2.82,0-1.23-.7-1.85-2.47-2.55l-2.24-.84c-2.31-.89-3.66-2.24-3.66-4.67,0-3.39,2.82-6.63,8.52-6.63a11.91,11.91,0,0,1,6.1,1.66Z"/><path class="cls-1" d="M213,39.8a9.15,9.15,0,0,0-4.66-1.35c-2,0-3.55.77-3.55,2.39,0,1,.54,1.69,2.08,2.27l2.32.89c2.38.92,4,2.31,4,4.63,0,4-3.28,7.28-9,7.28a13.54,13.54,0,0,1-7.22-2l1.7-3.13a11.1,11.1,0,0,0,6.09,1.94c2.12,0,3.74-1.2,3.74-2.82,0-1.23-.69-1.85-2.47-2.55l-2.23-.84c-2.32-.89-3.67-2.24-3.67-4.67,0-3.39,2.82-6.63,8.53-6.63a11.84,11.84,0,0,1,6.09,1.66Z"/><path class="cls-1" d="M92,50a10,10,0,0,1-1.77,2.83,8.07,8.07,0,0,1-6.4,2.59c-6.21,0-8.92-4.75-8.92-10,0-6.21,4.09-9.67,8.64-9.67,5.66,0,8.61,4.95,8.45,9.82H77.48a10.22,10.22,0,0,0,.59,3.89,5.84,5.84,0,0,0,5.78,3.85,6.31,6.31,0,0,0,6-3.93L92,50m-2.64-6.28a6.94,6.94,0,0,0-2-4.44,5.62,5.62,0,0,0-3.89-1.41c-3.22,0-5.57,2.27-6,5.85H89.38"/><path class="cls-1" d="M108.92,55H106.6V51.61a7,7,0,0,1-.94,1.68,6.1,6.1,0,0,1-5,2.12A5.72,5.72,0,0,1,95.06,52c-.63-1.46-.67-3.38-.67-6.52V36.25h2.32V46c0,4.08,0,7.34,4.24,7.34a5.15,5.15,0,0,0,4-1.57c1.65-1.73,1.69-3.73,1.69-7.23V36.25h2.32V55"/><path class="cls-1" d="M114.93,55h-2.27V36.25h2.27v3a5.53,5.53,0,0,1,5.47-3.3,6.43,6.43,0,0,1,1.29.12v2.08a5.89,5.89,0,0,0-1.41-.12,5.2,5.2,0,0,0-3.85,1.49C115,41.12,115,43,114.94,46.89V55"/><path class="cls-1" d="M129.92,55.45c-5.46,0-8.45-4.32-8.45-9.58,0-4.87,2.48-10.06,8.52-10.06s8.45,4.88,8.49,9.7c0,5.7-3.26,9.94-8.56,9.94M130,37.78a5.66,5.66,0,0,0-4.33,1.92c-1.61,1.89-1.76,4.68-1.76,6.21,0,5.34,2.74,7.5,6,7.5,4.12,0,6-3.26,6.08-7.62,0-1.06.08-8-6-8"/><polyline class="cls-2" points="79.78 29.38 88.91 6.01 245.72 1.48 234.19 29.3 79.78 29.38"/><polyline class="cls-3" points="82.85 20.27 79.03 29.07 85.16 30.08 85.63 29.02 79.91 28.73 84.22 19.8 82.85 20.27"/><polygon class="cls-4" points="82.85 20.27 79.03 29.07 85.16 30.08 85.63 29.02 79.91 28.73 84.22 19.8 82.85 20.27"/><path class="cls-3" d="M236.72,22.12l.11-.29c.92-2.49,7.65-20.38,8.47-21.22s-5.52,15.57-6.13,16.71"/><path class="cls-4" d="M236.72,22.12l.11-.29c.92-2.49,7.65-20.38,8.47-21.22s-5.52,15.57-6.13,16.71"/><polyline class="cls-5" points="20.07 51.83 38.67 53.46 46.84 46.92 34.92 36.59 32.45 30.12 50.71 39.32 47.05 25.33 56.06 30.34 59.68 39.1 75.96 30.57 69.1 41.44 59.53 46.51 74.4 57.94 81.61 69.22 61.95 57.52 38.24 58.34 20.07 51.83"/><path class="cls-4" d="M53.12,39.09c-9.87-.08-22.67-12-22.67-12C29.08,37.86,44.32,46.67,44.32,46.67c-3.82,7.06-26.1,4.78-26.1,4.78,14.13,11,35.39,5.82,35.39,5.82C65.3,59.13,82.33,71.42,82.33,71.42,85.37,61.6,59,46.81,59,46.81A36.44,36.44,0,0,0,79.6,28.68s-13.08,8.42-19.55,9c0,0,.52-10.85-14.63-12.28,0,0,15.08,2.59,13.34,14.18,0,0,9.28-1.35,19.1-9.22,0,0-6.43,10.46-21.49,16.29,0,0,23.51,13.19,25.34,23.34,0,0-16.53-13.13-28.1-14.27,0,0-20.19,4.91-33-3.51,0,0,20.48,3.77,25.89-5.7,0,0-15.67-8.16-15.63-18.13,0,0,14.12,13.25,22.19,12.16Z"/><path class="cls-3" d="M44.38,27.73A22.57,22.57,0,0,0,47,28.8a20.25,20.25,0,0,1,2.69-.09c1,.18,2.5,1,2.32,1.75l-.66-.08a3.41,3.41,0,0,0-1.77-1.13c-1.05-.22-1.74.31-2.64.12a5.4,5.4,0,0,1-2.54-1.64"/><path class="cls-6" d="M44.38,27.73A22.57,22.57,0,0,0,47,28.8a20.25,20.25,0,0,1,2.69-.09c1,.18,2.5,1,2.32,1.75l-.66-.08a3.41,3.41,0,0,0-1.77-1.13c-1.05-.22-1.74.31-2.64.12A5.4,5.4,0,0,1,44.38,27.73Z"/><path class="cls-3" d="M50.79,31.69l.81.19s-.14-1.25-1.87-1.63a3.37,3.37,0,0,0-2.27.26c-.48.17-1.1.69-3-.62a3.08,3.08,0,0,0,2.79,1.34c1.16-.11.87-.6,2.39-.32,1.21.22,1.18.78,1.18.78"/><path class="cls-6" d="M50.79,31.69l.81.19s-.14-1.25-1.87-1.63a3.37,3.37,0,0,0-2.27.26c-.48.17-1.1.69-3-.62a3.08,3.08,0,0,0,2.79,1.34c1.16-.11.87-.6,2.39-.32C50.82,31.13,50.79,31.69,50.79,31.69Z"/><path class="cls-3" d="M44.29,31.89s1.49,1.18,2.6.92,2.34-.86,3.46.26c0,0-1.32-.62-2.15,0a2.81,2.81,0,0,1-3.91-1.15"/><path class="cls-6" d="M44.29,31.89s1.49,1.18,2.6.92,2.34-.86,3.46.26c0,0-1.32-.62-2.15,0a2.81,2.81,0,0,1-3.91-1.15Z"/><path class="cls-3" d="M56.28,32.92a.54.54,0,0,1-1.06-.25.53.53,0,0,1,.65-.4.54.54,0,0,1,.41.65"/><path class="cls-4" d="M56.28,32.92a.54.54,0,0,1-1.06-.25.53.53,0,0,1,.65-.4A.54.54,0,0,1,56.28,32.92Z"/><path class="cls-3" d="M59,35.51a2.68,2.68,0,0,1-1.35.54c-.92,0-1.71-.08-1.95-.64v0c0,.74.92,1.33,2,1.31A2.55,2.55,0,0,0,59,36.43v-.92"/><path class="cls-4" d="M59,35.51a2.68,2.68,0,0,1-1.35.54c-.92,0-1.71-.08-1.95-.64v0c0,.74.92,1.33,2,1.31A2.55,2.55,0,0,0,59,36.43Z"/><polyline class="cls-7" points="17.34 29.1 19.48 29.1 17.76 30.39 18.42 32.43 16.71 31.17 15 32.43 15.68 30.39 13.94 29.1 16.07 29.1 16.71 27.11 17.34 29.1"/><polyline class="cls-8" points="25.42 20.13 27.77 20.13 25.88 21.55 26.61 23.8 24.73 22.41 22.84 23.8 23.59 21.55 21.68 20.13 24.02 20.13 24.73 17.93 25.42 20.13"/><polyline class="cls-9" points="38.32 17.02 41.6 17.02 38.96 19.01 39.98 22.15 37.35 20.21 34.72 22.15 35.76 19.01 33.09 17.02 36.36 17.02 37.35 13.96 38.32 17.02"/><polyline class="cls-10" points="14.04 50.39 15.71 50.39 14.36 51.4 14.88 53 13.54 52.02 12.2 53 12.73 51.4 11.37 50.39 13.04 50.39 13.54 48.83 14.04 50.39"/><polyline class="cls-11" points="12.94 39.7 14.62 39.7 13.27 40.71 13.79 42.31 12.45 41.32 11.11 42.31 11.64 40.71 10.28 39.7 11.95 39.7 12.45 38.13 12.94 39.7"/><polyline class="cls-12" points="18.45 58.03 19.96 58.18 18.65 58.97 18.99 60.47 17.86 59.46 16.56 60.24 17.18 58.83 16.04 57.8 17.54 57.94 18.14 56.57 18.45 58.03"/><polyline class="cls-13" points="25.51 62.06 27.02 62.2 25.72 63 26.05 64.5 24.92 63.48 23.62 64.26 24.24 62.86 23.1 61.82 24.61 61.97 25.2 60.6 25.51 62.06"/><path class="cls-4" d="M99.27,25H96V16.13l0-1.46.06-1.59c-.54.53-.92.89-1.13,1.05l-1.76,1.42-1.56-2,4.94-3.93h2.66Z"/><path class="cls-4" d="M108,15.21a5,5,0,0,1,3.54,1.24,4.49,4.49,0,0,1,1.32,3.42,5,5,0,0,1-1.59,3.95,6.62,6.62,0,0,1-4.53,1.39,8.91,8.91,0,0,1-4.13-.83v-2.8a9,9,0,0,0,1.93.72,8.79,8.79,0,0,0,2.09.28c2,0,3-.81,3-2.44s-1-2.31-3.07-2.31a7,7,0,0,0-1.23.11,9.56,9.56,0,0,0-1.09.23l-1.29-.69.58-7.81h8.32v2.75h-5.48l-.28,3,.37-.07A7.06,7.06,0,0,1,108,15.21Z"/><path class="cls-4" d="M124.14,17.33q0,4-1.32,6a5.11,5.11,0,0,1-8-.06,10.54,10.54,0,0,1-1.35-5.89c0-2.7.44-4.7,1.31-6a5.11,5.11,0,0,1,8,.09A10.6,10.6,0,0,1,124.14,17.33Zm-7.5,0a11.86,11.86,0,0,0,.49,4.05,1.7,1.7,0,0,0,3.27,0,11.46,11.46,0,0,0,.51-4,11.51,11.51,0,0,0-.51-4,1.71,1.71,0,0,0-1.63-1.23,1.69,1.69,0,0,0-1.64,1.23A11.86,11.86,0,0,0,116.64,17.33Z"/><path class="cls-4" d="M129.59,18.29c0-.95,0-1.73-.08-2.49H131l.07,1.49h.06A3.16,3.16,0,0,1,134,15.6a2.72,2.72,0,0,1,2.6,1.84h0a3.81,3.81,0,0,1,1-1.2,3.13,3.13,0,0,1,2-.64c1.21,0,3,.79,3,4V25h-1.64V19.79c0-1.76-.64-2.83-2-2.83a2.18,2.18,0,0,0-2,1.52,3,3,0,0,0-.13.84V25h-1.63V19.49c0-1.46-.65-2.53-1.92-2.53a2.28,2.28,0,0,0-2.07,1.67,2.25,2.25,0,0,0-.14.82V25h-1.63Z"/><path class="cls-4" d="M146.35,13.22a1,1,0,0,1-2.07,0,1,1,0,0,1,1-1A1,1,0,0,1,146.35,13.22ZM144.49,25V15.8h1.67V25Z"/><path class="cls-4" d="M148,11.51h1.67V25H148Z"/><path class="cls-4" d="M151.52,11.51h1.67V25h-1.67Z"/><path class="cls-4" d="M156.91,13.22a1,1,0,0,1-1.06,1,1,1,0,0,1-1-1,1,1,0,0,1,1-1A1,1,0,0,1,156.91,13.22ZM155.05,25V15.8h1.67V25Z"/><path class="cls-4" d="M166.87,20.33a4.49,4.49,0,0,1-4.58,4.88,4.38,4.38,0,0,1-4.41-4.73c0-3.08,2-4.88,4.56-4.88S166.87,17.51,166.87,20.33Zm-7.3.09c0,2,1.16,3.53,2.79,3.53s2.8-1.5,2.8-3.57c0-1.56-.78-3.53-2.76-3.53S159.57,18.67,159.57,20.42Z"/><path class="cls-4" d="M168,18.29c0-.95,0-1.73-.08-2.49h1.48l.1,1.52h0a3.36,3.36,0,0,1,3-1.72c1.28,0,3.25.76,3.25,3.91V25h-1.67V19.7c0-1.48-.55-2.72-2.13-2.72a2.38,2.38,0,0,0-2.24,1.71,2.62,2.62,0,0,0-.11.78V25H168Z"/><path class="cls-4" d="M191.1,16.3a4.16,4.16,0,0,1-1.69.3,3,3,0,0,1-3.14-3.22A3.17,3.17,0,0,1,189.59,10a3.42,3.42,0,0,1,1.51.28l-.19.67a3.07,3.07,0,0,0-1.29-.26,2.36,2.36,0,0,0-2.48,2.62,2.31,2.31,0,0,0,2.44,2.56,3.3,3.3,0,0,0,1.34-.26Z"/><path class="cls-4" d="M193.67,16.51l-2.08-6.37h.89l1,3.14c.28.86.51,1.63.68,2.38h0c.18-.74.45-1.54.73-2.37L196,10.14h.87l-2.27,6.37Z"/><path class="cls-4" d="M197.2,15.66a2.2,2.2,0,0,0,1.1.33c.6,0,.89-.3.89-.68s-.24-.61-.85-.84c-.83-.29-1.21-.75-1.21-1.3a1.41,1.41,0,0,1,1.57-1.34,2.21,2.21,0,0,1,1.13.29l-.21.6a1.82,1.82,0,0,0-.94-.26c-.49,0-.76.28-.76.62s.27.55.87.77c.79.31,1.2.7,1.2,1.38s-.62,1.37-1.71,1.37a2.64,2.64,0,0,1-1.29-.31Z"/><path class="cls-4" d="M207.27,14.18A2.23,2.23,0,0,1,205,16.61a2.17,2.17,0,0,1-2.19-2.35,2.23,2.23,0,0,1,2.27-2.43A2.17,2.17,0,0,1,207.27,14.18Zm-3.63.05c0,1,.58,1.76,1.39,1.76s1.39-.75,1.39-1.78c0-.77-.39-1.75-1.37-1.75S203.64,13.36,203.64,14.23Z"/><path class="cls-4" d="M208.35,13.17c0-.47,0-.86,0-1.23h.73l0,.75h0a1.69,1.69,0,0,1,1.51-.86c.63,0,1.62.38,1.62,1.95v2.73h-.84V13.87c0-.73-.27-1.35-1-1.35a1.23,1.23,0,0,0-1.18,1.24v2.75h-.83Z"/><path class="cls-4" d="M213.63,9.8h.83v6.71h-.83Z"/><path class="cls-4" d="M216.82,10.65a.48.48,0,0,1-.53.51.49.49,0,0,1-.5-.51.51.51,0,0,1,.52-.52A.49.49,0,0,1,216.82,10.65Zm-.92,5.86V11.94h.83v4.57Z"/><path class="cls-4" d="M218.14,13.17c0-.47,0-.86,0-1.23h.73l0,.75h0a1.7,1.7,0,0,1,1.51-.86c.63,0,1.62.38,1.62,1.95v2.73h-.83V13.87c0-.73-.28-1.35-1.06-1.35a1.19,1.19,0,0,0-1.12.85,1.54,1.54,0,0,0-.05.39v2.75h-.84Z"/><path class="cls-4" d="M223.88,14.37A1.47,1.47,0,0,0,225.45,16a2.88,2.88,0,0,0,1.27-.24l.14.6a3.73,3.73,0,0,1-1.52.28,2.12,2.12,0,0,1-2.25-2.3,2.22,2.22,0,0,1,2.15-2.47A1.94,1.94,0,0,1,227.12,14a3.18,3.18,0,0,1,0,.38Zm2.44-.59a1.18,1.18,0,0,0-1.15-1.35,1.38,1.38,0,0,0-1.28,1.35Z"/><path class="cls-14" d="M190.57,24.79h-4.2v-.88l1.51-1.53a9.72,9.72,0,0,0,.87-.95,1.9,1.9,0,0,0,.3-.49,1.22,1.22,0,0,0,.09-.46.7.7,0,0,0-.2-.54.76.76,0,0,0-.53-.18,1.65,1.65,0,0,0-.68.16,3.55,3.55,0,0,0-.68.46l-.69-.82a4.26,4.26,0,0,1,.73-.53,2.35,2.35,0,0,1,.64-.24,3,3,0,0,1,.77-.08,2.25,2.25,0,0,1,1,.2,1.64,1.64,0,0,1,.67.57,1.53,1.53,0,0,1,.24.85,2,2,0,0,1-.15.78,2.82,2.82,0,0,1-.45.74,10.47,10.47,0,0,1-1.08,1.09l-.77.72v.06h2.62Z"/><path class="cls-14" d="M195.34,21.79a4.18,4.18,0,0,1-.51,2.32,2,2,0,0,1-3.15,0,4.14,4.14,0,0,1-.53-2.3,4.14,4.14,0,0,1,.52-2.34,2,2,0,0,1,3.14,0A4.11,4.11,0,0,1,195.34,21.79Zm-2.93,0a4.88,4.88,0,0,0,.19,1.58.66.66,0,0,0,.65.48.66.66,0,0,0,.63-.49,4.27,4.27,0,0,0,.2-1.57,4.39,4.39,0,0,0-.2-1.59.66.66,0,0,0-1.27,0A4.63,4.63,0,0,0,192.41,21.79Z"/><path class="cls-14" d="M200.16,21.79a4.17,4.17,0,0,1-.52,2.32,2,2,0,0,1-3.15,0,4.14,4.14,0,0,1-.53-2.3,4.22,4.22,0,0,1,.52-2.34,2,2,0,0,1,3.15,0A4.2,4.2,0,0,1,200.16,21.79Zm-2.94,0a4.88,4.88,0,0,0,.19,1.58.67.67,0,0,0,1.29,0,4.55,4.55,0,0,0,.19-1.57,4.39,4.39,0,0,0-.2-1.59.66.66,0,0,0-1.27,0A4.63,4.63,0,0,0,197.22,21.79Z"/><path class="cls-14" d="M203,21a2,2,0,0,1,1.39.48,1.77,1.77,0,0,1,.51,1.34,2,2,0,0,1-.62,1.55,2.6,2.6,0,0,1-1.77.54,3.43,3.43,0,0,1-1.62-.33V23.45a3.55,3.55,0,0,0,.76.28,3.42,3.42,0,0,0,.81.11c.78,0,1.16-.32,1.16-.95s-.4-.91-1.2-.91a3,3,0,0,0-.48.05,1.9,1.9,0,0,0-.42.09l-.51-.27.23-3.06h3.25v1.08h-2.14L202.23,21l.14,0A3.61,3.61,0,0,1,203,21Z"/><path class="cls-14" d="M207.73,23.05V22h2.21v1Z"/><path class="cls-14" d="M216.93,24.79h-4.19v-.88l1.5-1.53a12,12,0,0,0,.88-.95,2.16,2.16,0,0,0,.29-.49,1.22,1.22,0,0,0,.09-.46.67.67,0,0,0-.2-.54.76.76,0,0,0-.53-.18,1.57,1.57,0,0,0-.67.16,3.59,3.59,0,0,0-.69.46l-.69-.82a4.26,4.26,0,0,1,.74-.53,2.17,2.17,0,0,1,.63-.24,3.09,3.09,0,0,1,.77-.08,2.19,2.19,0,0,1,1,.2,1.57,1.57,0,0,1,.67.57,1.53,1.53,0,0,1,.24.85,2.25,2.25,0,0,1-.14.78,2.88,2.88,0,0,1-.46.74,11.21,11.21,0,0,1-1.07,1.09l-.77.72v.06h2.61Z"/><path class="cls-14" d="M221.71,21.79a4.08,4.08,0,0,1-.52,2.32,2,2,0,0,1-3.15,0,4.14,4.14,0,0,1-.52-2.3,4.23,4.23,0,0,1,.51-2.34,2,2,0,0,1,3.15,0A4.2,4.2,0,0,1,221.71,21.79Zm-2.93,0a4.62,4.62,0,0,0,.19,1.58.65.65,0,0,0,.64.48.67.67,0,0,0,.64-.49,4.5,4.5,0,0,0,.2-1.57,4.63,4.63,0,0,0-.2-1.59.68.68,0,0,0-.64-.48.66.66,0,0,0-.64.48A4.68,4.68,0,0,0,218.78,21.79Z"/><path class="cls-14" d="M226.55,24.79h-4.19v-.88l1.51-1.53c.44-.45.73-.77.87-.95a2.23,2.23,0,0,0,.3-.49,1.45,1.45,0,0,0,.09-.46.7.7,0,0,0-.2-.54.77.77,0,0,0-.53-.18,1.62,1.62,0,0,0-.68.16,3.59,3.59,0,0,0-.69.46l-.69-.82a4.26,4.26,0,0,1,.74-.53,2.17,2.17,0,0,1,.63-.24,3.12,3.12,0,0,1,.78-.08,2.25,2.25,0,0,1,1,.2,1.7,1.7,0,0,1,.67.57,1.61,1.61,0,0,1,.23.85,2,2,0,0,1-.14.78,3.12,3.12,0,0,1-.45.74,13,13,0,0,1-1.08,1.09l-.77.72v.06h2.61Z"/><path class="cls-14" d="M231.33,21.79a4.18,4.18,0,0,1-.51,2.32,1.78,1.78,0,0,1-1.59.76,1.76,1.76,0,0,1-1.56-.78,4.14,4.14,0,0,1-.53-2.3,4.23,4.23,0,0,1,.51-2.34,2,2,0,0,1,3.15,0A4.2,4.2,0,0,1,231.33,21.79Zm-2.93,0a4.62,4.62,0,0,0,.19,1.58.66.66,0,0,0,1.28,0,4.5,4.5,0,0,0,.2-1.57,4.63,4.63,0,0,0-.2-1.59.67.67,0,0,0-.64-.48.66.66,0,0,0-.64.48A4.68,4.68,0,0,0,228.4,21.79Z"/></svg>