<svg xmlns="http://www.w3.org/2000/svg" width="192" height="46" viewBox="-16 -19 624 149.5"><defs><clipPath id="a"><path d="M0 1h101v116.8H0zm0 0"/></clipPath><clipPath id="b"><path d="M527 59h39.9v52H527zm0 0"/></clipPath></defs><path d="M95.8 65A55 55 0 0 1 93.5 79 35 35 0 0 1 88 89.8c-4.3 5.7-9.6 8.6-13 10.4l-12.3 6.2V65h33M37.6 65v41.4l-12.3-6.2c-3.4-1.8-8.7-4.7-13-10.4A35 35 0 0 1 7 79.1 55 55 0 0 1 4.6 65h33" fill="none" stroke-width=".2" stroke="#fd0" stroke-miterlimit="10"/><path d="M95.8 6h-33v33.7h33zm0 0M37.6 6h-33v33.7h33zm0 0" fill="none" stroke-width=".2" stroke="#161012" stroke-miterlimit="10"/><g clip-path="url(#a)"><path d="M50.2 117.8l-1-.5-26-13C15.5 100.2 0 91.7 0 61.9V1.4h100.4v60.5c0 29.8-15.6 38.3-23.2 42.4l-26 13-1 .5" fill="#241a04"/></g><path d="M60.4 42.1V3.5H40v38.6H2.2V62.5H40v47.8l10.2 5 10.2-5V62.5h37.8V42.1H60.4" fill="#fff"/><path d="M2.2 42.1H40V3.5H2.2zm0 0M60.4 42.1h37.8V3.5H60.4zm0 0M40 62.5H2.2c.2 27.7 14.4 35.7 22 39.9l15.8 7.9V62.5M60.4 62.5v47.8l15.8-8c7.6-4 21.8-12 22-39.8H60.4" fill="#ef4035"/><path d="M73.4 52.6l.8-.9-1-1.2-1 1.2.8 1c0 .4 0 4.5-2.4 6 0 0 .8.1 1.9-.1l.7 2.3c.5-1.2.7-2.3.7-2.3 1 .2 1.9 0 1.9 0-2.4-1.4-2.4-5.5-2.4-6M79.6 45.7l.7-1-1-1.1-1 1.1.9 1c0 .4 0 4.5-2.4 6 0 0 .8.2 1.9 0 0 0 .1 1 .7 2.2.5-1.2.7-2.3.7-2.3 1 .3 1.8.1 1.8.1-2.4-1.5-2.3-5.6-2.3-6M85.7 52.6l.8-.9-1-1.2-1 1.2.8 1c0 .4 0 4.5-2.4 6 0 0 .8.1 2-.1 0 0 .1 1 .6 2.3.5-1.2.7-2.3.7-2.3 1 .2 1.9 0 1.9 0-2.4-1.4-2.4-5.5-2.4-6M91.9 45.7l.8-1-1-1.1-1 1.1.8 1c0 .4 0 4.5-2.4 6 0 0 .8.2 1.9 0 0 0 .2 1 .7 2.2.5-1.2.7-2.3.7-2.3 1 .3 1.8.1 1.8.1-2.4-1.5-2.3-5.6-2.3-6M67.2 45.7l.8-1-1-1.1-1 1.1.8 1c0 .4 0 4.5-2.3 6 0 0 .8.2 1.8 0 0 0 .2 1 .7 2.2.5-1.2.7-2.3.7-2.3 1.1.3 2 .1 2 .1-2.5-1.5-2.5-5.6-2.5-6M15 52.6l.9-.9-1-1.2-1 1.2.8 1c0 .4 0 4.5-2.4 6 0 0 .8.1 1.9-.1l.7 2.3c.5-1.2.7-2.3.7-2.3 1 .2 1.9 0 1.9 0-2.4-1.4-2.4-5.5-2.4-6M21.3 45.7l.7-1-1-1.1-1 1.1.8 1c0 .4 0 4.5-2.3 6 0 0 .8.2 1.9 0 0 0 .1 1 .6 2.2.6-1.2.7-2.3.7-2.3 1.1.3 2 .1 2 .1-2.5-1.5-2.5-5.6-2.4-6M27.4 52.6l.8-.9-1-1.2-1 1.2.8 1c0 .4 0 4.5-2.4 6 0 0 .8.1 2-.1 0 0 .1 1 .6 2.3.5-1.2.7-2.3.7-2.3 1 .2 1.9 0 1.9 0-2.4-1.4-2.4-5.5-2.4-6M33.6 45.7l.7-1-1-1.1-1 1.1.9 1c0 .4 0 4.5-2.4 6 0 0 .8.2 1.9 0 0 0 .2 1 .7 2.2.5-1.2.7-2.3.7-2.3 1 .3 1.8.1 1.8.1-2.4-1.5-2.3-5.6-2.3-6M9 45.7l.7-1-1-1.1-1 1.1.8 1c0 .4 0 4.5-2.4 6 0 0 .9.2 2 0 0 0 .1 1 .6 2.2.5-1.2.7-2.3.7-2.3 1.1.3 1.9.1 1.9.1-2.4-1.5-2.4-5.6-2.4-6M50.5 68.3l.7-1-1-1.1-1 1.2.8.9c0 .5 0 4.6-2.3 6 0 0 .8.2 1.9 0 0 0 .1 1 .6 2.3.6-1.3.7-2.3.7-2.3 1.1.2 2 0 2 0-2.5-1.4-2.5-5.5-2.4-6M50.5 89.2l.7-1-1-1-1 1 .8 1c0 .5 0 4.6-2.3 6 0 0 .8.2 1.9 0 0 0 .1 1 .6 2.3.6-1.3.7-2.3.7-2.3 1.1.2 2 0 2 0-2.5-1.4-2.5-5.5-2.4-6M56.2 78.8l.7-1-1-1.1-1 1.1.9 1c0 .4 0 4.5-2.4 6h1.9s.2 1 .7 2.2c.5-1.2.7-2.3.7-2.3 1 .2 1.8 0 1.8 0-2.4-1.4-2.3-5.5-2.3-6M44.7 78.8l.8-1-1-1.1-1 1.1.8 1c0 .4 0 4.5-2.4 6h1.9s.2 1 .7 2.2c.5-1.2.7-2.3.7-2.3 1 .2 1.9 0 1.9 0-2.5-1.4-2.4-5.5-2.4-6M56.2 99.7l.7-1-1-1.1-1 1.1.9 1c0 .4 0 4.5-2.4 6h1.9s.2 1 .7 2.2c.5-1.2.7-2.3.7-2.3 1 .2 1.8 0 1.8 0-2.4-1.4-2.3-5.5-2.3-6M44.7 99.7l.8-1-1-1.1-1 1.1.8 1c0 .4 0 4.5-2.4 6h1.9s.2 1 .7 2.2c.5-1.2.7-2.3.7-2.3 1 .2 1.9 0 1.9 0-2.5-1.4-2.4-5.5-2.4-6M50.5 20.7l.7-1-1-1.1-1 1.2.8.9c0 .5 0 4.5-2.3 6 0 0 .8.2 1.9 0 0 0 .1 1 .6 2.2.6-1.2.7-2.2.7-2.2 1.1.2 2 0 2 0-2.5-1.5-2.5-5.5-2.4-6M56.2 10.2l.7-.9-1-1.2-1 1.2.9 1c0 .4 0 4.5-2.4 6 0 0 .8.1 1.9-.1l.7 2.3c.5-1.2.7-2.3.7-2.3 1 .2 1.8 0 1.8 0-2.4-1.4-2.3-5.5-2.3-6M44.7 10.2l.8-.9-1-1.2-1 1.2.8 1c0 .4 0 4.5-2.4 6 0 0 .8.1 1.9-.1l.7 2.3c.5-1.2.7-2.3.7-2.3 1 .2 1.9 0 1.9 0-2.5-1.4-2.4-5.5-2.4-6M56.2 31.1l.7-.9-1-1.2-1 1.2.9 1c0 .4 0 4.5-2.4 6h1.9s.2 1 .7 2.2c.5-1.2.7-2.3.7-2.3 1 .2 1.8 0 1.8 0-2.4-1.4-2.3-5.5-2.3-6M44.7 31.1l.8-.9-1-1.2-1 1.2.8 1c0 .4 0 4.5-2.4 6h1.9s.2 1 .7 2.2c.5-1.2.7-2.3.7-2.3 1 .2 1.9 0 1.9 0-2.5-1.4-2.4-5.5-2.4-6" fill="#241a04"/><path d="M31.8 22.6l.1.5.3 1c.4 1.8.7 2.3 1.6 2.3.5 0 1-.3 1-.7l.3-.6c0-.2.1-.3.3-.3.3 0 .5.4.5 1.2l.2 1.6.2 1.3c0 .5 0 .6-.2 1l.2 2a4 4 0 0 1-.4 2L36 35l-.1 1.1a8 8 0 0 0-.2 1.1v.4l.2.4-.1.2-.7-.3-.7-.3-.7-.6c-.6.5-.8.6-2.5 1l-.7.4-.4.2c-.3 0-.4-.5-.4-1.4 0-.7 0-1.3.2-1.8l-1.2-.3-.4.1h-.2l-.1-.3c0-.1 0-.4.2-.7l.3-.8.8-.9.8-.5 1.1-.2c.7-.1 1.1-.5 1.1-1 0-.4-.3-.7-1-1l-1.3-.5a7 7 0 0 1-1.3-.6l-1-.5c-.3 0-.5.2-.5.6 0 .6.4 1 .9 1l.3-.1.3-.1c.2 0 .3 0 .3.2v.2l-.1.5c0 .5-.4 1-1 2l-.3.3c-.3 1-1 2-1.7 2.6l-.4.2-.3.5c0 .1-.2.4-.6.7l-.8.8-.6.6-.4.5-.2.2c-.3 0-.6-.3-.7-.8-.1-.4-.2-.5-.5-.5H21l-.5.1h-1.2c-.5 0-1.3.2-1.7.4h-.3L17 38v-.3a6 6 0 0 1 1.8-3.6c-.1-.5-.5-1-.9-1l-.5-.2-.2-.2c0-.2.3-.4.8-.6a4 4 0 0 1 1.7-.5c.6 0 1 .2 1.7.6.8.7 1 .8 1.5.8.7 0 1.3-.6 1.3-1.3 0-.4-.2-.9-.8-1.7-.9-1.1-1.2-1.7-1.2-2.6 0-.5.2-1.2.4-1.5l.3-.4.1-.3c0-.3-.2-.4-.6-.4-.5 0-1.4.3-2.2.8-.4.3-.7.5-.7.7 0 .1 0 .2.2.3l.3.2v.4l-.7.8a10.4 10.4 0 0 1-1.6 1.7l-.3.5a5 5 0 0 1-1.4 1.5l-.5.3-.2.5-.4.6-.8 1-.9 1c-.3.2-.5.7-.9 1.9-.2.7-.4 1.1-.6 1.1l-.2-.2c-.6-.7-1.2-1.1-1.5-1.1l-.3.1-.9.4-1.2.2c-.9.2-1.2.3-1.7 1-.2 0-.3.2-.3.2l-.2-.4V38l.2-.9.6-2 .6-1 .1-.6c0-.7-.7-1.4-1.7-1.5-.2 0-.3 0-.3-.2l.6-.7a4 4 0 0 1 2-.9c.4 0 .9.2 1.5.4l.7.3.7.2c.8 0 1.5-.7 2.4-2.2.4-.7.6-1.2.6-1.7 0-.8-.4-1.3-1-1.3a2 2 0 0 0-1.4.6c-.4.3-.5.7-.5 1v.4c0 .4-.1.5-.3.5-.3 0-.7-.4-2-2-1-1-1.1-1.6-1.2-2.7-1-1.4-1.3-2-1.3-3v-.6c-.8-1-1-1.4-1-2.2 0-.3 0-.5.3-.9l-.6-1.2-.2-.7-.5-1.2-.3-.6c0-.4.2-.5 1.3-.8v-.7-.8L5 9.8l.1-1-.2-1-.3-.8-.2-.4c0-.1 0-.2.2-.2.4 0 1.2.5 2 1.2 1.9 1.6 2.3 2.2 2.5 4l.1.7c1 .6 1.4 1.4 1.4 2.2a4 4 0 0 1-.7 2l-.6 1a2 2 0 0 0-.3 1.1c0 .6.2 1.2.6 2 .5.8 1 1.2 1.4 1.2.9 0 1.6-1.5 1.6-3.2v-.8-1l.2-1v-1.2c0-.2 0-.4-.3-.6l-.7-.8c-1-1.1-1.6-2.2-1.6-3 0-1 .7-1.7 1.6-1.7.2 0 .4 0 .7.2v-.2c0-1.5.3-2.5.7-2.5h.2l.5.6.7.4.2.2c0-.4 0-.4.4-.9l.5-.6.3-.5.2-.3.2-.2c.1 0 .2.1.3.4.1.3.1.3.7.8l.4.4.2.7.1.2.7-.5.5-.3.3-.2.2.2.2.5c.4.6.5.9.5 1.1v.7c1 .4 1.4 1 1.4 2 0 .9-.4 1.8-1.2 2.8-.6.6-.6.8-.6 1.2 0 2.4 1.6 3.8 4.5 3.8h2.2c1.3 0 2.2.2 3.4.6 1.6.5 2 .6 2.5.6l.4-.1.2-.3c0-.4-.8-.8-3.4-1.5-5.3-1.5-7.5-3.7-7.5-7.2 0-2.7 2.2-4.8 5.1-4.8 1 0 2.4.3 3.2.6l1.3.5.7.1c.5 0 .7-.4.7-1.1 0-.4.1-.6.4-.6.4 0 1 .5 1.4 1.2.6.8 1 1.6 1 2.1 0 .8-.4 1.3-1.2 1.7-.7 1.1-1.6 1.6-2.8 1.6-1 0-2.2-.5-4.4-1.8-.8-.4-1.2-.5-1.6-.5-.5 0-.9.3-.9.8s.4.8 1.3 1c1.4.6 1.7.8 2.3 1.3 1.6.3 2.3.6 3.3 1.4 2.8.9 4.6 2.8 4.6 5 0 2.1-1.5 3.7-3.5 3.7l-1.5-.2" fill="#261b06"/><path d="M35 36.6l-.1-.8v-.7l.1-.4c0-.5 0-.8-.2-1l-.4-.5a2.4 2.4 0 0 1-.4-.9c0-.1.1-.2.3-.2l.4.2h.3c.2 0 .3-.2.3-.8 0-.6 0-1-.2-1.1l-.5-.5-.4-.4-.2-.3c0-.1.1-.2.3-.2.1 0 .4 0 .7.2h.1c.2 0 .2 0 .2-.3V28.1l-.3-.7c0-.2 0-.2-.2-.2h-.1l-.8.1h-.1c-1 0-2.2-.9-2.5-2l-.7-2a4.3 4.3 0 0 0-2.1-2.4h-.6c-.1 0-.2 0-.2-.2 0-.1.1-.2.4-.2l1 .1c.4 0 1 .2 1.8.5 1 .3 1.6.4 2.1.4 1.6 0 2.6-.8 2.6-2.3a4 4 0 0 0-1.3-2.8l-1-.7c-.2 0-.2 0-.2.2v.4c0 .2 0 .3-.2.3s-.4-.2-.6-.7c-.6-1.2-1.5-2-2.5-2-.2 0-.3.1-.3.2l.1.5.3.5.1.3-.1.1-.6-.3-.5-.5-.4-.6c-.3-.6-.6-.8-1.3-1.2a29.7 29.7 0 0 1-1.2-.5l-.1.2v.3l.4.6-.1.2c-.3 0-.8-.5-1.3-1.1-.3-.6-.5-1.2-.5-1.8 0-1.4 1-2.5 2.3-2.5a5 5 0 0 1 2.4.8l1.5 1a4 4 0 0 0 1.8.6l1-.2s.2 0 .3-.2l.2-.1-.1-.2h-.2l-.7-.2-.9-.3a14.4 14.4 0 0 1-2.6-1.4c-.3 0-.5-.2-.5-.3 0-.1 0-.2.2-.2 0 0 .2 0 .3.2.5.3.9.4 1.2.4l1.4.5 2.1.4c.6 0 1-.4 1-1 0-.4-.2-1-.5-1.4l-.2-.2c-.1 0-.2.1-.2.3V7.4c0 .4-.2.8-.6.8L33 8l-2-.7c-1.8-.6-2.6-.7-3.5-.7-2.5 0-4.4 1.7-4.4 4 0 2.5 1.8 4.1 6.3 5.6 4.3 1.5 5 1.9 5 3 0 .7-.7 1.2-1.5 1.2a147.3 147.3 0 0 1-3-.6c-1.2-.3-2.4-.4-3.9-.4-3.1 0-4.9.6-6.4 2-.4.4-.5.4-1 .4H18c-.4 0-.7.2-1 .6a87.3 87.3 0 0 1-.9 1c-.3 0-.4-.2-.8-1-.1-.3-.3-.7-.6-1L14 21l-.1-.2.1-.3.4-.9c.1-.4.1-.4.3-.4.2 0 .3.2.3 1 0 .1 0 .4.3.8l.3.7.3.2c.3 0 .7-.8.9-1.6 0-.7.1-.9.3-.9h.1l.3.7.4.4.4.3c.3 0 .4-.2.4-.8v-1.1c0-.2 0-.3.2-.3l.2.1.3.3c.2.2.4.3.7.3.2 0 .4 0 .4-.2s0-.3-.3-.8L20 18c-.3-.5-.5-.7-.7-.7h-.4l-.3.2h-.3-.1c0-.3.2-.8.5-1.3.3-.4.5-1.3.6-2.6 0-1.6.3-2.7.5-2.7s.2.1.2.5v.7c0 .3 0 .6.2.6s.6-.4.8-1.1l.2-.7v-.1l-.7-1.2-.6-.2-.3-.1V8l-.2-.3-.1-.4c-.7.4-1 .7-1.3 1-.2.3-.4.4-.5.4l-.2-.1.1-.5v-.2c0-.7-.4-1.4-1-1.8l-.3.2-.2.4-.4.4a1.9 1.9 0 0 0-.4 1v.5h-.2l-.2-.3-.3-.4-.6-.4-.3-.2-.1.3-.2.5v1.1c0 .3-.1.4-.3.4l-.3-.1a1 1 0 0 0-.5-.2c-.5 0-.8.4-.8 1s.2 1.2.5 1.6l.4.6.3.1.1-.6v-.6l-.1-.2c0-.2 0-.4.2-.4s.3.2.4.8l.3 1.2.2 1.5c0 .4.2.8.4 1.3a6.6 6.6 0 0 0 1 1.7l-.2.2-.3-.1-.4-.2H14c-.5 0-.6.4-.6 2.6 0 1.3.2 3 .6 3.9l.6 1.7.2.8c0 2.3-3.1 6-6.5 7.7-1.3.6-1.7 1.2-1.8 2.6v.4l1-.4c1-.3 1.2-.4 1.4-.8l.1-.5c0-.1.1-.2.9-.6l.5-.4c.1-.3.3-.4.4-.4v.2l-.3 1v.2c0 .6.4 1.2 1 1.5l.5-1.3.6-.9c.2-.3.3-.7.3-1.4l-.1-1V32c0-.2 0-.3.2-.3l.2.1.1.6c0 .2.2.3.3.3.4 0 .8-.5 1.2-1.2l.2-.8V30l-.1-.4v-.1c0-.2 0-.4.2-.4h.2l.2.8c0 .3.2.4.4.4s.6-.3.8-.8c.2-.4.3-.8.3-1.3 0-.7 0-.9.3-.9l.2.1v.4l.3.3c.2 0 .5-.4.8-.8V27c0-.1 0-.3-.2-.5-.4-.2-.4-.3-.4-.7 0-.4 0-.6.4-1.1l.4-.8c.4-.8.5-1 .7-1l.2.3v.3l-.2.4s.1.2.3.2c.1 0 .3 0 .5-.2l1-.4 1-.3.6-.1h.6l.7.2c.3 0 .6-.3.6-.6l-.5-1-.2-.2v-.2l.2-.1c.2 0 .7.5 1.2 1.3 2.7 4.3 3.7 5.3 5.6 6 1.9.5 2.4 1 2.4 2 0 .7-.3 1.4-1 2.3-1.4 2-1.8 2.8-1.8 4v.3l.4-.2.5-.2.8-.1c.2-.1.5-.4.5-.7l-.1-.8c0-.3 0-.6.2-.8h.2c.1 0 .2 0 .3.2l.5 1c.2.5.4.7 1 1M9.2 13.4c-.3 0-.4.2-.4.6v.6l-.2.8c0 .5.2.8.4.8s.5-.4.6-.8l.2-.8c0-.2 0-.5-.2-.7 0-.3-.3-.5-.4-.5" fill="#fd0"/><path d="M6.5 8.7l.4.4c.8.8 1.1 2 1.1 3.7v1.7l-.1 1.3c0 4 1.3 7 3 7 .5 0 .9-.3 1.4-1 0-.2.2-.3.3-.3l.1.3v.7l.1.6.1.7.1.6c0 .2 0 .3-.2.4h-.6l-.9.4c-.5.3-.8.5-.8.7l-.4.7-.2.1c-.2 0-.5-.3-.8-.8a3 3 0 0 1-.5-1.1l.3-.1h1l.2-.3-.1-.2-1.4-.6c-.5-.2-.9-.6-1.1-1L6.9 21c0-.2 0-.3.2-.3h.3l.4.2.2-.2-.3-.4C6.5 19.6 6 18.6 6 17.7l.1-.4h.3l.4.1c.2 0 .3 0 .3-.2l-.3-.3-.5-.3-.4-.5-.6-1-.4-.9-.3-.5-.2-.3a2 2 0 0 1 1-.2c.4 0 .7.3 1 1l.5.9.1-.4-.1-1-.1-.7v-.4l-.5-.2L6 12c-.2-.3-.3-.5-.3-.8v-.5a9 9 0 0 0 .5-2.1v-.3l.3.3M10.3 31.8l-.9-.2-.6-.3-1.2-.3a2 2 0 0 0-1.4.6l.3.2.7.4.6.5.5.2c.6 0 1.2-.3 2-1M22.7 37.6c.2-.4.2-.5.6-.8 1-.8 1.3-1.3 1.3-1.8v-.7c0-.4.1-.5.3-.5h.2l.2.4c0 .1.1.2.3.2l.4-.4.3-.4c.2-.2.3-.4.3-.7l-.1-.3a127.2 127.2 0 0 0-.4-1c0-.2.1-.4.3-.4l.3.1.2.3.3.2.3-.3.2-.5.1-.3c0-.1 0-.2-.2-.3l-.5-.2c-.5-.2-1-1.1-1-2l.1-.4.3-.5v-.6c0-.3 0-.6-.3-1l-.4-.6-.4-.7h-.2l-.2.2-.4.2-.4.5-.4.2c-.3.2-.5.7-.5 1.2 0 .8 0 1 1.1 3 .5.7.7 1.3.7 1.8 0 1.3-1.2 2.2-3.5 2.8l-1.5.4c-1.1.2-1.7 1-2 2.2.5-.2.7-.2 1.5-.2h.5c.4 0 .5 0 .8-.4.3-.5.6-.7 1-1l.5-.2.4-.2h.2l.1.1c0 .1 0 .4-.3.6-.3.4-.5.7-.5 1.2 0 .3.1.5.4.8" fill="#fd0"/><path d="M18.6 32.7c.4.2.8.5 1 .8.3.5.4.5.7.5h.4l.3-.1c.5-.1.7-.2.7-.3l-.1-.3-.7-.7c-.3-.2-.7-.3-1.1-.3-.4 0-.6 0-1.2.4M29 34.4h.9c.8 0 1.4-.6 1.4-1.3 0-.2-.2-.3-.5-.3-.9 0-1.4.5-1.8 1.6" fill="#fd0"/><path d="M17 12.3c.1.3.3.5.4.5.2 0 .3-.4.6-1 .5-.7 1-1.4 1-1.8 0-.2-.1-.3-.2-.3l-.4.3c-.3.3-.5.4-1.1.6-.4.2-.5.3-.5.6v.2l.2.5v.4M15.1 10.6l.6.3.2.3v.2.7c0 .5-.5.5-.7.5l-.3-.3-.7-.8a3 3 0 0 1-.5-1.4V10c0-.2 0-.3.2-.3l.4.2.8.7M16.4 14H15.8s-.1-.2-.4-.3a.9.9 0 0 0-.4-.1c-.3 0-.5.1-.5.4l.4 1.4.4 1c.4 1 .8 1.3 1.2 1.3.5 0 .5-.4.8-1.1.6-1.6 1-1.9 1-2.4 0-.4 0-.5-.4-.5h-.3l-.6.2h-.6" fill="#261b06"/><path d="M16.3 14.9H16h-.1l-.1.2.2.8v.7c.2.3.3.5.6.5s.5-.2.5-.6v-.7a30.3 30.3 0 0 0 0-1h-.7" fill="#fd0"/><path d="M91.6 22.6l.2.5.2 1c.4 1.8.8 2.3 1.6 2.3.6 0 1-.3 1.1-.7l.2-.6c0-.2.2-.3.3-.3.4 0 .5.4.6 1.2l.2 1.6V29l-.1 1v.3l.2 1.2c0 1.4 0 1.8-.4 2.3l.2 1.2-.1 1.1-.2 1v.5l.2.4-.1.2-.7-.3-.7-.3-.7-.6c-.6.5-.7.6-1.5.8a6.2 6.2 0 0 0-2 .8c-.3 0-.5-.5-.5-1.2 0-1 0-1.6.2-2l-1.1-.3-.5.1h-.1c-.1 0-.2 0-.2-.3s.2-1 .5-1.5c.4-.7 1-1.3 1.6-1.4l1.1-.2c.7-.1 1.1-.5 1.1-1 0-.4-.3-.7-1-1l-1.3-.5c-.5-.1-.9-.3-1.3-.6l-.7-.4h-.3c-.3 0-.5.1-.5.5 0 .5.4 1 1 1l.3-.1.3-.1c.1 0 .2.1.2.3a4 4 0 0 1-.7 2l-.4.6-.3.3c-.1.9-1 2-1.7 2.6a2 2 0 0 0-.4.2l-.2.5-.7.7-.8.8c-.3.3-.6.4-.6.6l-.4.5-.2.2c-.3 0-.6-.3-.7-.8-.1-.4-.2-.5-.5-.5h-.5l-.5.1h-1.1c-.6 0-1.4.2-1.8.4H77c-.2 0-.3-.1-.3-.4 0-1 .8-2.6 1.8-3.6-.1-.6-.4-1-.9-1l-.5-.2-.1-.2c0-.2.2-.4.7-.6 1-.5 1.2-.5 1.7-.5.6 0 1 .2 1.7.6.8.7 1 .8 1.5.8.7 0 1.3-.6 1.3-1.3 0-.4-.2-.9-.8-1.7-.9-1-1.2-1.8-1.2-2.7 0-.6.2-1 .7-1.8l.2-.4c0-.2-.3-.3-.7-.3-.3 0-.7.1-1.3.4-1 .4-1.5.8-1.5 1l.1.4.3.2.1.1-.1.3-.7.8c-.4.6-.8 1-1.3 1.4l-.3.3-.3.5c-.2.4-.8 1-1.4 1.5l-.4.3-.3.5-1.2 1.6-.9 1c-.2.2-.6 1-.9 1.9l-.5 1.1c-.1 0-.2 0-.3-.2-.6-.7-1.2-1.1-1.4-1.1l-.4.1-.9.4-1.1.2c-1 .2-1.4.4-1.8 1l-.3.2-.2-.4V38l.2-.9a7 7 0 0 1 .7-2l.5-1 .2-.6c0-.7-.7-1.3-1.7-1.5-.3 0-.4 0-.4-.2l.7-.7c.7-.5 1.4-.9 2-.9l1.4.4.7.3.7.2c.8 0 1.5-.7 2.4-2.2.4-.7.6-1.2.6-1.7 0-.8-.4-1.3-1-1.3a2 2 0 0 0-1.4.6c-.4.4-.5.7-.5 1v.5c0 .3-.1.4-.3.4a76.5 76.5 0 0 0-2-2c-1-1-1.1-1.5-1.2-2.7-1-1.4-1.3-2.2-1.3-3v-.6c-.8-1-1-1.3-1-2.2 0-.5.1-.6.3-.9l-.6-1.2-.2-.7-.5-1.2-.3-.6c0-.3.3-.6 1-.7l.3-.1v-.7-.8l.3-1.2.1-1-.2-1c0-.4-.2-.6-.3-.8l-.2-.4c0-.1.1-.2.3-.2l.3.1c1 .6 2.3 1.6 3.1 2.5.7.8 1 1.5 1.1 3.3 1 .7 1.4 1.4 1.4 2.4 0 .6-.2 1.2-.7 1.9l-.6 1c-.2.3-.3.7-.3 1 0 .6.2 1.2.6 2 .5.8 1 1.2 1.4 1.2.9 0 1.6-1.5 1.6-3V17.5l.1-.8v-1l.1-.7v-.4c0-.4 0-.5-1-1.5-1-1.2-1.6-2.2-1.6-3 0-1 .8-1.7 1.7-1.7l.6.2V7.6l.3-.8c.1-.7.2-.8.4-.8h.2l.5.6.7.4.2.2c0-.4.1-.5.5-.9l.4-.6.3-.5.2-.3c.1-.2.2-.2.3-.2l.2.4c0 .2.2.3.3.5l.4.3c.4.3.6.7.7 1.3l.7-.5.5-.3.3-.2.2.2.2.5c.4.6.5.7.5 1.2v.6c1 .3 1.4.9 1.4 2 0 .9-.4 1.8-1.2 2.8-.5.6-.6.8-.6 1.3 0 2.3 1.7 3.7 4.5 3.7h2.2c1.3 0 2.2.2 3.5.6 1.4.5 2 .6 2.4.6.3 0 .6-.2.6-.4 0-.4-.8-.8-3.4-1.5-5.3-1.5-7.5-3.7-7.5-7.2 0-2.7 2.2-4.8 5.2-4.8.9 0 2.3.3 3.1.6l1.3.5.7.1c.5 0 .7-.3.7-1.1 0-.4.2-.6.4-.6.4 0 1 .6 1.5 1.2.5.7.8 1.6.8 2.2 0 .7-.3 1.2-1.1 1.6-.7 1.1-1.6 1.6-2.8 1.6-1 0-2.5-.6-4.4-1.8-.8-.4-1.1-.5-1.5-.5-.6 0-1 .3-1 .8s.3.8 1.3 1c1.5.6 1.8.8 2.3 1.3 1.6.3 2.3.6 3.3 1.4 3 1 4.6 2.7 4.6 5 0 2.2-1.4 3.7-3.4 3.7l-1.6-.2" fill="#261b06"/><path d="M94.8 36.6l-.1-.6v-.4l.1-1.3c0-.2 0-.4-.2-.6l-.4-.5-.3-.9.1-.2h.2l.3.2h.3c.2 0 .3-.2.3-.8 0-.9-.2-1.3-.7-1.6l-.4-.4-.1-.3c0-.1 0-.2.2-.2h.4l.3.2h.2l.1-.3V28.1c-.2-.7-.3-1-.5-1l-.9.2h-.1c-1 0-2.2-1-2.5-2l-.6-2c-.2-.7-.8-1.4-1.6-2l-.6-.4h-.6l-.2-.2c0-.1.1-.2.4-.2a9 9 0 0 1 2.8.6c1 .3 1.6.4 2.1.4 1.6 0 2.6-.8 2.6-2.2 0-.7-.2-1.5-.6-2.1-.3-.5-.8-1-1.5-1.4a.5.5 0 0 0-.3-.1l-.1.1v.5c0 .2 0 .3-.2.3s-.4-.2-.6-.7c-.5-1.2-1.5-2-2.5-2-.2 0-.3.1-.3.2l.1.5a3.4 3.4 0 0 1 .4.8l-.1.1-.6-.3-.5-.5-.4-.6a3 3 0 0 0-1.3-1.2l-.8-.4a1 1 0 0 0-.4-.1l-.1.1.1.4.3.6-.1.2c-.3 0-.7-.4-1.2-1.1a3 3 0 0 1-.6-1.8c0-1.4 1-2.5 2.3-2.5a5 5 0 0 1 2.4.8l1.6 1a4 4 0 0 0 1.7.6l1-.2.4-.2v-.2l-.2-.1A9 9 0 0 1 90 8.7l-1-.6-.5-.3.2-.1h.1l1.4.5 1.4.5 2.1.4c.6 0 1-.4 1-1l-.1-.9c-.2-.4-.5-.7-.6-.7-.1 0-.2.1-.2.4v.5c0 .5-.2.8-.5.8l-.6-.1-2-.7c-1.9-.6-2.6-.7-3.4-.7-2.6 0-4.5 1.7-4.5 4 0 2.5 1.8 4 6.3 5.6 4.4 1.5 5 1.9 5 3 0 .7-.7 1.2-1.5 1.2H92l-2.2-.5c-1.3-.4-2.5-.5-4-.5-3.2 0-4.7.5-6.4 2-.3.4-.5.4-1 .4h-.6c-.4 0-.7.2-1 .6l-.5.9-.3.1c-.4 0-.5-.2-.9-1-.1-.4-.3-.7-.6-1l-.7-.5-.1-.2.1-.3a3 3 0 0 0 .5-.9v-.3l.2-.1c.3 0 .3.1.3 1 0 .1 0 .4.3.8l.3.7.3.2c.3 0 .7-.8.9-1.6 0-.7.1-.9.3-.9.1 0 .2 0 .4.7l.4.4.4.3c.3 0 .4-.2.5-.8v-.8l-.1-.3c0-.2 0-.3.2-.3l.2.1.3.3c.2.2.5.3.7.3.2 0 .4 0 .4-.3l-.3-.7-.2-.4c-.3-.5-.4-.7-.7-.7h-.3l-.4.2H78 78c0-.3.2-.8.6-1.3.2-.4.4-1.2.5-2.6l.2-1.5c0-.9.2-1.2.3-1.2h.2v.9c0 .5.1.9.2.9l.5-.5.3-.6.2-.8c0-.8-.3-1.1-1.3-1.4h-.2v-.9l-.1-.4-.1-.3-.2-.4-.3.2c-.6.4-.8.5-1 .8-.3.4-.4.4-.5.4h-.2l.2-.6V8c0-.7-.4-1.4-1.1-2l-.2.3-.3.4-.4.4c-.2.3-.3.6-.3 1v.2c0 .2 0 .3-.2.3l-.3-.3-.3-.4-.6-.4-.3-.2C73 8 73 8 73 8.9v.3c0 .3 0 .4-.2.4l-.4-.1a1 1 0 0 0-.5-.2c-.5 0-.8.4-.8 1s.1 1 .5 1.6c.2.4.6.8.7.8l.1-.7v-.8l.1-.4c.2 0 .3.2.4.8l.3 1.2.2 1.5c0 .4.2.8.4 1.3a6.4 6.4 0 0 0 1 1.7l-.2.2-.3-.1-.4-.2h-.2c-.5 0-.6.4-.6 2.6 0 1.3.2 3 .6 3.9l.7 1.7.1.8c0 2.3-3.2 6-6.5 7.7-1.3.6-1.7 1.3-1.8 3l1.1-.4c1-.3 1.2-.4 1.3-.8l.1-.5.9-.6.5-.4.4-.4.1.2-.4 1v.2c0 .6.4 1.2 1 1.5l.2-.3c0-.5.2-.8.3-1l.6-.9c.2-.3.3-.5.3-1.4v-1l-.1-.2c0-.2 0-.3.2-.3l.2.1.1.6c0 .2.2.3.3.3.4 0 .8-.4 1.2-1.2l.2-.7v-1l-.1-.2c0-.2 0-.3.2-.3h.2l.2.8c0 .3.3.4.4.4.5 0 1-1 1-2 .1-.7.2-1 .4-1l.2.1.1.4c0 .2.1.3.2.3l.5-.4.3-.4V27c0-.2 0-.3-.2-.5a.8.8 0 0 1-.4-.6c0-.5.2-1 .8-2 .5-.9.6-1 .7-1 .1 0 .2.1.2.3v.3l-.2.4s.1.2.3.2l.6-.2.8-.4a39.1 39.1 0 0 1 1.8-.4h.5l.8.2c.3 0 .5-.3.5-.6l-.2-.5a7.8 7.8 0 0 0-.5-.7v-.2l.2-.1c.3 0 .8.5 1.2 1.3 2.5 4 3.7 5.3 5.6 6 2 .5 2.4.9 2.4 2 0 .7-.4 1.4-1 2.3-1.3 1.8-1.8 2.9-1.8 4v.3l.4-.2.5-.2.8-.1c.3-.1.5-.4.5-.7l-.1-.8v-.1c0-.4.2-.7.4-.7.1 0 .2 0 .3.2l.5 1c.2.5.4.7 1.1 1M68.5 14.6v.9c0 .5 0 .7.3.7.2 0 .5-.4.6-.8l.2-.9-.2-.6c-.1-.4-.2-.5-.4-.5-.3 0-.4.3-.5 1.2" fill="#fd0"/><path d="M66.3 8.7l.5.4a5 5 0 0 1 1 3.3v3.3c0 4.2 1.1 7 3 7 .4 0 1-.3 1.3-1l.3-.2.1.3v.7l.1.6a11.1 11.1 0 0 0 .2 1.3c0 .3 0 .4-.8.5l-.9.3c-.5.3-.8.6-.8.7l-.4.7-.2.1c-.2 0-.4-.2-.8-.8a3 3 0 0 1-.4-1.1l.2-.1h1l.2-.3-.1-.2-1.4-.6c-.4-.1-.8-.5-1.1-1-.4-.6-.6-1.2-.6-1.4 0-.3.1-.4.3-.4h.2l.4.2h.1l.1-.2c0-.1 0-.3-.2-.4-1.2-.8-2-1.8-2-2.7 0-.3.1-.4.2-.4h.3l.4.1c.2 0 .3 0 .3-.2 0-.1 0-.2-.3-.3-.8-.4-1-.7-1.5-1.8-.4-.9-.6-1.2-1-1.7a2 2 0 0 1 1-.2c.5 0 .8.3 1.1 1l.5.9.1-.4-.1-1a2 2 0 0 1-.1-.7v-.4l-.4-.2c-.3-.2-.6-.6-.6-1l.1-.6.2-.8.2-1.3v-.3l.3.3M70.2 31.8c-.7-.1-.8-.1-1.6-.5l-1.2-.3a2 2 0 0 0-1.4.6l.3.2.7.4.6.5.5.2c.7 0 1.2-.3 2-1M82.5 37.6l.6-.8c1-.8 1.3-1.3 1.3-1.8v-.7c0-.4.1-.5.3-.5h.2l.2.4c0 .1.1.2.3.2.2 0 .3-.2.7-.8l.3-.7-.1-.3s0-.3-.2-.5l-.2-.5c0-.2.2-.4.3-.4l.3.1.2.3c0 .1 0 .2.2.2l.4-.3.3-.5v-.3c0-.1 0-.2-.2-.3l-.5-.2c-.5-.2-1-1.1-1-2l.2-.4.2-.5v-.6c0-.3 0-.6-.2-1l-.4-.6c-.2-.5-.3-.7-.5-.7l-.4.2-.3.2-.5.5-.4.2c-.3.2-.5.7-.5 1.2 0 .7.1 1.1 1.2 3 .4.8.6 1.3.6 1.8 0 1.3-1.3 2.4-3.5 2.8-2.6.5-3.2 1-3.5 2.6.5-.2.7-.2 1.5-.2h.5c.4 0 .5 0 .8-.4.3-.5.6-.7 1-1l.5-.2.5-.2.3.1-.3.6c-.4.3-.5.7-.5 1 0 .4 0 .7.3 1" fill="#fd0"/><path d="M78.5 32.7l1 .8c.2.5.3.5.6.5h.4l.3-.1c.6-.1.7-.2.7-.4l-.1-.2-.4-.3-.3-.4c-.3-.2-.7-.3-1-.3-.4 0-.8 0-1.2.4M88.8 34.4h1c.3 0 .5 0 .6-.2.2-.1.4-.3.6-.7l.1-.4c0-.2-.2-.3-.5-.3-.9 0-1.4.5-1.8 1.6" fill="#fd0"/><path d="M76.9 12.3c0 .3.2.5.3.5.2 0 .4-.5.7-1 .5-.8.8-1.4.8-1.8l-.1-.3-.4.4-1 .5c-.5.2-.6.3-.6.6v.2l.3.6v.3M74 9.9a.7.7 0 0 0-.3-.2c-.1 0-.2.1-.2.3a3.7 3.7 0 0 0 .6 1.5l.5.8c.2.3.5.4.6.4h.2l.1-.7.2-.6v-.1c0-.2 0-.3-.2-.4l-.6-.3-.8-.7M76.2 14H75.6s-.1-.2-.4-.3a.9.9 0 0 0-.4-.1c-.3 0-.5.2-.5.5l.4 1.3.5 1c.3 1 .7 1.3 1.2 1.3.4 0 .7-.3 1-1l.3-1.5c.2-.4.6-.6.6-1 0-.3-.4-.6-.8-.6h-.1l-.5.3h-.7" fill="#261b06"/><path d="M76.1 14.9h-.5l-.1.2.2.8v.7c.2.3.2.5.5.5s.6-.2.6-.6v-.7a30.3 30.3 0 0 0 0-1h-.7" fill="#fd0"/><path d="M32.4 83c.3.8.4 1.1.4 1.6l.1 1.3c0 1.4.5 2 1.4 2 .3 0 .5 0 .7-.2l.3-.3h.2c.2 0 .3 0 .3.4v2c.2.4.2.8.2 1.3 0 .6 0 .9-.3 1.5.2.6.4 1.4.4 2 0 .6-.2 1.1-.4 1.5l.1 1.1-.1 1.2c-.1.7-.2 1.2-.1 1.5v.1c0 .2 0 .3-.2.3-.1 0-.3 0-.4-.2-.2-.3-.3-.4-.5-.4s-.3.2-.6 1.1l-.8 1.2c-.3.4-.5.7-.5 1a9 9 0 0 1-.2.6l-.2.2c-.6 0-1.2-1.2-1.8-3.3-.2-.6-.4-.9-.7-.9-.3 0-.5.2-.6.4l-.2.4-.2.2c-.2 0-.6-.5-.9-1.1a4 4 0 0 1-.3-1.5c0-1 .8-1.7 3-3 1-.5 1.4-1.2 1.4-2.5 0-1-.3-1.5-1.2-2.2-.7-.5-1-.7-1.4-.7-.3 0-.6.2-.6.5s.2.4.6.6c.5.2.7.3.7.6l-.5 1.1a3 3 0 0 1-1 1c-.2 1-.6 1.5-1.6 2.2l-.6 1.1-.7 1-.5 1c0 .4-.1.5-.3.5-.2 0-.8-.5-1.3-1.1-.3-.4-.4-.6-.4-1.1-.3.3-.4.3-1 .4l-1 .2c-.4.3-.6.3-.7.3-.1 0-.2 0-.2-.3V97a5 5 0 0 1 1-2.8c-.6-.5-1.2-.8-1.6-.8-.2 0-.3 0-.3-.2l.3-.6.6-.6c.5-.4 1.3-.7 1.9-.7.4 0 1 .2 1.8.5l.8.1c.3 0 .5-.2.5-.6 0-.6-.3-1.5-1-3-.4-1-.5-1.6-.5-2 0-1.2.5-2.3 1.1-2.7l-.7-.2c-.3 0-.6.1-1 .4-.4.2-.7.5-.7.7l.3.2c.2.2.2.3.2.5 0 .8-.6 1.9-1.5 2.5a2.8 2.8 0 0 1-1.8 2.3c0 .6-.2.8-.7 1.5-.8 1.2-1 1.5-1.2 2.2 0 .3-.1.5-.2.5-.2 0-.4-.2-.7-.6l-.6-.6a3 3 0 0 1-.3-1h-1.3a4 4 0 0 0-2 .6c-.3 0-.4-.4-.4-1 0-1.1.3-2.1 1-3.1l-.6-.6a1 1 0 0 0-.2-.3l-.4-.1-.2-.3 1-1a3 3 0 0 1 1.6-.5c.5 0 .8.1 1.5.7.4.4.7.6 1 .6l.4-.3.2-.5c0-.6-.8-1.6-1.6-2.2-.6-.4-1.2-.6-1.9-.6-.9 0-1.6.5-2 1.2l-.3.7-.3.3c-.3 0-.4-.1-1-1l-1-1-.4-.8a2 2 0 0 0-.2-.4l-.3-.2c-.7-.5-1.1-1.4-1.4-2.7V79c-.9-1-1.3-2.2-1.3-3.2v-.4c-.4-.5-.5-.6-.8-1.8-.3-.9-.5-1.3-.8-1.7l-.1-.2c0-.2.3-.4.7-.4l.7-.1H6v-.8l.1-1.5.1-.7a7.1 7.1 0 0 0-.2-1.3l.2-.1.4.1 1.4.8c1.1 1 2 2.2 2 3v.3l-.1.5c0 .1 0 .3.2.5l.4.5c.3.4.5 1 .5 1.2 0 .3 0 .5-.6 1.2-.4.6-.5 1-.5 1.5s.2 1.3.6 2c.4.6.8 1 1.2 1 .8 0 1-.6 1.2-2.3l.2-2.5v-.4c0-.2 0-.3-.3-.6l-1-1.1c-.8-1.1-1.1-1.7-1.1-2.4 0-1 .6-1.5 1.4-1.5h.4v-.2l.1-1c.2-.6.5-1.1.6-1.1l.3.1.6.3c.2 0 .3 0 .7.3.1-.6.2-.8.5-1.2l1-1 .5.5.7.6.3.6.1.3.4-.2.5-.3.6-.3.4-.2.4 1.3.2 1.4c1 .2 1.5.7 1.5 1.8 0 1-.5 2.1-1.6 3.3-.3.3-.4.4-.4.7 0 2.9 1 3.8 4.6 4.1 2.2.3 2.8.4 5.4 1.2 1.4.4 2.2.6 2.7.6.6 0 1-.2 1-.6 0-.6-.5-.8-3-1.3-6-1.3-8.3-3.3-8.3-7.2 0-2.8 2-5 4.9-5 1.2 0 2.3.4 4 1.4 1.6 1 2 1.1 2.4 1.1.4 0 .6-.2.6-1 0-.4 0-.6.4-.6.2 0 .6.3 1 .7.5.6.7 1 .7 1.8 0 1.2-.6 2-1.8 2.2l-.3.4c-.7.7-1.3 1-2.3 1-1 0-2-.4-2.8-1l-1.6-1c-.6-.5-1.1-.7-1.6-.7-.7 0-1 .4-1 1 0 .7.4 1.2 1 1.4l1.5.5 1.4.5h.7a6 6 0 0 1 2.7.6l.6.3.8.2a5 5 0 0 1 3.3 4.6c0 2.2-1.5 3.6-3.8 3.6h-.8" fill="#261b06"/><path d="M31.9 102.1l.2-.4.4-.4c.4-.4.6-1 .6-1.7 0-.3 0-.7-.2-1V98c0-.2 0-.4.2-.4 0 0 .2 0 .3.2l.4.5c.3.4.4.4.8.5v-1c0-.7-.2-1.6-.6-2.1l-.4-.7c0-.1 0-.2.2-.2h.1l.6.4.2-.8a3 3 0 0 0-.6-1.8 16 16 0 0 1-.5-.7l.3-.2.4.1.3.1c.2 0 .3-.3.3-1.3v-.9c0-.7-.1-.8-.4-.8h-.3c-1.5 0-2.3-1-2.7-3.7-.3-2-1-3.3-1.9-3.6l-.7-.4.3-.2c.1 0 .4 0 .6.2a9 9 0 0 0 3.3.7c1.6 0 2.8-1 2.8-2.5 0-1.1-.5-2.2-1.5-3.1-.2-.3-.5-.4-.8-.5h-.2v.5l.2.3v.2h-.4l-.5-1a3 3 0 0 0-2.3-1.2c-.2 0-.4.1-.4.3l.2.4.3.5v.1l-.2.2-1-.9c-.5-.6-1.7-1.3-2.3-1.3l-.2.1v.1l.1.4.4.5-.2.1c-.2 0-.6-.3-1.3-.9-1.2-.9-1.8-1.8-1.8-2.8 0-1.2 1-2.2 2-2.2a4 4 0 0 1 2.2.8l1.6 1.1c.7.6 1.6.9 2.5.9.2 0 .4 0 .5-.2.2 0 .3-.1.3-.2l-.3-.1c-.6-.1-1-.3-1.4-.6l-1.6-1.2-1.2-.9c-.9-.4-1-.5-1-.6l.2-.1h.2l.9.4 1.3.8c1.7 1.2 2.6 1.5 3.6 1.5s1.7-.7 1.7-1.6c0-.2 0-.4-.2-.5l-.1-.3c0-.2-.2-.3-.2-.2l-.1.1-.1.7-.1.2-.2.3c-.2.2-.3.3-.6.3-.5 0-1-.3-2.6-1.3a8 8 0 0 0-4-1.4 4.2 4.2 0 0 0-4.1 4.1c0 3.2 2 4.7 8.1 6 2.3.5 3.4 1.2 3.4 2.3 0 1-.8 1.5-2 1.5h-.9l-3.3-1c-1.4-.3-2.9-.6-4.3-.6-2.4 0-4 .8-5.1 2.3l-.3.3-.3-.1-.5-.4c-.3-.2-.8-.4-1.1-.4a1 1 0 0 0-.7.3l-.3.2c-.2 0-.5-.4-.8-1-.3-.7-.5-1.4-.5-2.1 0-.3 0-.6.2-.6l.3.3.2 1c.2.4.4.8.7.8 0 0 .2 0 .4-.3l.3-.5c.2-.6.2-.7.4-.7s.3.2.4.7l.2.6.4.6.3.1c.3 0 .6-.4.6-1v-.7-.3c.2 0 .2 0 .3.2l.6.4.4.2c.1 0 .2 0 .3-.2l.2-.2c0-.1-.1-.3-.5-.6a4 4 0 0 1-.6-1.3l-.3-.4h-.2l-.5.2-.2.1h-.2s-.2 0-.2-.2l.6-.7c.3-.2.4-.5.5-.9 0-.5 0-1 .2-1v-1l.6-2.3v-.2c.2 0 .3.3.3.5v.5l.1.6c.2 0 .3-.2.5-.5l.2-.8.2-.6c0-.6-.4-1-1-1H20c-.1 0-.3-.1-.3-.3v-1.1l-.1-.7v-.3l-.3.1-.4.3-.5.4-.4.4h-.3c-.2 0-.2 0-.2-.5v-.1c0-.4-.2-.7-.9-1.5l-.1-.2-.2.2-.3.6-.4 1v.5c0 .2-.1.3-.2.3l-.3-.2c-.5-.6-.6-.7-1.4-1v.3l-.2.6V69.2c0 .2-.1.3-.2.3l-.2-.2h-.4c-.6 0-1 .2-1 .7 0 .4.1.7.7 1.6l.7.7.2-.4-.1-.4V71v-.3c.3 0 .6.9.8 2L14 74c0 .4.2.8.4 1.3l.8 1.2.5.5c0 .1 0 .2-.2.2l-.6-.2h-.3c-.6 0-.8.3-.8 1.4 0 1.3.9 3.3 1.9 4l1.4 1.2c.8.6 1.4 1.6 1.4 2.4 0 .9-1 1.8-2.8 2.5l-1 .3c-1 .3-1.2.9-1.6 2.4l1-.2h.5c.5 0 .8-.2.8-.6V90s.1-.2.3-.2l.4-.3.4-.3h.1c.1 0 .2 0 .2.2v.3c-.2.2-.2.6-.2 1 0 .9.1 1.3.5 1.8l.1-.4.5-.8c.5-.7.9-1.5.9-2v-.1l-.1-.8.1-.3.3-.1c.1 0 .2 0 .3.3 0 .2.2.3.2.3.1 0 .4-.3.5-.6l.2-.7-.1-.4-.1-.4v-.2h.4l.3.2h.3c.1 0 .3 0 .4-.3l.5-.9-.2-.2c-.7-.5-1.1-1.2-1.1-1.8l.1-.4.3-.9.3-.7c.2 0 .2 0 .2.2v.4l-.2.6c0 .2.2.4.4.4.1 0 .3 0 .5-.2 1-.4 1.7-.6 2.2-.6.4 0 .7 0 1.2.4l.3.1h.2v-.2c0-.2 0-.3-.2-.5l-.2-.4c0-.1 0-.2.2-.2.5 0 1.3 1.6 2 4.1.6 2 .8 2.2 2.7 3.3 1.6 1 2.2 1.8 2.2 3.3 0 1.4-.4 3.3-1.2 5.7-.3.7-.4 1.3-.4 1.7a13 13 0 0 0 .5 2.3l.3.4" fill="#fd0"/><path d="M24.4 97.6l.7-1c.5-.8.7-1.2.7-1.6v-.5c0-.5 0-.7.2-.7h.2l.2.3.2.2.4-.3.3-1.2v-.7c0-.2 0-.3.2-.3s.2 0 .3.3c0 .2.2.3.3.3l.2-.2.3-.4.2-.3v-.1c0-.1 0-.2-.2-.3-.6-.5-.9-1.1-1-2.3V87l-.7-1.3a9 9 0 0 1-.3-1.2c-.1-.3-.2-.4-.4-.4-1 0-1.6.8-1.6 1.7 0 .6.3 1.5.7 2.6.6 1.6.8 2.2.8 2.7 0 1.2-.5 1.7-2.1 2.3-1.8.6-2.7 1.6-3 3.3l.3-.1.5-.2.5-.1c.4-.1.8-.4.8-.6l.2-.5c0-.1 0-.2.2-.2l.2-.1.3-.2V95.3l-.1.7c0 .7.1 1.1.5 1.6M7.2 68l.1.4-.1.8v.6c0 .6 0 1.2.2 1.7l.2.8-.1.3-.4-.2c-.3-.3-.7-.5-1.1-.5l-.6.1.2.4.5 1.1.6 1 .7.6.2.1.1.3H7l-.1.2.2 1 .4 1 .5.4.6.4.3.4-.2.2h-.3l-.1.3c0 .2.2.7.6 1.2.5.7.8 1 1.4 1h.5c.2 0 .4 0 .4.2s-.1.3-.3.3c-.5 0-.6.2-.6.4l.1.3.3.4c.2.3.5.5.6.5l.5-.3a2 2 0 0 1 1-.7c1.1-.3 1.4-.4 1.4-.7 0 0 0-.2-.2-.3a3 3 0 0 1-.4-1.6c0-.4-.1-.7-.3-.7l-.3.3c-.2.4-.7.6-1 .6-1.2 0-2.5-1.7-3.2-4l-.2-1.7c0-.6 0-1.3.2-2l.4-1.6v-.4c0-.8-.7-1.8-1.9-2.6" fill="#fd0"/><path d="M9.5 72.5c-.2.4-.4 1.4-.4 2 0 .4.1.7.3.7l.1-.1.4-.7.2-.4c.2-.2.2-.4.2-.5 0-.3-.3-.8-.8-1M13 87h.2l.3.3c.6.7.7.7 1 .7.3 0 .9-.1 1.2-.3l.2-.2-.3-.4-.3-.3c-.3-.2-.7-.5-1-.5-.3 0-.6.2-1.2.6M20.5 92.7l.6.3.6.4h.9l.6-.3.7-.2.3-.3-.4-.1-.5-.2-1.2-.4c-.6 0-1.2.3-1.6.8M28.6 99.2c.2-.6.4-.6 1.1-.7.8 0 1.6-1.5 1.6-2.5v-.2l-.3.1-.5.3-.9.4c-.6.3-1.2 1.1-1.2 1.8l.2.8" fill="#fd0"/><path d="M14.8 71.3l.3.4.7.5.2-.2.1-.5V71c0-.5-.1-.6-1-.9l-.5-.1a.9.9 0 0 0-.3-.2H14v.2l.2.5.5.8M18.2 71.3l-.4.7-.2.2c-.2 0-.4-.4-.4-.8v-.6c0-.3.2-.4.6-.5.3 0 .5 0 .6-.2l.5-.3.2.1-.2.6-.7.8M17.4 73.5l.5-.3h.2c.3 0 .5.1.5.5 0 .3-.3.8-.7 1.5-.4.8-.8 1.3-1.1 1.3-.5 0-1.1-.7-1.7-2a2 2 0 0 1-.3-.8c0-.4.2-.6.5-.6h.4l.3.3.8.2.6-.1" fill="#261b06"/><path d="M16.6 74.2h-.3c-.3 0-.4.1-.4.3 0 .4.3 1 .6 1.4l.2.2c.2 0 .4-.4.5-1l.1-.6c0-.3 0-.3-.2-.3" fill="#fd0"/><path d="M88.2 82.6c.6.8 1.3 1.2 2 1.2l.8-.1h.5l.2.1c0 .2 0 .4-.2.6a3 3 0 0 0-.2.6v.7l-.4.6-.5.4v.5c0 .8-.3 1.3-1 1.7l-.2.2v.2a8 8 0 0 1-.4 1.1c0 .2-.2.5-.6 1-.4.4-.6.9-.8 1.2-.1.4-.2.5-.4.5-.3 0-.6-.4-.7-.9l-.2.2-.3.2-.7.5a5 5 0 0 0-.5.3l-.3.4H84c-.2 0-.3-.2-.5-.7l-.3-1-.1-1.1c0-.5 0-.7.2-1.1a4 4 0 0 0-1.2.2 1 1 0 0 1-.2 0c-.2 0-.2 0-.2-.2l.1-.4.4-1.1c.4-.9 1.4-1.6 2.2-1.6l.8.1.5.1c.4 0 .7-.2.7-.6l-.3-.4-1.1-.3c-.5-.2-.8-.4-1.4-1.1-.5-.5-.6-.7-.8-.7-.1 0-.2.1-.2.3V84.8c0 .9-.2 1.7-.8 3l-1 1.5a4 4 0 0 0-.6 2c0 .6.3 1.2.7 1.3l.5.1.1.1.1.2-.1.3-.6.8c-.6.7-1 1-1.6 1.1-.4 1-1 1.5-2.1 1.9l-.2.2c-.3.7-1.2 1.3-1.7 1.3h-.2c0 .6-.4 1.2-1 1.6a9 9 0 0 0-.8.6l-.2.3c-.1.3-.2.4-.4.4-.4 0-.7-.3-.9-1 0 .2-.2.2-.2.3l-.7.4-1 .3c-.9.2-1.5.5-1.7.8l-.3.5h-.1c-.2 0-.4-.2-.4-.4a8 8 0 0 1-.3-1.8c0-1.2.3-2 1.5-3v-.4c0-1.7 1.4-3 3.3-3h.4l1 .1h.2c.5 0 1-.2 1.7-.7.8-.6 1-1 1-1.7 0-.2 0-.5-.3-1.3l-.3-1.5c0-1.3 1-3 2.3-3.9.4-.2.6-.5.6-.7v-.2l-.5.3-.7.5-.5.2-.6.3c-.2 0-.3.1-.3.2v.3l.1.3-.1.3-.5.8c-.4.7-.7 1-1.3 1.3-.3 1-.9 1.6-1.6 1.7-.6 1.2-1.2 1.6-2.2 1.7a4 4 0 0 1-1 1.5l-.4.5-.4.5c-.1 0-.5-.2-.7-.5a2 2 0 0 1-.3-.4l-.3-.5-.3-.2H66l-1.3.8-.4.6-.1.1c-.3 0-.5-.6-.5-1.7 0-.9.1-1.5.5-2l.9-1.2.1-.5-.1-.4-.5-.4H64l-.2-.2.1-.2.8-.7c.8-.5 1.4-.7 1.9-.7s1.1.2 1.7.6l.9.6.4.1c.5 0 .8-.3 1.1-.8.3-.6.4-1 .4-1.5a2 2 0 0 0-2-2c-.6 0-1.2.1-1.7.6a1 1 0 0 0-.3.3l-.3.6-.2.2c-.2 0-.5-.5-.8-1a6.7 6.7 0 0 1-.8-2.8v-.9c-.3-.7-.5-1.2-.5-2l.2-1c-.2-.5-.3-.9-.3-1.5v-.4l.1-.5V75l-.6-2.1a4.3 4.3 0 0 0-.5-1.6c0-.1.4-.3 1-.3h.4l-.2-.6c0-.4.1-.9.3-1.3l.2-.8c0-.4 0-.8-.2-1l-.2-.6-.1-.3.1-.1c.7 0 1.9.6 2.8 1.5 1 1 1.3 1.6 1.3 3v.7c.8.7 1.2 1.4 1.2 2 0 .5-.2.9-.7 1.4-.8.8-1 1.3-1 2.4 0 1.7.5 2.6 1.4 2.6.8 0 1.5-.9 1.6-2.2v-1.2l.2-1.2.1-.8c0-.5-.3-1-1.1-2-.9-1-1.2-1.6-1.2-2.4 0-1 .7-1.7 1.6-1.7l.6.1c0-.5 0-.6.4-1.4.2-.6.5-1 .6-1h.2l.4.4a16.2 16.2 0 0 1 .6.5c.2-.7.4-1 1-1.6l.7-.6c.1 0 .2 0 .3.2l.4.5.5.6c.2.2.3.4.4 1l.3-.2.5-.3.4-.2.2-.1.2.2.1.7.5.9.1.8v.2h.2c.7 0 1.2.7 1.2 1.6 0 1.1-.9 2.6-2 3.4l-.2.8c0 2.6.6 3.1 4.6 3.7a21.5 21.5 0 0 1 5.1 1.4c.9.3 1.5.4 2 .4.4 0 .7-.1.7-.4 0-.4-.7-.8-2.6-1.6l-2.8-1c-2.9-1.2-4.2-3-4.2-5.5a5 5 0 0 1 5.2-5.2c1.1 0 2.2.3 3.8.9l2.3.7c.4 0 .6-.2.7-.8 0-.5.2-.7.4-.7.4 0 .9.4 1.2 1 .2.5.4 1.1.4 1.6 0 1.1-.6 1.8-1.6 2-.7.9-1.5 1.3-2.6 1.3-1.2 0-1.9-.2-4-1.6-.8-.5-1.2-.6-1.7-.6-.8 0-1.4.5-1.4 1.1 0 .6.5 1 1.6 1.3.6.1.7.2 1 .5h.6c1 0 2.3.5 3.4 1.4 2 .6 3.7 2.8 3.7 4.6 0 2-1.7 3.7-3.6 3.7l-2.5-.4" fill="#261b06"/><path d="M87 91.5l.2-.4.1-.4.4-.6c.3-.4.4-1 .4-1.5l-.1-.7-.1-.3v-.1l.2-.1s.2 0 .3.2l.3.3c.2 0 .3-.3.4-.6v-.4a3 3 0 0 0-.2-.9v-.3-.2c.2 0 .3.1.5.3l.3.1c.2 0 .3-.2.5-.7v-.5-.1h-.5c-.6 0-1.4-.4-1.8-.9l-1-1-.7-1.1-.8-.5-.2-.3.4-.2 1.6.6c1 .4 2.4.7 3.3.7 1.5 0 2.7-1.2 2.7-2.7 0-.8-.3-1.6-1.2-2.6l-.6-.4c-.1 0-.2 0-.2.2l.1.3v.5c-.3 0-.5-.3-.7-.9-.2-.7-.6-1.1-1.6-1.6l-1-.4V75l.3.6c0 .1 0 .2-.2.2s-.2 0-.7-.8c-.2-.3-.9-.8-1.4-1l-.6-.2-.2.1.1.3v.4c-.3 0-.9-.5-1.3-1-.5-.6-.9-1.4-.9-2 0-1.2 1.2-2.3 2.5-2.3.3 0 .6 0 .8.2l1.2.6 1.3.8c.7.5 1.8.9 2.4.9l1-.2.5-.3-.1-.1H92a6 6 0 0 1-2-1l-1.5-1-1.3-.5-.2-.2H87.6l1.2.3 1.4.7c1.4.7 2.3 1 2.9 1 .7 0 1.3-.5 1.3-1.2l-.1-.9-.2-.4-.2-.1-.1.2v.4c0 .6-.2.8-.9.8a9 9 0 0 1-2.9-.8 9.1 9.1 0 0 0-3.4-.8c-2.4 0-4.5 2-4.5 4.2 0 1.9 1.3 3.4 3.9 4.5l2.7 1c2.3 1 3 1.7 3 2.6 0 .7-.6 1.2-1.6 1.2-.5 0-1-.2-2.1-.5-2.6-.8-4.2-1.2-5.7-1.2-2.4 0-4 .7-5.4 2.1-.2.2-.3.3-.5.3l-.4-.2c-.3-.2-.5-.2-.7-.2-.3 0-.6.2-.8.4l-.3.4-.3.2c-.2 0-.6-.4-.9-.9a3.1 3.1 0 0 1-.4-1.7v-.6l.1-.6.1-.6.2-.1c.2 0 .2.2.2.5v.4c0 .9.4 1.7.8 1.7.3 0 .6-.6.8-1.7 0-.2.1-.3.2-.3.2 0 .3.1.3.6l.5 1c.1.2.3.3.4.3.3 0 .4-.4.6-1.3 0-.4.1-.6.2-.6h.2l.2.4c0 .2.2.3.3.3l.4.2c.1 0 .2 0 .3-.2.2 0 .2-.2.2-.2l-.1-.3c-.3-.2-.4-.5-.6-1a37.3 37.3 0 0 0-.5-1H77l-.6.2h-.2l-.2-.1.3-.4c.8-.7 1.3-1.7 1.4-3.3.2-1 .3-1.3.7-1.9l.2-.2c.1 0 .2.1.2.3l-.1.5-.1.3v.4l.4-.2.4-.4c.2-.3.4-.9.4-1.3 0-.3 0-.6-.2-.8l-.5-.3h-.5c-.2 0-.3 0-.3-.2v-.2l.1-.4-.2-.8-.1-.3-.1-.4-.3.2-.4.3c-.2 0-.3.2-.4.3-.5.6-.5.6-.7.6l-.2-.1v-.1l.1-.7a3 3 0 0 0-.9-1.9c-.6.7-1 1.4-1 2v.4l-.1.2-.3-.1-.3-.5-.6-.4-.2-.3-.2.3c-.3.6-.4 1-.4 1.5l-.1.6h-.2c-.5-.4-.6-.4-.8-.4-.6 0-1 .4-1 1 0 .3.2.6.4 1.1.3.5.8 1 1 1V71v-.3c.4 0 .6.9.8 2.6.2 1.5.6 2.5 1.3 3l.2.4v.1l-.5-.1a.7.7 0 0 0-.4-.1c-.3 0-.6.4-.7.8l-.3 1.8-.2 2.5c0 .5 0 1.2.2 2l.2 1.5c0 2-1.2 3.4-3.2 4l-2 .6c-1.3.4-2 1.2-2.1 2.8.3-.2.4-.3 1-.4h.5l.6-.2.3-.4.6-.6.5-.4.1.2-.2.6c-.2.2-.2.5-.2.8 0 .4 0 .7.5 1.2l.1-.3.5-.7c.4-.6.8-1.2.8-1.5l.1-.6c.1 0 .2 0 .2.3l.1.2.2.1.3-.1.5-.5.3-.5.2-.6v-.5-.2l.4.4.2.2.3-.2c.4-.4.7-.8.7-1.2v-.6l-.2-.5.1-.2c.2 0 .3.2.6.7 0 .2.2.3.3.3.1 0 .2 0 .5-.5l.3-.4a.6.6 0 0 0 0-.7l-.2-.4-.1-.3c0-.4.2-1 .5-1.5l.4-.8.2-.2v1c.1.2.2.2.3.2h.4l.8-.4.7-.3c1.3-.7 1.6-.8 2.3-.8.3 0 .8 0 1.5.4l.3.1c.1 0 .2 0 .3-.2v-.2-.4l-.2-.5.1-.1s.2 0 .3.2l.7 1.2c.6 1.1 1.4 1.8 2 2l1.5.3c.4.1.5.3.5.8 0 1-.5 1.9-1.3 2.4l-1.1.8c-.5.2-.8 1-.8 1.6 0 .4 0 1 .2 1.6l.2-.2.6-.3.5-.5.2-.7.3-.7c.1-.3.3-.5.4-.5l.1.5v.2c0 .5 0 .7.4 1.4" fill="#fd0"/><path d="M68 100.6c0-1.5.6-2.2 2.8-3.3 4.4-2.2 6.7-4.2 6.7-5.7a7 7 0 0 0-.4-1.8l-.2-1.4c0-.7.5-1.8 1.3-2.4l.6-.6c.3-.3.6-.7.6-1V84.1c0-.3.1-.4.4-.5h.6l.2.1.2.3.2.2.2.1h.3l.4-.2c.1 0 .2.1.2.3 0 .6-.4 1.6-1.1 2.6-1.3 1.6-1.7 2.5-1.7 3.6 0 .8.3 1.6.7 2.2l.2.2-.3.4s0 .2-.2.3c-.2.3-.4.5-.6.5l-.3-.3v-.3l-.3-.2-.1.1-.1.4v.5c0 .3-.1.5-.3.7 0 .2-.2.3-.4.5l-.3.1-.2-.2-.2-.7-.1-.1c-.2 0-.2.1-.3.4 0 .7-.2 1.2-.4 1.4l-.4.4-.4.2-.2-.1-.2-.5h-.2c-.1 0-.2.2-.3.7 0 1.1-.3 1.6-1 2-.4.4-.6.5-.7 1a2 2 0 0 1-.4-1.3l.1-.6.2-.5-.1-.2-.2.1-.4.4c-.6.3-.6.4-.8 1-.2 1-.6 1.3-1.5 1.5-1 .2-1.1.2-1.5.6v-.6M66 67.6v1.3l-.2.7c0 .6 0 1 .4 1.6.2.3.4.7.4 1 0 .2 0 .2-.2.2h-.1L66 72c-.2-.3-.4-.4-.9-.4h-.6l.4 1.2c.3 1 .3 1.1.9 1.6.6.6.6.6.6.8 0 .2 0 .3-.2.3H65.9c-.2 0-.4.2-.4.6l.2.8.3.4.3.3.1.3c0 .2 0 .3-.2.3H66l-.2-.1c-.1 0-.2 0-.2.2v.5l.2.8c0 .2.2.4.4.6.1.2.3.4.5.4l.6.3.1.3-.2.2h-.3l-.4-.1c-.3 0-.3 0-.3.3v.5l.2.5c.1.5.3.8.5.8l.2-.1a4 4 0 0 1 2-.7 6.5 6.5 0 0 1 1.8.3l.2-.4v-.6l.1-1 .1-.7v-.4l-.2.2c-.6.5-1 .7-1.5.7-1.4 0-2.3-1.7-2.3-4.6a31 31 0 0 1 .6-5.7c0-1-.7-2-1.8-2.8" fill="#fd0"/><path d="M68.2 74.8l.3-.3.2-.3c.3-.2.5-.6.5-1l-.1-.4-.5-.5c-.1 0-.2.3-.2.7l-.1.5-.1.5v.8M65.3 87.9c.4 0 .4.1.8.5.4.6.7.7 1.3.7h.4l.4-.2.3-.1c.2 0 .3-.1.3-.2l-.6-.5-.8-.5-.7-.2c-.5 0-1 .2-1.4.5M69.7 96.9c0-1 1-1.9 2.2-1.9.6 0 1 .1 1 .3a63.2 63.2 0 0 0-3.2 2v-.4M82.7 89.1c.5 0 .6-.2.9-.2h.5l.4-.2.5-.3c.6-.5.6-.5.6-.7 0-.1-.2-.2-.8-.2-1 0-1.6.5-2 1.6" fill="#fd0"/><path d="M73 69.6l.5.3.6.3c.5.2.7.3.7.5v.4l-.2.4c0 .5-.3.6-.4.6-.3 0-.5-.4-.8-1l-.6-1.3v-.1l.2-.1M77.4 70.7l-.8.8-.3.7h-.2a.3.3 0 0 1-.4-.3v-1c0-.3 0-.4.2-.4l.7-.2.7-.4.3-.1s.2 0 .2.2l-.1.2-.3.5M74.1 72.9l.5.4h.4l.8-.1.4-.2.3-.1c.2 0 .4.3.4.6 0 .5-.3 1-.8 1.7l-.4.7c-.3.4-.4.6-.7.6-.3 0-.5-.3-1.1-1.4a4 4 0 0 1-.6-1.7c0-.3.2-.6.5-.6l.3.1" fill="#261b06"/><path d="M74.5 74.7v.6c0 .3.3.5.5.5.3 0 .5-.4.7-1.1v-.4c0-.3 0-.3-.3-.3H74.8c-.2 0-.3.1-.3.5" fill="#fd0"/><path d="M38.5 60.2h3v6.4h3.8v-6.4h9.3v6.4h3.7v-6.4h3.1V43.6h-3.6l-.1-.2a2 2 0 0 0-1.7-1c-.8 0-1.4.5-1.7 1.2h-2.6c-.3-.7-1-1.2-1.8-1.2a2 2 0 0 0-1.8 1.2h-2.8c-.4-.8-1-1.2-1.7-1.2-.8 0-1.4.4-1.8 1.2h-3.3v16.6" fill="#261b06"/><path d="M39.8 59h20.4V45H39.8zm0 0" fill="#ef4035"/><path d="M42 48.2a1 1 0 1 0 0 2 1 1 0 0 0 0-2" fill="#fd0"/><path d="M42 48.3a.8.8 0 1 0 0 1.7.8.8 0 0 0 0-1.7zm0 2c-.7 0-1.2-.6-1.2-1.2a1.1 1.1 0 0 1 2.2 0c0 .6-.5 1.1-1 1.1" fill="#231f20"/><path d="M58 48.2a1 1 0 0 0-1 1c0 .5.4 1 1 1a1 1 0 0 0 0-2" fill="#fd0"/><path d="M58 48.3a.8.8 0 1 0 0 1.7.8.8 0 0 0 0-1.7zm0 2c-.7 0-1.2-.6-1.2-1.2a1.1 1.1 0 0 1 2.2 0c0 .6-.5 1.1-1 1.1" fill="#231f20"/><path d="M42 55.8a1 1 0 0 0-1 1c0 .5.4.9 1 .9.5 0 .9-.4.9-1 0-.5-.5-1-1-1" fill="#fd0"/><path d="M42 55.9c-.6 0-1 .4-1 .8 0 .5.5.9 1 .9.4 0 .8-.4.8-.9 0-.4-.4-.8-.9-.8zm0 2c-.7 0-1.2-.6-1.2-1.2a1.1 1.1 0 0 1 2.2 0 1 1 0 0 1-1 1.1" fill="#231f20"/><path d="M58 55.8a1 1 0 1 0 0 1.9 1 1 0 0 0 0-2" fill="#fd0"/><path d="M58 55.9a.8.8 0 1 0 0 1.7.8.8 0 0 0 0-1.7zm0 2a1.1 1.1 0 1 1 0-2.3 1.1 1.1 0 0 1 0 2.2" fill="#231f20"/><path d="M45 52.8c1.3 1.7 3 2.5 5 2.5 1.9 0 3.2-.7 4.7-2.5-1.5-1.6-3-2.2-4.8-2.2-2 0-3.8.8-5 2.2" fill="#fd0"/><path d="M46 52.8a6 6 0 0 1 3.8-1.5c1.5 0 2.5.4 4 1.6a5 5 0 0 1-4 1.6c-1.4 0-2.8-.6-3.9-1.7" fill="#241a04"/><path d="M47.6 52.5a4 4 0 0 0 4.6 0c-.8-.4-1.6-.6-2.4-.6-.8 0-1.6.2-2.2.6" fill="#fd0"/><path d="M39.5 46.4h21v-.7h-21zm0 0" fill="#241a04"/><path d="M39.6 46.4h20.8v-.7H39.6zm20.9 0h-21v-.8h21zm0 0" fill="#231f20"/><path d="M42.7 44.8v2c0 .5.4.8.9.8s.9-.3.9-.8v-2c0-.8-.3-1.2-.8-1.2a1.4 1.4 0 0 0-.6.2l-.2.3-.2.3M49 46.4v.4c0 .5.4.8.9.8s.9-.3.9-.8v-2c0-.8-.3-1.2-.8-1.2-.6 0-1 .4-1 1.2M55.1 44.8v2c0 .5.4.8.9.8.6 0 .9-.3.9-.8v-2c0-.8-.3-1.2-.8-1.2a1.3 1.3 0 0 0-.6.2l-.2.3-.2.3M42.3 64.1h1.9v-2.4h-2zm0 0M42.3 65.5h1.9v-.8h-2zm0 0M55.3 64.1h1.9v-2.4h-2zm0 0M55.3 65.5h1.9v-.8h-2zm0 0" fill="#fd0"/><path d="M160 2v1.5h-1c-1.4 0-3.8 0-3.8 4.5v18.3c0 11.2-4.9 16.7-15 16.7-11.2 0-16.5-4.5-16.5-14.2V8c0-4.5-2.4-4.5-4.6-4.5h-.4V2.1h17v1.4h-.5c-2.1 0-4.8 0-4.8 4.5v19.8c0 8.6 3.6 12.7 11 12.7 7 0 10.9-4.4 10.9-12.9V8c0-4.5-2.5-4.5-4.3-4.5h-1V2.1h13M178.3 40.6v1.5H164v-1.5h.6c4.6 0 5.2-3.5 5.2-7.6V9c0-3.8-2.2-5.5-5.3-5.5h-.5V2.1h11.2l24.4 29.8V9.2c0-5.1-3.6-5.7-5.2-5.7h-1V2.1H208v1.4h-.7c-2.5 0-5.2.6-5.2 7.6v31.2H200L172.3 9V33c0 4 .6 7.6 5.4 7.6M255 33.6L263.6 9c1.6-4.2.6-5.5-3-5.5h-.8V2.1h11.4v1.4h-.2c-1.3 0-2.7.4-3.8 3.2L254 42.3h-2.6L237 7c-1.1-3-2.5-3.5-4.9-3.5h-.3V2.1h16.5v1.4h-1c-2.9 0-3.4 1.8-2.6 4M321.7 4v17.7h3.4c6.3 0 9-2.8 9-9.3 0-5.3-3.4-8.7-8.5-8.7-1.2 0-2.8.1-3.9.3zm6.2-2c8.8 0 13.2 3.3 13.2 10 0 5.8-4.4 8.6-8 10l-.2.2 9.8 14.9c1.6 2.4 2.9 3.4 5.6 3.5v1.5h-10.2l-12-18.8h-4.4v12.5c0 4.5 2 4.8 4.9 4.8h.8v1.5H310v-1.5h.7c2 0 4.3-.8 4.3-3.3V8.2c0-4.7-2.8-4.7-4.3-4.7h-.7V2.1h17.9M369.5 34.5c0-4.9-4.2-6.8-8.1-8.8-4.6-2.4-9.9-4.9-9.9-12.2 0-7.2 5.5-11.8 13.3-11.8 3.1 0 6.8.6 8.3 1l.6 7.7-1.5.2c-.7-4-2.8-7.2-7.4-7.2-4.4 0-7.6 2.7-7.6 7.4 0 4.6 4.2 6.4 8 8.4 4.8 2.4 10.3 4.8 10.3 12.3 0 8.2-7.4 12-14.2 12-2.7 0-6.4-.6-9.5-2.3l-1-8.7 1.5-.2c1.1 5.7 4.8 9 9.6 9 4.6 0 7.6-2.8 7.6-6.8M398 2v1.5h-.6c-2.2 0-4.3.5-4.3 3.6v30c0 3.1 2 3.5 4.3 3.5h.6v1.5h-16.7v-1.5h.5c2.3 0 4.4-.4 4.4-3.5v-30c0-3.1-2-3.6-4.4-3.6h-.5V2.1H398M229.3 2v1.5h-.5c-2.3 0-4.4.5-4.4 3.6v30c0 3.1 2.1 3.5 4.4 3.5h.5v1.5h-16.7v-1.5h.6c2.3 0 4.4-.4 4.4-3.5v-30c0-3.1-2.1-3.6-4.4-3.6h-.6V2.1h16.7" fill="#241a04"/><g clip-path="url(#b)"><path d="M562.5 59.9l.1 10.6-1.7.4c-.4-4.6-1.4-8.4-8.9-8.4h-10v19.6h8.6c4.2 0 5.4-2.3 5.8-6.4h1.8v16.4h-1.8c-.2-3.9-1.1-6.9-5.7-6.9H542v17.2c0 5 4.3 5 8.8 5 8.3 0 12-.5 14.3-8.8l1.7.4-2.3 11h-37.2v-1.8h.7c2.8 0 5.5-.5 5.5-4.4V66.1c0-3.8-2.7-4.4-5.5-4.4h-.7V60h35" fill="#241a04"/></g><path d="M351.7 62.2v22.3h4.3c7.8 0 11.2-3.5 11.2-11.7 0-6.6-4.2-10.9-10.7-10.9-1.5 0-3.4.1-4.8.3zm7.7-2.3c11.1 0 16.6 4 16.6 12.5 0 7.1-5.6 10.7-10 12.5l-.3.2 12.3 18.7c2 3 3.6 4.2 7 4.4v1.9h-12.8l-15-23.6h-5.5v15.6c0 5.7 2.5 6.1 6 6.1h1v1.9H337v-1.9h1c2.5 0 5.3-1 5.3-4.2V67.5c0-5.8-3.4-5.8-5.3-5.8h-1V60h22.5M409 59.9v1.8h-.7c-2.8 0-5.5.5-5.5 4.4v37.7c0 3.9 2.7 4.4 5.5 4.4h.7v1.9h-21v-1.9h.8c2.8 0 5.5-.5 5.5-4.4V66.1c0-3.9-2.7-4.4-5.5-4.4h-.7v-1.8h21M406.7 2h26.5c1.3 0 3-.3 3.3-2h1.3l-1 10.4h-1.5c0-2.4-.4-5.9-4.3-5.9h-8v31c0 4.7 2.3 5.1 4.8 5.1h.9v1.5h-18.3v-1.5h.9c3 0 4.9-.2 4.9-5v-31H408c-4.1 0-4.5 1.7-5.3 5.8h-1.5l1-10.3h1.1c.5 1.7 2 2 3.4 2M478.7 2v1.6c-2.3 0-3.7 1.7-4.7 3.1l-10.2 15.7v12.8c0 5 1.9 5.4 4.9 5.4h.9v1.5h-18.3v-1.5h.9c3.1 0 4.9-.8 4.9-5V23.4L446 7.6c-1.8-2.4-3-4-5.7-4h-.3V2h16.5v1.4h-.5c-3.2 0-3.4 1.7-2 3.6l8.5 13.3 7.5-12c1.8-2.6 2.3-4.9-2-4.9h-.7V2.1M498.3 20.4c0 9.8 4.3 20.5 14 20.5 8.7 0 13-6.1 13-18.6 0-9.2-5-19-14-19-12 0-13 13-13 17zm-7.5 2c0-11.9 9-21.2 20.6-21.2 12.5 0 21.3 8.1 21.3 19.8 0 12.7-8.8 22-21 22a20 20 0 0 1-20.9-20.6M537.3 42v-1.4h.5c2.3 0 4.4-.4 4.4-3.5v-30c0-3.1-2-3.6-4.4-3.6h-.5V2.1h28v8.5l-1.3.3c-.3-3.4-1.1-6.7-5.9-6.7H549v15.6h8c3.3 0 3.8-2.6 3.8-4.7h1.3V28h-1.3c0-2.6-.6-5.7-4.7-5.7H549V37c0 3.5 3 3.5 5.6 3.5h.5v1.5M121.8 85c0-7.5 3-14.9 8.3-19.5a27 27 0 0 1 18.3-6.8c6.5 0 11.8 1.2 17 3.6l.6 11.6-1.7.2c-1.9-6.7-5-12.9-15.7-12.9-10.9 0-17.7 8.7-17.7 22.6 0 12.4 5.5 24.1 18.8 24.1a20 20 0 0 0 16.8-8l1.4 2.5a24 24 0 0 1-19.5 9c-16.2 0-26.6-9.5-26.6-26.5M230.1 69.6l-1.7 31c-.3 6.9 1.9 7.5 6.5 7.6h.4v1.9h-17v-1.9h.7c5.7-.2 6-3.4 6.3-8l2-31.7c.3-4.4-2.1-6.8-6.1-6.8h-.6v-1.9h14.2l17 38 16.2-38h14v1.9h-.3c-5.7 0-6.7 1.7-6.3 8.8l2 33.3c.3 4 2.3 4.3 6.2 4.4v1.8h-20.9v-1.8h.2c3.4-.2 5.8-.3 5.8-3.7v-3.6L267 68.8l-17.3 41.6h-1.6l-18.1-40.8M431.7 62.3v39.4c0 5.3 2.2 6.2 7.6 6.2 12.7 0 18.5-11 18.5-21.7 0-16.6-6.9-24.2-21-24.2-1.3 0-4 .1-5.1.3zM416.9 110v-1.9h.8c2.8 0 5.5-.5 5.5-4.4V66c0-3.9-2.7-4.4-5.5-4.4h-.8v-1.8h22.5c8.3 0 15.3 2 20.2 6.6a24.3 24.3 0 0 1 7.4 18.3c0 7-2.8 13.9-7.7 18.7a26 26 0 0 1-18.8 6.6M509.7 107.5V95.2c0-2.7-2-4.1-5.7-4.1h-.6v-1.8h19.3V91h-.6c-2.7 0-4 1.4-4 4L518 109a58.8 58.8 0 0 1-17.6 2.6c-16.6 0-27.3-10.7-27.3-27.3 0-17.7 14.1-25.8 27.4-25.8 6 0 12 1.2 16 2.5l.7 12-1.6.1c-2.1-8.6-6-12-14.6-12-11.7 0-18.8 8.6-18.8 22.4 0 12.7 6 25.3 19.3 25.3 3.1.1 6.3-.4 8.2-1.2M315.7 82.7c6.4.5 9.7 1.9 12.6 4.8 2.1 2.2 3.3 5 3.3 8.4 0 7.8-7.2 14.2-16.6 14.2h-24.6v-1.9h1c2.4 0 5.3-1.1 5.3-4.2V67.5c0-5.8-3.5-5.8-5.3-5.8h-1V60h22.3c10.4 0 16.2 3.8 16.2 11 0 7.9-7 10.8-13.2 11.8m-10.2-21V82h3.7c7 0 10.8-3.4 10.8-9.8 0-7-3.4-10.4-10-10.4zm0 22.4v17.6c0 5 1.5 6.3 6.6 6.3 6.1 0 10.7-5 10.7-11.8 0-7.8-4.7-12.1-12.5-12.1M189.2 70.1l7 19.6h-14zm1-10.2l-16 43.3c-1.2 3-3.3 5-6.4 5h-.1v1.9h15.2v-2h-.6c-3.7 0-6.2-1.1-4.6-5.9l3.6-10h15.8l4 11c1.1 3.4-.3 5-4.1 5h-.5v1.9H216v-1.9h-.2c-2.6 0-4.3-1.3-5.6-4.8L194 60M302 2v8.5l-1.3.4c-.3-3.7-1.1-6.7-7-6.7h-8v15.6h6.9c3.3 0 4.2-1.9 4.6-5h1.4v13h-1.4c-.2-3.1-1-5.5-4.6-5.5h-6.9V36c0 4 3.5 4 7.1 4 6.5 0 9.6-.4 11.4-7l1.3.3-1.8 8.8H274v-1.5h.6c2.3 0 4.4-.4 4.4-3.5V7c0-3.1-2.1-3.6-4.4-3.6h-.6V2.1h28" fill="#241a04"/></svg>