<?xml version="1.0" encoding="UTF-8" standalone="no"?>
<!-- Created with Inkscape (http://www.inkscape.org/) -->
<svg
   xmlns:dc="http://purl.org/dc/elements/1.1/"
   xmlns:cc="http://creativecommons.org/ns#"
   xmlns:rdf="http://www.w3.org/1999/02/22-rdf-syntax-ns#"
   xmlns:svg="http://www.w3.org/2000/svg"
   xmlns="http://www.w3.org/2000/svg"
   xmlns:sodipodi="http://sodipodi.sourceforge.net/DTD/sodipodi-0.dtd"
   xmlns:inkscape="http://www.inkscape.org/namespaces/inkscape"
   width="239"
   height="77"
   id="svg2"
   sodipodi:version="0.32"
   inkscape:version="0.46"
   version="1.0"
   sodipodi:docname="bsnes-logo-clean.svg"
   inkscape:output_extension="org.inkscape.output.svg.inkscape"
   style="display:inline">
  <defs
     id="defs4">
    <inkscape:perspective
       sodipodi:type="inkscape:persp3d"
       inkscape:vp_x="0 : 526.18109 : 1"
       inkscape:vp_y="0 : 1000 : 0"
       inkscape:vp_z="744.09448 : 526.18109 : 1"
       inkscape:persp3d-origin="372.04724 : 350.78739 : 1"
       id="perspective10" />
    <inkscape:perspective
       id="perspective2484"
       inkscape:persp3d-origin="372.04724 : 350.78739 : 1"
       inkscape:vp_z="744.09448 : 526.18109 : 1"
       inkscape:vp_y="0 : 1000 : 0"
       inkscape:vp_x="0 : 526.18109 : 1"
       sodipodi:type="inkscape:persp3d" />
  </defs>
  <sodipodi:namedview
     id="base"
     pagecolor="#ffffff"
     bordercolor="#666666"
     borderopacity="1.0"
     gridtolerance="10000"
     guidetolerance="10"
     objecttolerance="10"
     inkscape:pageopacity="0.0"
     inkscape:pageshadow="2"
     inkscape:zoom="4.1658537"
     inkscape:cx="110"
     inkscape:cy="33.255269"
     inkscape:document-units="px"
     inkscape:current-layer="layer1"
     showgrid="false"
     inkscape:window-width="1597"
     inkscape:window-height="1155"
     inkscape:window-x="0"
     inkscape:window-y="24" />
  <metadata
     id="metadata7">
    <rdf:RDF>
      <cc:Work
         rdf:about="">
        <dc:format>image/svg+xml</dc:format>
        <dc:type
           rdf:resource="http://purl.org/dc/dcmitype/StillImage" />
      </cc:Work>
    </rdf:RDF>
  </metadata>
  <g
     inkscape:label="Layer 1"
     inkscape:groupmode="layer"
     id="layer1"
     transform="translate(-140.50003,-316.71927)">
    <path
       transform="matrix(1.0546193,0,-0.225103,0.9482095,0,0)"
       style="font-size:73.42658234px;font-style:normal;font-variant:normal;font-weight:normal;font-stretch:normal;text-align:start;line-height:125%;writing-mode:lr-tb;text-anchor:start;fill:#ff0000;fill-opacity:1;stroke:none;stroke-width:1px;stroke-linecap:butt;stroke-linejoin:miter;stroke-opacity:1;font-family:BureauAgencyBold;-inkscape-font-specification:BureauAgencyBold"
       d="M 339.09422,385.27394 C 339.09419,388.50472 338.1886,390.90332 336.37743,392.46975 C 334.61518,394.03618 332.16763,394.8194 329.03478,394.8194 L 319.04876,394.8194 L 319.04876,338.72149 L 326.09771,338.72149 L 326.09771,360.67604 L 332.48582,359.50121 C 334.93336,359.50125 336.64664,360.08866 337.62569,361.26345 C 338.60468,362.43831 339.09419,363.80893 339.09422,365.37534 L 339.09422,385.27394 M 332.11869,366.1096 L 326.02429,366.1096 L 326.02429,389.0187 L 328.08023,389.0187 C 329.74455,389.0187 330.82147,388.62709 331.311,387.84387 C 331.84945,387.01171 332.11868,385.95926 332.11869,384.68653 L 332.11869,366.1096 M 351.02374,369.4138 L 361.23004,379.03268 C 361.96428,379.66906 362.42932,380.3299 362.62514,381.0152 C 362.86988,381.70053 362.99225,382.38584 362.99227,383.07114 L 362.99227,390.4138 C 362.99225,391.58863 362.72302,392.6166 362.18458,393.49772 C 361.6461,394.37884 360.59365,394.8194 359.02724,394.8194 L 348.23353,394.8194 C 346.66709,394.8194 345.61465,394.37884 345.07619,393.49772 C 344.53772,392.56765 344.26849,391.53968 344.2685,390.4138 L 344.2685,383.65856 L 351.24402,383.65856 L 351.24402,389.0187 L 356.01675,389.0187 L 356.01675,384.24597 L 345.14962,373.89282 C 344.758,373.55018 344.4643,373.06067 344.2685,372.42429 C 344.12164,371.78795 344.04821,371.17606 344.04822,370.58862 L 344.04822,364.34737 C 344.04821,363.22152 344.29297,362.21803 344.78248,361.33688 C 345.32094,360.40684 346.39786,359.94181 348.01325,359.94177 L 358.88039,359.94177 C 360.4468,359.94181 361.52372,360.40684 362.11116,361.33688 C 362.69855,362.21803 362.99225,363.22152 362.99227,364.34737 L 362.99227,370.88233 L 356.01675,370.88233 L 356.01675,365.74247 L 351.02374,365.74247 L 351.02374,369.4138 M 380.87853,366.1096 L 374.78413,366.1096 L 374.78413,394.8194 L 367.8086,394.8194 L 367.8086,359.94177 L 374.78413,359.94177 L 374.78413,360.67604 L 382.93448,359.50121 C 383.96243,359.50125 384.7946,359.62362 385.43098,359.86834 C 386.06732,360.11313 386.55683,360.45579 386.89951,360.89632 C 387.2911,361.28796 387.53585,361.75299 387.63378,362.29142 C 387.78061,362.82991 387.85404,363.39285 387.85406,363.98023 L 387.85406,394.8194 L 380.87853,394.8194 L 380.87853,366.1096 M 400.74157,389.0187 L 406.17514,389.0187 L 406.17514,383.43828 L 413.15066,383.43828 L 413.15066,390.4138 C 413.15064,391.63758 412.85693,392.69003 412.26954,393.57115 C 411.68211,394.45226 410.50729,394.86835 408.74507,394.8194 C 407.52127,394.77045 406.1017,394.77045 404.48633,394.8194 C 402.91988,394.8194 400.81499,394.8194 398.17164,394.8194 C 396.4094,394.8194 395.23457,394.37884 394.64716,393.49772 C 394.05975,392.6166 393.76604,391.58863 393.76605,390.4138 L 393.76605,364.34737 C 393.76604,363.17257 394.05975,362.1446 394.64716,361.26345 C 395.23457,360.38236 396.4094,359.94181 398.17164,359.94177 L 408.74507,359.94177 C 410.50729,359.94181 411.68211,360.38236 412.26954,361.26345 C 412.85693,362.1446 413.15064,363.17257 413.15066,364.34737 L 413.15066,377.19702 L 411.53528,378.8124 L 400.74157,378.8124 L 400.74157,389.0187 M 400.74157,373.30541 L 406.17514,373.30541 L 406.17514,365.74247 L 400.74157,365.74247 L 400.74157,373.30541 M 424.45032,369.4138 L 434.65662,379.03268 C 435.39086,379.66906 435.8559,380.3299 436.05172,381.0152 C 436.29646,381.70053 436.41883,382.38584 436.41886,383.07114 L 436.41886,390.4138 C 436.41883,391.58863 436.1496,392.6166 435.61116,393.49772 C 435.07268,394.37884 434.02023,394.8194 432.45382,394.8194 L 421.66011,394.8194 C 420.09367,394.8194 419.04123,394.37884 418.50277,393.49772 C 417.9643,392.56765 417.69507,391.53968 417.69508,390.4138 L 417.69508,383.65856 L 424.6706,383.65856 L 424.6706,389.0187 L 429.44333,389.0187 L 429.44333,384.24597 L 418.5762,373.89282 C 418.18458,373.55018 417.89088,373.06067 417.69508,372.42429 C 417.54822,371.78795 417.47479,371.17606 417.4748,370.58862 L 417.4748,364.34737 C 417.47479,363.22152 417.71955,362.21803 418.20906,361.33688 C 418.74752,360.40684 419.82444,359.94181 421.43983,359.94177 L 432.30697,359.94177 C 433.87338,359.94181 434.9503,360.40684 435.53774,361.33688 C 436.12513,362.21803 436.41883,363.22152 436.41886,364.34737 L 436.41886,370.88233 L 429.44333,370.88233 L 429.44333,365.74247 L 424.45032,365.74247 L 424.45032,369.4138"
       id="text2490" />
    <rect
       style="opacity:1;fill:#ff0000;fill-opacity:1;stroke:none;stroke-width:2;stroke-linecap:round;stroke-linejoin:miter;stroke-miterlimit:4;stroke-dasharray:none"
       id="rect2498"
       width="130.82552"
       height="12.002343"
       x="247.56091"
       y="381.71692"
       ry="2.5819674"
       rx="2.241034" />
    <path
       style="font-size:11.0656147px;font-style:oblique;font-variant:normal;font-weight:bold;font-stretch:condensed;text-align:start;line-height:125%;writing-mode:lr-tb;text-anchor:start;fill:#ffffff;fill-opacity:1;stroke:none;stroke-width:1px;stroke-linecap:butt;stroke-linejoin:miter;stroke-opacity:1;font-family:Helvetica Neue LT Std;-inkscape-font-specification:Helvetica Neue LT Std Bold Oblique Condensed"
       d="M 256.32415,383.99158 L 254.64218,391.89243 L 259.16801,391.89243 L 259.44466,390.58668 L 256.51227,390.58668 L 256.96596,388.46208 L 259.62171,388.46208 L 259.89835,387.15634 L 257.2426,387.15634 L 257.64096,385.29732 L 260.46269,385.29732 L 260.73933,383.99158 L 256.32415,383.99158 M 270.07402,391.89243 L 271.53468,391.89243 L 272.87362,385.58503 L 272.89576,385.58503 L 272.96215,391.89243 L 274.2015,391.89243 L 276.94577,385.58503 L 276.9679,385.58503 L 275.62896,391.89243 L 277.08962,391.89243 L 278.7716,383.99158 L 276.41462,383.99158 L 274.09084,389.56865 L 274.06871,389.56865 L 274.12404,383.99158 L 271.756,383.99158 L 270.07402,391.89243 M 289.65627,383.99158 L 288.48332,389.50225 C 288.02963,391.61578 289.16939,392.04734 290.46406,392.04734 C 291.75874,392.04734 293.09768,391.51619 293.52924,389.50225 L 294.70219,383.99158 L 293.10875,383.99158 L 291.93579,389.50225 C 291.76981,390.28791 291.45997,390.87439 290.71857,390.87439 C 289.97718,390.87439 289.91078,390.28791 290.07677,389.50225 L 291.24972,383.99158 L 289.65627,383.99158 M 308.27443,391.89243 L 308.55107,390.58668 L 305.72934,390.58668 L 307.13468,383.99158 L 305.54123,383.99158 L 303.85925,391.89243 L 308.27443,391.89243 M 317.78997,391.89243 L 319.44981,391.89243 L 320.16907,390.22152 L 322.27154,390.22152 L 322.28261,391.89243 L 323.94245,391.89243 L 323.53302,383.99158 L 321.56334,383.99158 L 317.78997,391.89243 M 322.23834,385.36371 L 322.26047,385.36371 L 322.27154,388.91578 L 320.72235,388.91578 L 322.23834,385.36371 M 334.88607,383.99158 L 334.60942,385.29732 L 336.33566,385.29732 L 334.93033,391.89243 L 336.52378,391.89243 L 337.92911,385.29732 L 339.65535,385.29732 L 339.93199,383.99158 L 334.88607,383.99158 M 348.97811,387.942 C 348.46909,390.34324 348.4027,392.04734 350.79287,392.04734 C 353.18304,392.04734 353.84698,390.34324 354.356,387.942 C 354.86501,385.54077 354.93141,383.83666 352.54124,383.83666 C 350.15107,383.83666 349.48713,385.54077 348.97811,387.942 M 350.57156,387.942 C 351.01418,385.82847 351.34615,385.00961 352.28673,385.00961 C 353.2273,385.00961 353.20517,385.82847 352.76255,387.942 C 352.30886,390.0666 351.98795,390.87439 351.04738,390.87439 C 350.1068,390.87439 350.11787,390.0666 350.57156,387.942 M 367.3255,385.16453 L 368.07796,385.16453 C 368.79722,385.16453 369.10706,385.5297 368.95214,386.26003 C 368.77509,387.11208 368.26607,387.44405 367.50255,387.44405 L 366.83861,387.44405 L 367.3255,385.16453 M 364.30459,391.89243 L 365.89803,391.89243 L 366.60623,388.55061 L 367.45829,388.55061 C 368.10009,388.55061 368.29927,388.92684 368.18862,389.54652 L 367.91198,391.0625 C 367.85665,391.37234 367.82345,391.67111 367.93411,391.89243 L 369.66034,391.89243 L 369.67141,391.82603 C 369.40583,391.67111 369.46116,391.23955 369.61608,390.40963 C 369.95911,388.73873 369.91485,388.14118 368.86362,387.99733 L 368.86362,387.9752 C 369.80419,387.78708 370.36854,387.07888 370.60092,386.02765 C 370.88863,384.67765 370.23575,383.99158 368.93001,383.99158 L 365.98656,383.99158 L 364.30459,391.89243"
       id="text2494" />
    <path
       sodipodi:type="arc"
       style="opacity:1;fill:#00cd00;fill-opacity:1;stroke:none;stroke-width:2;stroke-linecap:round;stroke-linejoin:miter;stroke-miterlimit:4;stroke-dasharray:none"
       id="path3270"
       sodipodi:cx="10.442038"
       sodipodi:cy="37.752342"
       sodipodi:rx="10.682084"
       sodipodi:ry="5.1610069"
       d="M 21.124122,37.752342 A 10.682084,5.1610069 0 1 1 -0.2400465,37.752342 A 10.682084,5.1610069 0 1 1 21.124122,37.752342 z"
       transform="matrix(2.0449438,0,0,2.0930233,140.51083,281.09618)" />
    <path
       transform="matrix(2.0449438,0,0,2.0930233,178.43823,298.6196)"
       d="M 21.124122,37.752342 A 10.682084,5.1610069 0 1 1 -0.2400465,37.752342 A 10.682084,5.1610069 0 1 1 21.124122,37.752342 z"
       sodipodi:ry="5.1610069"
       sodipodi:rx="10.682084"
       sodipodi:cy="37.752342"
       sodipodi:cx="10.442038"
       id="path3272"
       style="opacity:1;fill:#ffff00;fill-opacity:1;stroke:none;stroke-width:2;stroke-linecap:round;stroke-linejoin:miter;stroke-miterlimit:4;stroke-dasharray:none"
       sodipodi:type="arc" />
    <path
       style="opacity:1;fill:#16a1ff;fill-opacity:1;stroke:none;stroke-width:2;stroke-linecap:round;stroke-linejoin:miter;stroke-miterlimit:4;stroke-dasharray:none"
       d="M 44.0625,-0.0625 C 33.416835,-0.0625 24.671553,8.0281716 23.84375,18.28125 C 24.495078,18.219146 25.144675,18.1875 25.8125,18.1875 C 37.004569,18.187501 46.09375,27.127013 46.09375,38.125 C 46.09375,38.656494 46.041641,39.166458 46,39.6875 C 56.278771,38.722692 64.343748,30.226929 64.34375,19.875 C 64.34375,8.8770134 55.254566,-0.062499999 44.0625,-0.0625 z"
       transform="translate(140.50003,316.71927)"
       id="path3276" />
    <path
       id="path3281"
       d="M 222.72998,334.42024 C 212.08431,334.42024 203.33903,342.51091 202.51123,352.76399 C 203.16256,352.70188 203.81215,352.67024 204.47998,352.67024 C 215.67205,352.67024 224.76123,361.60975 224.76123,372.60774 C 224.76123,373.13923 224.70912,373.6492 224.66748,374.17024 C 234.94625,373.20543 243.01123,364.70967 243.01123,354.35774 C 243.01123,343.35975 233.92204,334.42024 222.72998,334.42024 z"
       style="opacity:1;fill:#ff3f3f;fill-opacity:1;stroke:none;stroke-width:2;stroke-linecap:round;stroke-linejoin:miter;stroke-miterlimit:4;stroke-dasharray:none" />
  </g>
</svg>
