<svg height="79" viewBox="0 0 261 79" width="261" xmlns="http://www.w3.org/2000/svg"><path d="m32 47.702c3.426 10.779 10.518 17.454 21.803 19.087 4.253.616 9.435.502 15.237-4.062-3.09 6.727-6.413 12.819-13.718 15.172-4.654 1.5-8.973.21-12.954-2.331-6.168-3.937-10.12-9.692-12.857-16.344-2.913-7.078-3.846-14.39-1.816-21.877.612-2.257 1.658-4.394 2.506-6.586l.424.168c-.315 5.656-.366 11.296 1.375 16.773zm-24.225 6.115c-.351 1.992-.282 4.12-.043 6.143.43 3.63 2.28 6.404 5.705 7.984-3.545 2.011-9.124-.251-10.424-4.196-1.052-3.193-.702-6.418.097-9.557 2.323-9.127 6.685-17.152 13.297-23.88 1.896-1.929 4.06-3.505 6.897-4.506-8.764 7.535-13.583 16.997-15.529 28.012zm64.155-48.726c2.837 1.284 3.328 3.605 1.399 6.073-1.848 2.364-4.304 3.962-6.933 5.293-4.593 2.325-9.37 4.025-14.599 4.027-.72 0-1.44-.098-2.157-.18-.23-.026-.448-.147-.923-.31 2.086-.497 3.943-.886 5.77-1.385 3.97-1.085 7.805-2.492 10.974-5.256a11.877 11.877 0 0 0 1.934-2.127c1.967-2.824 1.668-5.161-.9-7.704l.142-.286c1.769.608 3.596 1.087 5.293 1.855zm-59.998 11.339c.838-1.419 2.999-3.183 5.48-4.307 3.461-1.57 7.02-2.295 10.694-.714 1.206.52 2.098 1.382 2.501 2.95-6.92-4.485-12.793-1.357-18.675 2.07zm26.18-5.579c.06-3.847-2.211-5.998-6.057-5.697-1.149.09-2.291.266-3.46.406 1.83-2.481 6.31-2.886 8.844-.877 2.561 2.033 2.783 5.827.672 7.638 0-.607-.006-1.038 0-1.47zm50.985 17.303c1.657 4.294.48 7.961-3.414 10.439-2.589 1.646-5.47 2.536-8.46 2.978-9.479 1.402-18.664.416-27.348-3.845-3.363-1.65-6.283-3.897-8.108-7.314-.216-.405-.385-.835-.71-1.547 1.972.892 3.623 1.683 5.307 2.393 5.8 2.442 11.755 4.316 18.08 4.731 5.443.357 10.718-.238 15.296-3.521 3.26-2.338 5.221-5.456 4.629-9.71-.098-.702-.337-1.386-.584-2.374 2.28 2.493 4.187 4.854 5.312 7.77zm-89.097 9.578c1.378-9.987 15.493-20.665 23.917-18.04-11.187 1.838-18.49 8.551-23.917 18.041zm50.674-37.674c2.263.197 3.694 2.06 3.36 4.456-.595 4.263-3.012 7.247-6.884 9.136.233-.275.482-.538.695-.829.95-1.293 2.044-2.51 2.804-3.908 1.792-3.298.585-6.44-2.882-7.897-.39-.163-.791-.301-1.187-.451l.042-.528c1.351 0 2.71-.096 4.052.021zm56.326 32.96c0-3.25.574-5.752 1.723-7.508 1.148-1.755 2.74-2.633 4.776-2.633s3.628.878 4.777 2.633c1.148 1.756 1.722 4.258 1.722 7.508s-.574 5.752-1.722 7.508c-1.149 1.755-2.741 2.633-4.777 2.633-2.035 0-3.628-.878-4.776-2.633-1.149-1.756-1.723-4.258-1.723-7.508zm10.253 0c0-1.065-.06-2.073-.182-3.026-.121-.952-.327-1.783-.616-2.493-.29-.71-.677-1.274-1.163-1.695-.485-.42-1.083-.63-1.793-.63s-1.307.21-1.793.63c-.485.42-.873.986-1.162 1.695-.29.71-.495 1.541-.617 2.493a23.95 23.95 0 0 0 -.182 3.026c0 1.065.061 2.073.182 3.025.122.953.327 1.784.617 2.494s.677 1.274 1.162 1.695c.486.42 1.084.63 1.793.63.71 0 1.308-.21 1.793-.63.486-.42.873-.986 1.163-1.695.29-.71.495-1.541.616-2.494a23.95 23.95 0 0 0 .182-3.025zm5.247 0c0-3.25.574-5.752 1.723-7.508 1.148-1.755 2.74-2.633 4.776-2.633s3.628.878 4.776 2.633c1.149 1.756 1.723 4.258 1.723 7.508s-.574 5.752-1.723 7.508c-1.148 1.755-2.74 2.633-4.776 2.633s-3.628-.878-4.776-2.633c-1.149-1.756-1.723-4.258-1.723-7.508zm10.253 0c0-1.065-.06-2.073-.182-3.026-.122-.952-.327-1.783-.617-2.493s-.677-1.274-1.162-1.695c-.486-.42-1.083-.63-1.793-.63s-1.307.21-1.793.63-.873.986-1.163 1.695c-.289.71-.494 1.541-.616 2.493a23.95 23.95 0 0 0 -.182 3.026c0 1.065.06 2.073.182 3.025.122.953.327 1.784.616 2.494.29.71.677 1.274 1.163 1.695.486.42 1.083.63 1.793.63s1.307-.21 1.793-.63c.485-.42.873-.986 1.162-1.695.29-.71.495-1.541.617-2.494a23.95 23.95 0 0 0 .182-3.025zm5.246 0c0-3.25.575-5.752 1.723-7.508 1.149-1.755 2.74-2.633 4.777-2.633 2.035 0 3.627.878 4.776 2.633 1.149 1.756 1.723 4.258 1.723 7.508s-.574 5.752-1.723 7.508c-1.149 1.755-2.74 2.633-4.776 2.633s-3.628-.878-4.777-2.633c-1.148-1.756-1.723-4.258-1.723-7.508zm10.253 0c0-1.065-.06-2.073-.182-3.026-.121-.952-.326-1.783-.616-2.493s-.677-1.274-1.162-1.695c-.486-.42-1.084-.63-1.793-.63-.71 0-1.308.21-1.793.63-.486.42-.873.986-1.163 1.695-.29.71-.495 1.541-.616 2.493a23.95 23.95 0 0 0 -.182 3.026c0 1.065.06 2.073.182 3.025.121.953.327 1.784.616 2.494.29.71.677 1.274 1.163 1.695.485.42 1.083.63 1.793.63s1.307-.21 1.793-.63c.485-.42.873-.986 1.162-1.695.29-.71.495-1.541.616-2.494a23.95 23.95 0 0 0 .182-3.025zm17.993 9.72a116.04 116.04 0 0 1 -1.666-4.607 76.24 76.24 0 0 1 -1.611-5.393 81.547 81.547 0 0 1 -1.597 5.393 104.076 104.076 0 0 1 -1.653 4.608h-2.269c-.859-1.924-1.7-4.118-2.521-6.583a115.566 115.566 0 0 1 -2.325-7.984h2.801c.187.877.41 1.83.672 2.857a125.4 125.4 0 0 0 .827 3.082c.29 1.027.593 2.017.91 2.969.318.952.617 1.784.897 2.493.317-.878.63-1.807.938-2.787s.602-1.97.883-2.97c.28-.999.546-1.98.798-2.941a74.09 74.09 0 0 0 .658-2.703h2.157c.168.84.374 1.741.617 2.703.242.962.504 1.942.784 2.941.28 1 .574 1.99.883 2.97.308.98.62 1.91.938 2.787.28-.71.574-1.54.882-2.493.309-.952.612-1.942.91-2.97.3-1.027.58-2.054.841-3.081.262-1.027.486-1.98.673-2.857h2.689a115.566 115.566 0 0 1 -2.325 7.984c-.822 2.465-1.662 4.66-2.521 6.583h-2.27zm8.749-7.255c0-1.288.187-2.414.56-3.375.374-.962.868-1.76 1.485-2.396a6.028 6.028 0 0 1 2.129-1.428 6.65 6.65 0 0 1 2.465-.477c1.961 0 3.464.612 4.51 1.835 1.046 1.224 1.57 3.086 1.57 5.59v.433c0 .178-.01.341-.029.49h-9.973c.112 1.513.551 2.662 1.317 3.446.765.785 1.96 1.177 3.586 1.177.915 0 1.685-.08 2.31-.238.626-.159 1.098-.313 1.415-.463l.365 2.186c-.318.168-.874.345-1.667.532-.794.187-1.695.28-2.704.28-1.27 0-2.367-.191-3.291-.574-.925-.383-1.686-.91-2.283-1.583a6.458 6.458 0 0 1 -1.331-2.395c-.29-.925-.434-1.938-.434-3.04zm10-1.429c.02-1.176-.275-2.143-.882-2.899s-1.442-1.135-2.507-1.135c-.598 0-1.125.117-1.583.35a3.733 3.733 0 0 0 -1.162.911 4.19 4.19 0 0 0 -.743 1.289c-.177.485-.294.98-.35 1.484h7.228zm8.777-5.238c.318-.206.798-.42 1.443-.644.644-.225 1.387-.337 2.227-.337 1.046 0 1.975.187 2.787.56a5.793 5.793 0 0 1 2.06 1.57c.56.672.984 1.475 1.274 2.409.29.933.434 1.96.434 3.081 0 1.177-.173 2.237-.518 3.18-.346.943-.836 1.741-1.47 2.395a6.483 6.483 0 0 1 -2.298 1.513c-.896.355-1.905.532-3.025.532-1.214 0-2.288-.084-3.222-.252s-1.7-.336-2.297-.504v-20.87l2.604-.449v7.816zm0 11.654c.262.074.63.144 1.107.21.476.065 1.069.098 1.779.098 1.4 0 2.52-.462 3.361-1.387.84-.924 1.26-2.236 1.26-3.936 0-.747-.074-1.447-.223-2.1-.15-.655-.392-1.22-.729-1.696a3.523 3.523 0 0 0 -1.302-1.12c-.533-.271-1.172-.406-1.92-.406-.709 0-1.363.12-1.96.364-.598.243-1.055.495-1.373.756zm13.595 2.269v-21.29l2.604-.449v7.452a8.831 8.831 0 0 1 1.555-.435 8.926 8.926 0 0 1 1.639-.154c1.158 0 2.12.164 2.885.49.766.327 1.378.785 1.835 1.373.458.589.78 1.294.967 2.115.186.822.28 1.728.28 2.718v8.18h-2.606v-7.62c0-.896-.06-1.662-.182-2.297-.121-.635-.322-1.149-.602-1.54a2.383 2.383 0 0 0 -1.12-.855c-.467-.178-1.046-.266-1.737-.266-.28 0-.57.018-.869.056-.299.037-.583.079-.854.126a8.89 8.89 0 0 0 -.729.154 4.33 4.33 0 0 0 -.462.14v12.102h-2.605zm28.554-7.284c0 1.158-.168 2.204-.504 3.138s-.808 1.737-1.415 2.409a6.223 6.223 0 0 1 -2.171 1.555 6.83 6.83 0 0 1 -2.745.546 6.83 6.83 0 0 1 -2.746-.546 6.223 6.223 0 0 1 -2.17-1.555c-.608-.672-1.08-1.475-1.416-2.41-.336-.933-.504-1.979-.504-3.137 0-1.14.168-2.18.504-3.123.337-.944.808-1.751 1.415-2.424a6.223 6.223 0 0 1 2.171-1.554 6.83 6.83 0 0 1 2.746-.547c.99 0 1.905.182 2.745.547.84.364 1.564.882 2.171 1.554.607.673 1.079 1.48 1.415 2.424.336.943.504 1.984.504 3.123zm-2.717 0c0-1.643-.37-2.946-1.107-3.908-.738-.962-1.741-1.442-3.011-1.442s-2.274.48-3.012 1.442-1.106 2.265-1.106 3.908c0 1.644.368 2.946 1.106 3.908s1.742 1.443 3.012 1.443 2.273-.481 3.011-1.443 1.107-2.264 1.107-3.908zm9.476 5.407c1.065 0 1.854-.14 2.368-.42.513-.28.77-.729.77-1.345 0-.635-.252-1.14-.756-1.513-.505-.373-1.336-.793-2.494-1.26a37.994 37.994 0 0 1 -1.61-.687 5.65 5.65 0 0 1 -1.331-.826 3.607 3.607 0 0 1 -.897-1.149c-.224-.448-.336-.999-.336-1.653 0-1.288.476-2.31 1.429-3.067.952-.756 2.25-1.135 3.894-1.135.41 0 .822.024 1.233.07.41.047.793.103 1.148.168.355.066.668.136.939.21.27.075.48.14.63.197l-.476 2.24c-.28-.149-.72-.303-1.317-.461-.598-.16-1.317-.239-2.157-.239-.728 0-1.363.145-1.905.435s-.812.742-.812 1.358c0 .318.06.598.182.84.121.244.308.463.56.66.252.195.565.377.938.545.374.168.822.346 1.345.533.691.261 1.307.518 1.849.77a5.788 5.788 0 0 1 1.387.882c.383.337.677.743.882 1.22.206.475.308 1.059.308 1.75 0 1.345-.5 2.362-1.498 3.053-1 .691-2.424 1.037-4.273 1.037-1.288 0-2.297-.107-3.025-.322s-1.223-.378-1.485-.49l.476-2.242c.3.113.775.28 1.43.505.653.224 1.521.336 2.604.336zm11.242-12.69h5.519v2.185h-5.519v6.723c0 .728.056 1.33.168 1.807.112.476.28.85.504 1.12.224.271.505.463.84.575.337.112.73.168 1.177.168.785 0 1.415-.089 1.891-.266.476-.178.808-.304.995-.379l.504 2.158c-.261.13-.719.294-1.373.49-.653.196-1.4.294-2.24.294-.99 0-1.808-.126-2.452-.378s-1.163-.63-1.555-1.135c-.392-.504-.667-1.125-.826-1.863-.159-.737-.238-1.592-.238-2.563v-12.998l2.605-.449v4.51zm-143.671 22.917c1.119 0 1.977.2 2.576.603.599.402.898 1.06.898 1.975 0 .922-.303 1.587-.909 1.997s-1.471.614-2.597.614h-.53v2.567h-1.688v-7.557a9.35 9.35 0 0 1 1.169-.155c.41-.03.771-.044 1.082-.044zm.109 1.471a5.86 5.86 0 0 0 -.363.011 13.63 13.63 0 0 0 -.308.022v2.213h.53c.585 0 1.025-.08 1.32-.243.296-.162.444-.465.444-.907 0-.214-.038-.391-.114-.532a.874.874 0 0 0 -.324-.337 1.44 1.44 0 0 0 -.514-.177 4.153 4.153 0 0 0 -.671-.05zm7.01 2.446c0 .376.045.715.135 1.018.09.302.22.562.39.78.17.217.376.385.622.503.245.118.526.177.844.177.31 0 .59-.059.838-.177.25-.118.458-.286.628-.503.17-.218.3-.478.39-.78.09-.303.135-.642.135-1.018 0-.377-.045-.718-.136-1.024a2.339 2.339 0 0 0 -.39-.786 1.718 1.718 0 0 0 -.627-.503 1.933 1.933 0 0 0 -.838-.177c-.318 0-.599.06-.844.182a1.786 1.786 0 0 0 -.622.51c-.17.217-.3.479-.39.785s-.135.644-.135 1.013zm5.724 0c0 .656-.096 1.233-.287 1.731a3.57 3.57 0 0 1 -.784 1.25 3.212 3.212 0 0 1 -1.185.759c-.458.17-.95.254-1.477.254-.512 0-.996-.085-1.45-.254a3.324 3.324 0 0 1 -1.19-.758 3.552 3.552 0 0 1 -.801-1.25c-.195-.499-.292-1.076-.292-1.732 0-.657.1-1.234.303-1.732.202-.498.474-.917.817-1.256a3.35 3.35 0 0 1 1.19-.764c.45-.17.925-.254 1.423-.254.512 0 .995.085 1.45.254.454.17.85.425 1.19.764.339.34.606.758.8 1.256.195.498.293 1.075.293 1.732zm7.313-3.01c.086.302.182.643.286 1.023.105.38.217.773.336 1.179s.24.811.362 1.217c.123.406.242.782.357 1.129.094-.377.19-.786.287-1.229.098-.442.19-.9.276-1.372.087-.472.171-.942.254-1.41.083-.469.16-.92.233-1.356h1.753a81.012 81.012 0 0 1 -.871 3.906 57.742 57.742 0 0 1 -1.066 3.762h-1.547a51.511 51.511 0 0 1 -.736-2.23c-.238-.778-.473-1.558-.703-2.34l-.693 2.34c-.23.779-.472 1.522-.725 2.23h-1.547a57.742 57.742 0 0 1 -1.066-3.762 81.012 81.012 0 0 1 -.871-3.906h1.829c.072.435.151.887.238 1.356.086.468.176.938.27 1.41s.19.93.287 1.372c.097.443.196.852.297 1.229.13-.362.256-.745.38-1.151.122-.406.24-.812.356-1.217.116-.406.222-.797.32-1.173.097-.376.185-.712.265-1.007zm6.209 6.85v-7.669h5.064v1.45h-3.376v1.504h2.997v1.417h-2.997v1.848h3.625v1.45zm9.736-7.757c1.126 0 1.988.204 2.587.614.598.409.898 1.045.898 1.908 0 .539-.121.976-.363 1.312-.242.335-.59.599-1.044.79.151.192.31.412.476.66.166.246.33.504.492.774.163.269.32.55.471.84.152.292.292.578.422.858h-1.893c-.138-.25-.276-.505-.417-.763a18.456 18.456 0 0 0 -.871-1.444 7.482 7.482 0 0 0 -.433-.592h-.833v2.8h-1.688v-7.558a9.37 9.37 0 0 1 1.141-.155c.394-.03.745-.044 1.055-.044zm.098 1.471a4.41 4.41 0 0 0 -.33.011 29.5 29.5 0 0 0 -.276.022v2.08h.476c.635 0 1.09-.08 1.363-.243.274-.162.412-.439.412-.83 0-.376-.14-.643-.417-.802-.278-.159-.687-.238-1.228-.238zm5.906 6.285v-7.668h5.064v1.45h-3.376v1.504h2.997v1.417h-2.997v1.848h3.625v1.45h-5.313zm9.228-1.405c.08.007.171.013.276.016.105.004.229.006.373.006.844 0 1.47-.218 1.878-.653.407-.435.611-1.036.611-1.803 0-.805-.195-1.413-.584-1.826-.39-.413-1.007-.62-1.85-.62-.116 0-.235.002-.358.006a3.302 3.302 0 0 0 -.346.027zm4.88-2.434c0 .663-.1 1.242-.303 1.737a3.216 3.216 0 0 1 -.86 1.228 3.643 3.643 0 0 1 -1.358.73 6.166 6.166 0 0 1 -1.796.244c-.303 0-.657-.013-1.06-.04-.405-.025-.801-.078-1.19-.16v-7.468c.389-.074.794-.124 1.216-.15a18.18 18.18 0 0 1 1.088-.038 6.43 6.43 0 0 1 1.747.22c.523.148.972.38 1.348.698.375.317.663.723.865 1.217s.303 1.088.303 1.782zm8.469 3.939c-.411 0-.82-.013-1.228-.04a8.5 8.5 0 0 1 -1.272-.182v-7.435a10.57 10.57 0 0 1 1.137-.15c.41-.033.793-.05 1.147-.05.476 0 .914.036 1.314.106s.745.19 1.034.36c.288.169.514.392.676.669.162.276.243.617.243 1.023 0 .612-.288 1.096-.865 1.45.476.184.8.435.974.752.173.317.26.675.26 1.073 0 .804-.287 1.41-.861 1.815-.573.406-1.426.609-2.559.609zm-.855-3.442v1.981c.123.015.256.026.4.033.145.008.303.011.477.011.505 0 .912-.073 1.222-.22.31-.148.466-.421.466-.82 0-.354-.13-.606-.39-.758-.26-.15-.631-.227-1.114-.227h-1.06zm0-1.316h.823c.519 0 .89-.069 1.114-.205s.335-.356.335-.658c0-.31-.115-.528-.346-.653-.23-.126-.57-.188-1.017-.188-.144 0-.3.002-.465.005a4.941 4.941 0 0 0 -.444.028v1.67zm8.99.144c.303-.524.592-1.048.866-1.572a24.3 24.3 0 0 0 .757-1.582h1.861a49.586 49.586 0 0 1 -1.276 2.401c-.44.775-.906 1.553-1.396 2.335v2.932h-1.688v-2.91a61.83 61.83 0 0 1 -1.402-2.346 50.324 50.324 0 0 1 -1.282-2.412h1.959c.23.531.48 1.059.746 1.582.267.524.552 1.048.855 1.572zm13.49-3.154h1.688v7.668h-1.688v-3.253h-2.835v3.253h-1.688v-7.668h1.688v2.932h2.835zm5.82 3.829c0 .376.044.715.135 1.018.09.302.22.562.39.78.169.217.376.385.621.503.246.118.527.177.844.177.31 0 .59-.059.839-.177s.458-.286.628-.503c.169-.218.299-.478.389-.78.09-.303.135-.642.135-1.018 0-.377-.045-.718-.135-1.024a2.339 2.339 0 0 0 -.39-.786 1.718 1.718 0 0 0 -.627-.503 1.933 1.933 0 0 0 -.839-.177c-.317 0-.598.06-.844.182a1.786 1.786 0 0 0 -.622.51c-.17.217-.3.479-.39.785s-.135.644-.135 1.013zm5.723 0c0 .656-.095 1.233-.286 1.731a3.57 3.57 0 0 1 -.785 1.25 3.212 3.212 0 0 1 -1.185.759c-.458.17-.95.254-1.477.254-.512 0-.995-.085-1.45-.254a3.324 3.324 0 0 1 -1.19-.758 3.552 3.552 0 0 1 -.8-1.25c-.195-.499-.293-1.076-.293-1.732 0-.657.101-1.234.303-1.732s.475-.917.817-1.256a3.35 3.35 0 0 1 1.19-.764c.451-.17.926-.254 1.423-.254.513 0 .996.085 1.45.254.455.17.851.425 1.19.764.34.34.606.758.801 1.256s.292 1.075.292 1.732zm4.435 2.522c.238 0 .435-.02.59-.06.155-.041.28-.096.373-.166a.554.554 0 0 0 .195-.25.906.906 0 0 0 .054-.32c0-.251-.116-.46-.346-.625-.231-.166-.628-.345-1.19-.537a8.861 8.861 0 0 1 -.736-.304 2.705 2.705 0 0 1 -.66-.432 2.06 2.06 0 0 1 -.477-.63c-.122-.248-.184-.548-.184-.902 0-.355.065-.674.195-.958s.314-.525.552-.724c.238-.2.527-.353.866-.46s.721-.16 1.147-.16c.505 0 .941.055 1.309.166.368.11.67.232.909.365l-.487 1.361a4.555 4.555 0 0 0 -.698-.293 2.96 2.96 0 0 0 -.925-.127c-.404 0-.694.057-.871.171s-.265.29-.265.526c0 .14.032.258.097.354a.955.955 0 0 0 .276.26c.12.077.256.147.411.21s.327.127.514.194c.39.147.729.293 1.017.437.289.144.529.311.72.503s.334.417.427.675c.094.258.141.572.141.94 0 .716-.245 1.271-.736 1.666-.49.395-1.23.592-2.218.592a5.685 5.685 0 0 1 -1.607-.21 4.005 4.005 0 0 1 -.903-.376l.476-1.373c.223.126.5.238.828.338s.73.15 1.206.15zm10.58-6.351v1.472h-2.26v6.196h-1.689v-6.195h-2.261v-1.472h6.21zm2.066 0h1.688v7.668h-1.688zm9.433 7.668a38.746 38.746 0 0 0 -1.569-2.6 26.378 26.378 0 0 0 -1.796-2.423v5.023h-1.666v-7.668h1.374c.238.243.501.542.79.896.288.354.582.732.882 1.134.299.402.597.82.892 1.25.296.432.574.847.834 1.246v-4.526h1.677v7.668zm7.79-6.34c-.787 0-1.355.223-1.705.67-.35.446-.525 1.056-.525 1.83 0 .377.043.718.13 1.024s.216.57.39.791c.173.221.39.393.649.515.26.121.562.182.909.182.187 0 .348-.003.481-.01.134-.008.25-.023.352-.045v-2.667h1.688v3.796c-.202.08-.527.167-.974.26-.447.092-1 .138-1.656.138a4.217 4.217 0 0 1 -1.53-.266 3.195 3.195 0 0 1 -1.175-.774 3.471 3.471 0 0 1 -.752-1.25c-.176-.495-.265-1.06-.265-1.693 0-.642.098-1.21.292-1.704a3.68 3.68 0 0 1 .801-1.256 3.368 3.368 0 0 1 1.196-.78 4.031 4.031 0 0 1 1.466-.266 5.801 5.801 0 0 1 1.693.238 3.368 3.368 0 0 1 .796.348l-.487 1.384a4.345 4.345 0 0 0 -.796-.327 3.313 3.313 0 0 0 -.979-.138zm4.92 6.34v-7.668h5.065v1.45h-3.376v1.504h2.997v1.417h-2.997v1.848h3.625v1.45h-5.313zm9.737-7.756c1.126 0 1.988.204 2.586.614.6.409.899 1.045.899 1.908 0 .539-.121.976-.363 1.312-.242.335-.59.599-1.044.79.151.192.31.412.476.66.166.246.33.504.492.774.163.269.32.55.471.84.151.292.292.578.422.858h-1.894l-.416-.763a18.456 18.456 0 0 0 -.871-1.444 7.482 7.482 0 0 0 -.433-.592h-.833v2.8h-1.688v-7.558a9.37 9.37 0 0 1 1.141-.155c.393-.03.745-.044 1.055-.044zm.098 1.471a4.41 4.41 0 0 0 -.33.011l-.276.022v2.08h.476c.635 0 1.09-.08 1.363-.243.274-.162.411-.439.411-.83 0-.376-.138-.643-.416-.802s-.687-.238-1.228-.238z" fill="#fff" fill-rule="evenodd"/></svg>