<svg height="79" viewBox="0 0 91 79" width="91" xmlns="http://www.w3.org/2000/svg"><path d="m31.4625954 30.5271605c-4.0061069 36.6716049 29.0198473 42.3283951 38.4 31.7950617-16.5129771 40.8654318-55.3038168-5.3641975-38.4-31.7950617zm-6.351145-4.5839506c-14.2656489 2.0481481-35.4687023 47.4-10.3572519 42.2308642-15.43816797-5.5592593.0977099-37.6469136 10.3572519-42.2308642zm0-5.754321c-4.9832061-2.3407408-23.15725193 4.5839506-24.52519086 18.5308642 3.41984733-7.4123457 12.31145036-17.4580247 24.52519086-18.5308642zm6.2534351-5.1691358c-7.621374-5.94938273-16.708397.8777778-19.5419847 2.4382716 7.621374-8.87530865 19.0534351-7.4123457 19.5419847-2.4382716zm7.2305343-1.8530864c5.2763359-4.77901238-2.6381679-13.84938275-10.2595419-6.53456793 2.7358778-1.17037037 11.9206106-2.7308642 10.2595419 6.53456793zm8.6961833 1.3654321c10.0641221-9.55802473 1.6610687-13.26419757-.9770993-13.45925929 14.070229-3.60864198 7.8167939 11.70370369.9770993 13.45925929zm1.6610687 5.8518518c10.4549618 3.9987654 41.6244274-13.26419751 16.8061068-16.67777776 5.6671756 1.3654321 6.9374046 12.77654316-16.8061068 16.67777776zm-7.3282443 8.6802469c6.9374046 19.9938272 68.8854965 18.1407408 42.210687-8.8753086 5.7648855 9.2654321-8.5984733 25.7481481-42.210687 8.8753086z" fill="#d10303" fill-rule="evenodd" transform=""/></svg>