<svg xmlns="http://www.w3.org/2000/svg" xmlns:xlink="http://www.w3.org/1999/xlink" width="50" height="50" viewBox="0 0 50 50"><defs><circle id="a" cx="25" cy="25" r="25"/></defs><g fill="none" fill-rule="evenodd"><mask id="b" fill="#fff"><use xlink:href="#a"/></mask><use fill="#D8D8D8" xlink:href="#a"/><g mask="url(#b)" fill-rule="nonzero"><path fill="#DC4A38" d="M49.164.045H.697c-.428 0-.838.17-1.14.474a1.623 1.623 0 0 0-.473 1.145v47.523c0 .43.17.843.472 1.147a1.61 1.61 0 0 0 1.14.475h48.468a1.62 1.62 0 0 0 1.612-1.622V1.665c0-.43-.17-.842-.472-1.146a1.609 1.609 0 0 0-1.14-.474z"/><path fill="#FFF" d="M26.22 27.904l-1.631-1.273c-.497-.413-1.176-.96-1.176-1.96 0-1.003.68-1.642 1.27-2.233 1.9-1.502 3.797-3.1 3.797-6.47 0-3.464-2.17-5.286-3.21-6.15h2.805l2.943-1.858H22.1c-2.447 0-5.973.581-8.554 2.722-1.946 1.686-2.895 4.011-2.895 6.104 0 3.554 2.716 7.155 7.512 7.155.452 0 .948-.044 1.447-.091-.224.547-.45 1.003-.45 1.777 0 1.41.721 2.276 1.357 3.095-2.038.141-5.842.368-8.646 2.1-2.67 1.595-3.484 3.917-3.484 5.556 0 3.374 3.165 6.516 9.73 6.516 7.783 0 11.904-4.326 11.904-8.61 0-3.146-1.81-4.695-3.801-6.38zm-5.929-5.239c-3.894 0-5.657-5.056-5.657-8.107 0-1.189.224-2.415.994-3.373.726-.912 1.99-1.504 3.17-1.504 3.755 0 5.702 5.102 5.702 8.383 0 .821-.09 2.276-1.131 3.328-.729.73-1.947 1.273-3.078 1.273zm.045 18.32c-4.842 0-7.965-2.327-7.965-5.562 0-3.234 2.896-4.328 3.892-4.69 1.9-.643 4.344-.732 4.752-.732.452 0 .68 0 1.04.045 3.441 2.461 4.936 3.688 4.936 6.018 0 2.82-2.31 4.921-6.655 4.921zm17.313-18.39V18.04h-2.24v4.555h-4.527v2.275h4.527v4.583h2.24V24.87h4.55v-2.275h-4.55z"/></g></g></svg>