<svg xmlns="http://www.w3.org/2000/svg" width="158" height="32" viewBox="0 0 158 32"><path fill="#FFF" d="M47.43 14.308h-4.89V9.077h-3.055v13.23h3.056V16.77h4.89v5.539h3.056V9.077H47.43v5.23zm-28.115-4.8L26.955 14V3.908L19.315 0v9.508zM9.382 21.077h9.933v6.677l7.64 4.123V16.954L1.65 16.83s7.732 4.307 7.732 4.246zm7.915-10.339H7.396V4.031L.06 0v14.923h24.877l-7.64-4.185zM.061 27.754l7.335 3.908V22.4L.06 18v9.754zm65.431-17.108c-.58-.584-1.283-1.015-2.078-1.323-.795-.308-1.65-.43-2.537-.43-.886 0-1.711.153-2.506.43-.794.308-1.497.739-2.078 1.323-.611.585-1.07 1.323-1.436 2.185-.367.861-.52 1.846-.52 2.984 0 1.139.184 2.123.52 2.985.336.862.825 1.57 1.406 2.154.58.584 1.283 1.015 2.078 1.323.794.308 1.65.43 2.536.43.917 0 1.803-.153 2.598-.43.795-.308 1.498-.739 2.078-1.323a6.184 6.184 0 0 0 1.375-2.154c.337-.862.49-1.846.49-2.985 0-1.138-.184-2.123-.52-2.984-.336-.862-.795-1.6-1.406-2.185zm-1.375 6.923a4.307 4.307 0 0 1-.673 1.354c-.305.37-.672.677-1.1.862-.428.215-.917.307-1.467.307s-1.039-.092-1.467-.307a3.35 3.35 0 0 1-1.1-.862c-.305-.37-.52-.83-.672-1.354a6.23 6.23 0 0 1-.245-1.754c0-.646.092-1.23.245-1.753a4.3 4.3 0 0 1 .672-1.354c.306-.37.673-.677 1.1-.893.428-.215.917-.307 1.467-.307s1.04.092 1.467.307a3.35 3.35 0 0 1 1.1.862c.306.37.52.83.673 1.354a6.23 6.23 0 0 1 .244 1.754c0 .677-.06 1.261-.244 1.784zm73.163-.8h5.195v-2.461h-5.195v-2.462h5.806v-2.77h-8.862v13.232h9.473v-2.462h-6.417V16.77zm19.925 4.123c-.275-.492-.55-.954-.825-1.415-.275-.462-.58-.892-.855-1.323-.306-.43-.581-.8-.826-1.139.795-.338 1.406-.769 1.834-1.353.428-.585.642-1.324.642-2.277 0-1.477-.52-2.585-1.59-3.293-1.038-.707-2.566-1.046-4.553-1.046-.55 0-1.222.03-1.895.092-.703.062-1.436.154-2.047.277v12.923h3.056v-4.615h1.467c.244.308.52.615.764.985.244.369.52.738.764 1.169.275.43.52.77.764 1.23.244.462.489.924.733 1.231h3.3c-.244-.338-.488-.953-.733-1.446zm-3.85-6.092c-.49.277-1.284.43-2.384.43h-.856v-3.6c.306 0 .306-.03.49-.03.183 0 .366-.03.58-.03.947 0 1.68.122 2.17.4.489.276.733.738.733 1.384 0 .708-.244 1.17-.733 1.446zM79.06 16.03c-.336-.338-.764-.615-1.253-.86a37.51 37.51 0 0 0-1.772-.77c-.337-.123-.642-.215-.917-.338-.275-.124-.52-.216-.734-.37a1.419 1.419 0 0 1-.489-.461c-.122-.154-.183-.37-.183-.616 0-.4.153-.707.458-.923.306-.184.826-.307 1.528-.307.642 0 1.162.061 1.62.215.459.154.856.308 1.223.492l.855-2.338c-.428-.216-.947-.43-1.589-.646-.642-.185-1.406-.277-2.292-.277-.733 0-1.406.092-2.017.277-.58.184-1.1.461-1.528.8-.428.338-.733.769-.978 1.261a4.131 4.131 0 0 0-.336 1.662c0 .615.122 1.138.336 1.569.214.43.489.8.825 1.077a4.14 4.14 0 0 0 1.161.738c.428.185.856.37 1.284.523.978.339 1.68.647 2.078.924.397.276.611.646.611 1.076 0 .216-.03.4-.091.554a1.106 1.106 0 0 1-.336.431c-.153.123-.398.215-.642.277a4.809 4.809 0 0 1-1.04.092c-.824 0-1.527-.092-2.108-.246-.58-.184-1.07-.37-1.467-.584l-.825 2.369c.183.092.397.215.642.338.244.123.58.216.917.339.366.092.764.184 1.253.246a12.39 12.39 0 0 0 1.589.092c1.742 0 3.025-.338 3.881-1.015.856-.677 1.284-1.631 1.284-2.893 0-.646-.092-1.169-.245-1.63a2.627 2.627 0 0 0-.703-1.077zm48.134 4.032c-.306.03-.398.061-.642.061-.245 0-.52.03-.856.03-.611 0-1.13-.091-1.59-.307a2.932 2.932 0 0 1-1.13-.892c-.305-.37-.52-.83-.672-1.354-.153-.523-.214-1.108-.214-1.754 0-1.354.306-2.4.917-3.17.611-.768 1.62-1.168 2.995-1.168.61 0 1.192.092 1.711.246.52.154.978.338 1.406.554l.856-2.4c-.092-.062-.275-.154-.49-.277-.244-.123-.519-.216-.886-.339a6.68 6.68 0 0 0-1.283-.277c-.49-.092-1.07-.123-1.681-.123-.917 0-1.773.154-2.567.462a6.365 6.365 0 0 0-2.109 1.354 6.39 6.39 0 0 0-1.406 2.184c-.336.862-.52 1.846-.52 2.954s.154 2.062.46 2.923c.305.862.763 1.57 1.313 2.154a5.82 5.82 0 0 0 2.048 1.354c.795.308 1.711.461 2.69.461 1.16 0 2.2-.092 2.964-.246.794-.154 1.161-.307 1.772-.461v-6.462h-3.056v4.493h-.03zM82.27 11.846h3.973v10.462h2.75V11.846h3.973v-2.77H82.27v2.77zm14.058 10.462h3.056V9.077h-3.056v13.23zm15.892-5.293c-.611-.677-.978-1.415-1.498-2.153a65.359 65.359 0 0 0-1.589-2.154c-.52-.708-1.039-1.416-1.559-2.031-.52-.615-.977-.985-1.405-1.6h-2.537v13.23h3.056v-8.553c1.223 1.323 2.17 2.646 3.148 4.123.978 1.477 1.895 3.2 2.75 4.43h2.354V9.078h-2.75v7.938h.03z"/></svg>