<svg xmlns="http://www.w3.org/2000/svg" width="164" height="49" viewBox="0 0 164 49"><path d="M19.95 29.761c2.136 6.725 6.557 10.89 13.592 11.909 2.652.384 5.882.313 9.5-2.534-1.927 4.196-3.999 7.997-8.553 9.466-2.901.935-5.594.13-8.075-1.455-3.846-2.456-6.31-6.047-8.016-10.197-1.816-4.416-2.398-8.978-1.132-13.65.381-1.407 1.034-2.74 1.562-4.108l.264.105c-.196 3.529-.227 7.047.858 10.464zM4.847 33.577c-.219 1.242-.176 2.57-.027 3.832.268 2.265 1.421 3.996 3.557 4.981-2.21 1.255-5.688-.156-6.499-2.618-.655-1.992-.438-4.003.06-5.962 1.45-5.694 4.169-10.701 8.29-14.899 1.182-1.203 2.531-2.186 4.3-2.811-5.463 4.702-8.468 10.604-9.68 17.477zm39.996-30.4c1.768.8 2.075 2.248.872 3.788-1.152 1.475-2.683 2.472-4.322 3.303-2.863 1.45-5.841 2.51-9.101 2.512-.449 0-.898-.061-1.345-.112-.143-.016-.28-.092-.575-.194 1.3-.31 2.457-.553 3.596-.864 2.475-.677 4.866-1.555 6.842-3.28.448-.39.866-.839 1.206-1.326 1.226-1.762 1.04-3.22-.561-4.806l.088-.18c1.103.38 2.242.68 3.3 1.158zM7.439 10.25c.522-.885 1.87-1.986 3.416-2.688 2.158-.979 4.377-1.431 6.667-.445.752.324 1.308.862 1.56 1.841-4.315-2.798-7.976-.847-11.643 1.292zm16.32-3.48c.039-2.4-1.378-3.743-3.775-3.556-.716.056-1.428.167-2.157.254 1.14-1.548 3.934-1.8 5.513-.547 1.597 1.268 1.736 3.635.42 4.765 0-.378-.004-.648 0-.917zm31.786 10.795c1.033 2.679.3 4.966-2.128 6.512-1.614 1.027-3.41 1.583-5.274 1.858-5.91.875-11.636.26-17.05-2.399-2.096-1.03-3.917-2.431-5.055-4.563-.134-.253-.24-.521-.442-.965 1.23.557 2.258 1.05 3.308 1.493 3.616 1.524 7.329 2.693 11.271 2.952 3.394.223 6.683-.149 9.537-2.197 2.032-1.459 3.255-3.404 2.885-6.058-.06-.438-.21-.865-.364-1.481 1.422 1.555 2.61 3.028 3.312 4.848zM0 23.54c.859-6.231 9.659-12.893 14.91-11.255C7.936 13.432 3.383 17.621 0 23.541zM31.591.036c1.411.123 2.304 1.285 2.095 2.78-.37 2.66-1.878 4.522-4.291 5.7.145-.171.3-.336.433-.517.592-.807 1.274-1.566 1.748-2.438 1.117-2.058.365-4.019-1.797-4.927-.243-.102-.493-.188-.74-.282l.026-.33c.843 0 1.69-.059 2.526.014zM67 20.59c0-2.052.362-3.633 1.085-4.741.724-1.11 1.726-1.664 3.009-1.664 1.282 0 2.285.555 3.008 1.664.724 1.108 1.085 2.689 1.085 4.741 0 2.053-.361 3.633-1.085 4.742-.723 1.109-1.726 1.663-3.008 1.663-1.283 0-2.285-.554-3.009-1.663C67.362 24.223 67 22.642 67 20.59zm6.458 0c0-.672-.038-1.309-.115-1.91a6.291 6.291 0 0 0-.388-1.575c-.182-.448-.426-.805-.732-1.07-.306-.266-.682-.399-1.13-.399-.446 0-.823.133-1.129.398-.305.266-.55.623-.732 1.07a6.291 6.291 0 0 0-.388 1.575 15.166 15.166 0 0 0-.115 1.911c0 .673.038 1.31.115 1.911.076.602.206 1.127.388 1.575.182.448.427.805.732 1.07.306.266.683.398 1.13.398.447 0 .823-.132 1.129-.398.306-.265.55-.622.732-1.07.183-.448.312-.973.388-1.575.077-.601.115-1.238.115-1.91zm3.305 0c0-2.052.362-3.633 1.085-4.741.723-1.11 1.726-1.664 3.008-1.664 1.283 0 2.286.555 3.009 1.664.723 1.108 1.085 2.689 1.085 4.741 0 2.053-.362 3.633-1.085 4.742s-1.726 1.663-3.009 1.663c-1.282 0-2.285-.554-3.008-1.663-.723-1.109-1.085-2.69-1.085-4.742zm6.458 0c0-.672-.038-1.309-.115-1.91a6.291 6.291 0 0 0-.388-1.575c-.182-.448-.426-.805-.732-1.07-.306-.266-.683-.399-1.13-.399-.447 0-.823.133-1.129.398-.306.266-.55.623-.732 1.07a6.291 6.291 0 0 0-.388 1.575 15.166 15.166 0 0 0-.115 1.911c0 .673.038 1.31.115 1.911.076.602.206 1.127.388 1.575.182.448.426.805.732 1.07.306.266.682.398 1.13.398.446 0 .823-.132 1.129-.398.306-.265.55-.622.732-1.07.182-.448.312-.973.388-1.575.077-.601.115-1.238.115-1.91zm3.305 0c0-2.052.361-3.633 1.085-4.741.723-1.11 1.726-1.664 3.008-1.664s2.285.555 3.009 1.664c.723 1.108 1.085 2.689 1.085 4.741 0 2.053-.362 3.633-1.085 4.742-.724 1.109-1.727 1.663-3.009 1.663-1.282 0-2.285-.554-3.008-1.663-.724-1.109-1.085-2.69-1.085-4.742zm6.458 0c0-.672-.039-1.309-.115-1.91a6.291 6.291 0 0 0-.388-1.575c-.183-.448-.427-.805-.732-1.07-.306-.266-.683-.399-1.13-.399-.447 0-.823.133-1.129.398-.306.266-.55.623-.732 1.07a6.291 6.291 0 0 0-.388 1.575 15.166 15.166 0 0 0-.115 1.911c0 .673.038 1.31.115 1.911.076.602.205 1.127.388 1.575.182.448.426.805.732 1.07.306.266.682.398 1.13.398.446 0 .823-.132 1.129-.398.305-.265.55-.622.732-1.07.182-.448.312-.973.388-1.575.076-.601.115-1.238.115-1.91zm11.333 6.14c-.33-.85-.68-1.82-1.05-2.91a48.25 48.25 0 0 1-1.015-3.407 51.61 51.61 0 0 1-1.005 3.406 65.85 65.85 0 0 1-1.041 2.91h-1.43a45.748 45.748 0 0 1-1.588-4.157 73.14 73.14 0 0 1-1.464-5.043h1.764c.118.555.26 1.156.424 1.805.164.649.338 1.298.52 1.946.183.65.374 1.274.574 1.876.2.601.388 1.126.564 1.574.2-.554.397-1.14.591-1.76.195-.62.38-1.244.556-1.875.177-.632.344-1.25.503-1.858a46.9 46.9 0 0 0 .415-1.708h1.359c.105.531.235 1.1.388 1.708.153.607.317 1.226.494 1.858.176.63.362 1.256.556 1.875.194.62.39 1.206.59 1.76.177-.448.362-.973.557-1.574a66 66 0 0 0 1.102-3.822c.165-.649.306-1.25.424-1.805h1.694a73.14 73.14 0 0 1-1.465 5.043 45.748 45.748 0 0 1-1.588 4.158h-1.43zm5.51-4.583c0-.814.118-1.524.353-2.132.235-.607.547-1.111.935-1.512a3.796 3.796 0 0 1 1.341-.903 4.18 4.18 0 0 1 1.553-.3c1.235 0 2.182.386 2.841 1.158.659.773.988 1.95.988 3.53v.274c0 .112-.006.216-.018.31h-6.281c.07.955.347 1.68.83 2.176.481.496 1.234.743 2.258.743.576 0 1.061-.05 1.455-.15.395-.1.692-.198.892-.292l.229 1.38c-.2.106-.55.218-1.05.336-.5.118-1.068.177-1.703.177-.8 0-1.49-.12-2.073-.363a3.868 3.868 0 0 1-1.438-1 4.082 4.082 0 0 1-.838-1.512 6.414 6.414 0 0 1-.274-1.92zm6.3-.902c.011-.743-.174-1.354-.556-1.831-.383-.478-.909-.717-1.58-.717a2.16 2.16 0 0 0-.996.221c-.289.148-.533.34-.733.575a2.64 2.64 0 0 0-.467.814c-.112.307-.186.62-.22.938h4.552zm5.528-3.309c.2-.13.502-.265.908-.407a4.253 4.253 0 0 1 1.403-.212c.659 0 1.244.118 1.756.354a3.65 3.65 0 0 1 1.297.99c.353.425.62.933.802 1.522.183.59.274 1.239.274 1.947 0 .743-.109 1.412-.326 2.008a4.224 4.224 0 0 1-.927 1.512c-.4.413-.882.732-1.447.956-.564.224-1.2.336-1.905.336a11.45 11.45 0 0 1-2.03-.16 15.907 15.907 0 0 1-1.446-.318v-13.18l1.64-.284v4.936zm0 7.36c.164.048.397.092.697.133.3.042.673.062 1.12.062.882 0 1.588-.292 2.117-.876.53-.583.794-1.412.794-2.485 0-.472-.047-.915-.14-1.327a2.994 2.994 0 0 0-.46-1.07 2.22 2.22 0 0 0-.82-.709c-.335-.17-.738-.256-1.209-.256-.447 0-.858.077-1.235.23-.376.153-.664.313-.864.478v5.82zm8.562 1.434V13.283l1.641-.283v4.706a5.55 5.55 0 0 1 .98-.274 5.607 5.607 0 0 1 1.032-.097c.73 0 1.335.103 1.817.31.483.206.868.495 1.156.866.288.372.491.817.609 1.336a7.77 7.77 0 0 1 .176 1.716v5.167h-1.64v-4.813c0-.566-.039-1.05-.115-1.45-.077-.402-.203-.726-.38-.974a1.502 1.502 0 0 0-.705-.54c-.295-.111-.66-.167-1.094-.167a4.3 4.3 0 0 0-.547.035c-.189.024-.368.05-.539.08-.17.03-.323.062-.458.097a2.722 2.722 0 0 0-.292.088v7.644h-1.64zm17.986-4.6c0 .73-.106 1.391-.318 1.981a4.534 4.534 0 0 1-.89 1.522 3.92 3.92 0 0 1-1.368.982c-.53.23-1.106.345-1.73.345-.623 0-1.2-.115-1.729-.345a3.92 3.92 0 0 1-1.367-.982 4.534 4.534 0 0 1-.891-1.522c-.212-.59-.318-1.25-.318-1.981 0-.72.106-1.378.318-1.973a4.519 4.519 0 0 1 .89-1.53 3.92 3.92 0 0 1 1.368-.983 4.292 4.292 0 0 1 1.73-.345c.623 0 1.2.115 1.729.345.529.23.985.558 1.367.982.383.425.68.935.891 1.53.212.596.318 1.254.318 1.974zm-1.712 0c0-1.038-.232-1.861-.697-2.469-.464-.607-1.097-.91-1.897-.91s-1.432.303-1.896.91c-.465.608-.697 1.43-.697 2.469 0 1.038.232 1.86.697 2.468.464.607 1.097.911 1.896.911.8 0 1.433-.304 1.897-.911.465-.608.697-1.43.697-2.468zm5.97 3.414c.67 0 1.167-.088 1.49-.265.324-.177.486-.46.486-.85 0-.4-.16-.719-.477-.955-.317-.236-.84-.501-1.57-.796a23.896 23.896 0 0 1-1.015-.433 3.557 3.557 0 0 1-.838-.522 2.277 2.277 0 0 1-.565-.726c-.14-.283-.211-.63-.211-1.044 0-.814.3-1.46.9-1.937.6-.478 1.417-.717 2.452-.717.26 0 .518.015.777.045.258.03.5.065.723.106.224.041.42.085.591.132.17.048.303.089.397.124l-.3 1.416c-.176-.095-.453-.192-.83-.292-.375-.1-.828-.15-1.358-.15-.459 0-.858.09-1.2.274a.91.91 0 0 0-.511.858c0 .2.038.377.114.53.077.154.194.293.353.416a2.9 2.9 0 0 0 .591.345c.236.107.518.219.847.337.436.165.824.327 1.165.486.341.16.632.345.873.557.242.213.427.47.556.77.13.3.194.67.194 1.106 0 .85-.314 1.492-.944 1.928-.63.437-1.526.655-2.69.655-.812 0-1.447-.068-1.906-.203a9.948 9.948 0 0 1-.935-.31l.3-1.415c.188.07.488.176.9.318.411.142.958.212 1.64.212zm7.08-8.015h3.476v1.38h-3.476v4.247c0 .46.035.84.106 1.141.07.3.176.537.318.708.14.17.317.292.529.362.212.071.459.107.741.107.494 0 .891-.056 1.191-.169.3-.112.509-.191.627-.238l.317 1.362c-.165.083-.453.186-.864.31a4.904 4.904 0 0 1-1.412.185c-.624 0-1.138-.08-1.544-.238a2.249 2.249 0 0 1-.98-.717 2.885 2.885 0 0 1-.52-1.177 7.776 7.776 0 0 1-.15-1.619v-8.21l1.641-.282v2.848zM69.047 32.003c.705 0 1.245.127 1.623.381.377.254.565.67.565 1.248 0 .582-.19 1.002-.572 1.261-.382.259-.927.388-1.636.388h-.334v1.621H67.63V32.13a5.69 5.69 0 0 1 .736-.098 9.64 9.64 0 0 1 .681-.028zm.069.93a3.68 3.68 0 0 0-.229.007c-.075.004-.14.009-.194.014v1.397h.334c.368 0 .645-.05.832-.153.186-.103.279-.294.279-.573a.702.702 0 0 0-.072-.336.552.552 0 0 0-.204-.213.906.906 0 0 0-.324-.112 2.609 2.609 0 0 0-.422-.031zm4.415 1.544c0 .238.028.452.085.643.057.191.139.355.246.493.106.137.237.243.391.318.155.074.332.112.532.112.195 0 .371-.038.528-.112.157-.075.289-.18.396-.318.106-.138.188-.302.245-.493a2.24 2.24 0 0 0 .085-.643 2.29 2.29 0 0 0-.085-.646 1.479 1.479 0 0 0-.245-.496 1.083 1.083 0 0 0-.396-.318 1.215 1.215 0 0 0-.528-.112c-.2 0-.377.038-.532.115a1.125 1.125 0 0 0-.391.322 1.479 1.479 0 0 0-.246.496 2.263 2.263 0 0 0-.085.64zm3.605 0c0 .415-.06.78-.18 1.094-.12.314-.285.578-.494.79a2.022 2.022 0 0 1-.747.478 2.65 2.65 0 0 1-.93.161c-.323 0-.627-.054-.913-.16a2.093 2.093 0 0 1-.75-.48 2.244 2.244 0 0 1-.504-.79 2.997 2.997 0 0 1-.184-1.093c0-.414.063-.779.19-1.094.128-.314.3-.578.515-.793a2.11 2.11 0 0 1 .75-.482c.284-.107.583-.16.896-.16.323 0 .627.053.913.16.287.107.536.268.75.482.214.215.382.479.504.793.123.315.184.68.184 1.094zm4.607-1.9c.054.19.114.406.18.646a74.638 74.638 0 0 0 .44 1.513c.077.256.152.494.225.713a28.94 28.94 0 0 0 .354-1.643 149.788 149.788 0 0 0 .307-1.747h1.104c-.16.81-.342 1.633-.549 2.467a36.57 36.57 0 0 1-.671 2.376h-.975a32.596 32.596 0 0 1-.463-1.408c-.15-.492-.298-.984-.443-1.478l-.436 1.478c-.146.492-.298.96-.457 1.408h-.975c-.24-.75-.464-1.542-.671-2.376a51.285 51.285 0 0 1-.549-2.467h1.152a68.149 68.149 0 0 0 .32 1.747c.06.298.12.587.181.867s.124.538.188.776c.081-.229.16-.471.238-.727.077-.256.152-.513.225-.769.073-.256.14-.503.201-.74.061-.238.117-.45.167-.637h.907zm3.91 4.325V32.06h3.19v.916h-2.126v.95h1.888v.895h-1.888v1.167H89v.915h-3.347zm6.133-4.899c.71 0 1.252.13 1.63.388.376.259.565.66.565 1.206 0 .34-.076.616-.228.828a1.508 1.508 0 0 1-.658.5c.095.12.195.26.3.415a10.611 10.611 0 0 1 .872 1.562h-1.193l-.262-.482a11.664 11.664 0 0 0-.549-.912 4.725 4.725 0 0 0-.272-.374h-.525v1.768h-1.063V32.13c.231-.047.471-.08.719-.098a8.95 8.95 0 0 1 .664-.028zm.062.93a2.77 2.77 0 0 0-.208.007l-.174.014v1.314h.3c.4 0 .686-.052.859-.154.172-.103.259-.277.259-.524 0-.238-.088-.407-.263-.507-.175-.1-.433-.15-.773-.15zm3.72 3.97v-4.844h3.19v.916H96.63v.95h1.888v.895H96.63v1.167h2.283v.915h-3.346zm5.812-.888a6.783 6.783 0 0 0 .409.014c.532 0 .926-.138 1.183-.413.256-.275.385-.654.385-1.139 0-.508-.123-.892-.368-1.153-.246-.26-.634-.391-1.166-.391-.072 0-.147 0-.225.003-.077.003-.15.008-.218.018v3.06zm3.074-1.538c0 .42-.064.785-.19 1.097a2.037 2.037 0 0 1-.543.776 2.285 2.285 0 0 1-.855.461 3.874 3.874 0 0 1-1.131.154c-.191 0-.414-.008-.668-.024a5.329 5.329 0 0 1-.75-.102v-4.717c.245-.047.501-.078.767-.094.266-.017.494-.025.685-.025.404 0 .771.047 1.1.14.33.093.613.24.849.44s.418.457.545.769c.127.312.191.687.191 1.125zm5.334 2.488a12.2 12.2 0 0 1-.773-.024 5.34 5.34 0 0 1-.801-.116V32.13a6.64 6.64 0 0 1 .716-.094c.259-.021.5-.032.722-.032.3 0 .576.022.828.067.252.044.47.12.651.227.182.107.324.248.426.423.102.174.153.39.153.646 0 .387-.181.692-.545.916.3.116.504.274.613.475.11.2.164.426.164.678 0 .507-.18.89-.542 1.146-.361.256-.898.384-1.612.384zm-.538-2.173v1.25c.077.01.161.017.252.022.09.004.19.007.3.007.318 0 .575-.047.77-.14.195-.093.293-.266.293-.517 0-.224-.082-.384-.245-.48-.164-.095-.398-.142-.702-.142h-.668zm0-.832h.518c.327 0 .561-.043.702-.13.14-.085.211-.224.211-.415 0-.196-.073-.333-.218-.412-.145-.08-.359-.12-.64-.12-.091 0-.19.002-.294.004a3.104 3.104 0 0 0-.28.018v1.055zm5.662.09c.191-.33.373-.66.546-.991.172-.331.331-.664.477-1h1.172a31.346 31.346 0 0 1-.804 1.517c-.277.489-.57.98-.88 1.474v1.852h-1.063v-1.838a39.073 39.073 0 0 1-.882-1.481 31.813 31.813 0 0 1-.808-1.524h1.234c.145.336.302.669.47 1 .168.33.348.661.538.992zm8.497-1.99h1.063v4.842h-1.063v-2.054h-1.786v2.054h-1.063V32.06h1.063v1.852h1.786V32.06zm3.666 2.417c0 .238.028.452.085.643.057.191.138.355.245.493a1.107 1.107 0 0 0 .924.43c.195 0 .371-.038.528-.112a1.08 1.08 0 0 0 .395-.318 1.49 1.49 0 0 0 .246-.493c.056-.19.085-.405.085-.643a2.29 2.29 0 0 0-.085-.646 1.479 1.479 0 0 0-.246-.496 1.083 1.083 0 0 0-.395-.318 1.215 1.215 0 0 0-.528-.112c-.2 0-.377.038-.532.115a1.125 1.125 0 0 0-.392.322 1.479 1.479 0 0 0-.245.496 2.263 2.263 0 0 0-.085.64zm3.605 0c0 .415-.06.78-.18 1.094-.12.314-.286.578-.495.79a2.022 2.022 0 0 1-.746.478 2.65 2.65 0 0 1-.93.161c-.323 0-.627-.054-.914-.16a2.093 2.093 0 0 1-.75-.48 2.244 2.244 0 0 1-.504-.79 2.997 2.997 0 0 1-.184-1.093c0-.414.064-.779.191-1.094a2.34 2.34 0 0 1 .515-.793 2.11 2.11 0 0 1 .75-.482c.284-.107.582-.16.896-.16.322 0 .627.053.913.16.286.107.536.268.75.482.213.215.381.479.504.793.123.315.184.68.184 1.094zm2.793 1.594c.15 0 .274-.013.372-.039a.676.676 0 0 0 .235-.105.35.35 0 0 0 .123-.157.573.573 0 0 0 .034-.203.47.47 0 0 0-.218-.394c-.146-.105-.396-.218-.75-.34a5.573 5.573 0 0 1-.464-.192 1.704 1.704 0 0 1-.415-.272 1.3 1.3 0 0 1-.3-.398 1.274 1.274 0 0 1-.116-.57c0-.224.04-.425.123-.605.081-.179.197-.331.347-.457.15-.126.332-.223.545-.29.214-.068.455-.102.723-.102a2.873 2.873 0 0 1 1.397.336l-.307.86a2.865 2.865 0 0 0-.44-.186 1.86 1.86 0 0 0-.582-.08c-.254 0-.437.036-.549.108a.37.37 0 0 0-.167.332c0 .089.02.163.062.224a.6.6 0 0 0 .174.164c.075.049.16.093.259.133.097.04.205.08.323.122.246.093.46.185.64.276.183.09.334.197.454.318s.21.263.27.426c.058.163.088.361.088.594 0 .452-.155.803-.463 1.052-.31.25-.775.374-1.398.374a3.777 3.777 0 0 1-1.012-.133 2.518 2.518 0 0 1-.569-.237l.3-.867c.14.08.315.15.521.213.207.063.46.095.76.095zm6.665-4.012v.93h-1.425v3.913h-1.063V32.99h-1.424v-.93h3.912zm1.3 0h1.064v4.843h-1.064V32.06zm5.942 4.843a24.485 24.485 0 0 0-.988-1.642 16.62 16.62 0 0 0-1.131-1.53v3.172h-1.05V32.06h.866c.15.154.316.343.497.566a23.694 23.694 0 0 1 1.118 1.507c.186.272.361.534.525.785V32.06h1.056v4.843h-.893zm4.906-4.004c-.495 0-.853.14-1.073.423-.22.281-.33.667-.33 1.156 0 .238.027.453.081.647.055.193.137.36.246.5.109.139.245.247.408.324.164.077.355.116.573.116.118 0 .22-.003.303-.007.084-.005.158-.014.222-.028v-1.685h1.063v2.397a3.926 3.926 0 0 1-.613.165c-.282.058-.63.087-1.043.087a2.65 2.65 0 0 1-.965-.168 2.012 2.012 0 0 1-.739-.489 2.193 2.193 0 0 1-.474-.79 3.173 3.173 0 0 1-.167-1.069c0-.405.062-.764.184-1.076.123-.312.291-.577.505-.793a2.12 2.12 0 0 1 .753-.493c.288-.112.596-.168.923-.168a3.644 3.644 0 0 1 1.067.15 2.118 2.118 0 0 1 .5.22l-.306.874a2.732 2.732 0 0 0-.5-.206 2.081 2.081 0 0 0-.618-.087zm3.1 4.004V32.06h3.19v.916h-2.126v.95h1.887v.895h-1.887v1.167h2.283v.915h-3.347zm6.133-4.899c.709 0 1.252.13 1.63.388.376.259.565.66.565 1.206 0 .34-.076.616-.229.828a1.508 1.508 0 0 1-.657.5c.095.12.195.26.3.415a10.611 10.611 0 0 1 .872 1.562h-1.193l-.262-.482a11.664 11.664 0 0 0-.549-.912 4.725 4.725 0 0 0-.272-.374h-.525v1.768h-1.063V32.13c.231-.047.471-.08.719-.098a8.95 8.95 0 0 1 .664-.028zm.061.93a2.77 2.77 0 0 0-.207.007l-.174.014v1.314h.3c.4 0 .686-.052.858-.154.173-.103.26-.277.26-.524 0-.238-.088-.407-.263-.507-.175-.1-.433-.15-.774-.15z" fill="#FFF" fill-rule="evenodd"/></svg>