<svg xmlns="http://www.w3.org/2000/svg" width="50" height="50" viewBox="0 0 50 50"><g fill="none"><circle cx="24.995" cy="24.981" r="24.958" fill="#2DAAE1"/><path fill="#FFF" d="M40.998 15.054a13.109 13.109 0 0 1-3.771 1.034 6.585 6.585 0 0 0 2.887-3.632 13.117 13.117 0 0 1-4.17 1.593 6.556 6.556 0 0 0-4.793-2.072 6.565 6.565 0 0 0-6.565 6.565c0 .514.058 1.015.17 1.497a18.642 18.642 0 0 1-13.533-6.86 6.534 6.534 0 0 0-.89 3.301 6.562 6.562 0 0 0 2.922 5.464 6.536 6.536 0 0 1-2.975-.82v.082a6.569 6.569 0 0 0 5.267 6.438 6.664 6.664 0 0 1-2.966.115 6.574 6.574 0 0 0 6.132 4.558 13.172 13.172 0 0 1-9.72 2.718 18.58 18.58 0 0 0 10.064 2.952c12.076 0 18.68-10.005 18.68-18.68 0-.286-.006-.568-.02-.85a13.378 13.378 0 0 0 3.28-3.403z"/></g></svg>